<svg width="1751" height="988" viewBox="0 0 1751 988" fill="none" xmlns="http://www.w3.org/2000/svg">
<g filter="url(#filter0_d_649_7135)">
<path d="M127.176 435.24C125.597 435.24 124.317 434.749 123.336 433.768C122.354 432.744 121.864 431.443 121.864 429.864C121.864 428.285 122.354 427.027 123.336 426.088C124.317 425.107 125.597 424.616 127.176 424.616C128.754 424.616 130.013 425.107 130.952 426.088C131.933 427.027 132.424 428.285 132.424 429.864C132.424 431.485 131.933 432.787 130.952 433.768C130.013 434.749 128.754 435.24 127.176 435.24ZM138.696 435.24C137.117 435.24 135.837 434.749 134.856 433.768C133.874 432.744 133.384 431.443 133.384 429.864C133.384 428.285 133.874 427.027 134.856 426.088C135.837 425.107 137.117 424.616 138.696 424.616C140.274 424.616 141.533 425.107 142.472 426.088C143.453 427.027 143.944 428.285 143.944 429.864C143.944 431.485 143.453 432.787 142.472 433.768C141.533 434.749 140.274 435.24 138.696 435.24ZM121.352 465C117.554 465 114.546 463.72 112.328 461.16C110.408 458.899 109.448 455.997 109.448 452.456V447.208L119.944 441.64V451.944C119.944 453.053 120.136 453.8 120.52 454.184C120.904 454.568 121.65 454.76 122.76 454.76H143.24C144.349 454.76 145.096 454.568 145.48 454.184C145.864 453.8 146.056 453.053 146.056 451.944V441.448L156.616 435.88V452.456C156.616 456.509 155.336 459.688 152.776 461.992C150.557 463.997 147.698 465 144.2 465H121.352ZM180.551 465C176.54 465 173.404 463.72 171.143 461.16C169.138 458.899 168.135 455.997 168.135 452.456V429.288L178.695 423.72V451.944C178.695 453.053 178.887 453.8 179.271 454.184C179.655 454.568 180.402 454.76 181.511 454.76H187.463V465H180.551ZM194.941 446.952C194.941 442.941 196.199 439.805 198.717 437.544C200.935 435.581 203.773 434.6 207.229 434.6C211.666 434.6 215.101 436.221 217.533 439.464C219.623 442.195 220.669 445.629 220.669 449.768C220.669 454.589 219.346 458.408 216.701 461.224C214.397 463.741 211.41 465 207.741 465C204.455 465 201.767 464.467 199.677 463.4C197.757 464.467 195.559 465 193.085 465H186.172V454.76H192.125C193.234 454.76 193.981 454.568 194.365 454.184C194.749 453.8 194.941 453.053 194.941 451.944V446.952ZM205.501 453.416C205.501 454.312 206.055 454.76 207.165 454.76C209.255 454.76 210.301 452.968 210.301 449.384C210.301 446.141 209.277 444.52 207.229 444.52C206.077 444.52 205.501 445.203 205.501 446.568V453.416ZM262.046 454.76V465H255.582C255.198 468.968 253.406 472.083 250.206 474.344C247.56 476.221 244.467 477.16 240.926 477.16C238.11 477.16 235.272 476.285 232.414 474.536V465.384C235.187 467.005 237.726 467.816 240.03 467.816C241.224 467.816 242.312 467.496 243.294 466.856C244.318 466.259 244.915 465.533 245.086 464.68C244.318 464.637 243.358 464.531 242.206 464.36C238.067 463.72 234.782 461.843 232.35 458.728C230.302 456.083 229.278 453.096 229.278 449.768C229.278 444.947 230.622 441.149 233.31 438.376C235.742 435.859 238.92 434.6 242.846 434.6C247.07 434.6 250.334 435.88 252.638 438.44C254.643 440.616 255.646 443.453 255.646 446.952V454.76H262.046ZM245.086 446.952C245.086 445.331 244.339 444.52 242.846 444.52C240.712 444.52 239.646 446.141 239.646 449.384C239.646 452.029 240.712 453.629 242.846 454.184C243.144 454.269 243.656 454.376 244.382 454.504C244.68 454.504 244.915 454.525 245.086 454.568V446.952ZM325.823 454.76H331.775V465H324.863C322.047 465 319.679 464.36 317.759 463.08C315.796 464.36 313.407 465 310.591 465H281.919C279.188 465 276.82 464.36 274.815 463.08C272.724 464.36 270.335 465 267.647 465H260.735V454.76H266.687C267.796 454.76 268.543 454.568 268.927 454.184C269.311 453.8 269.503 453.053 269.503 451.944V444.008L280.063 438.44V451.944C280.063 453.011 280.234 453.736 280.575 454.12C280.916 454.504 281.599 454.717 282.623 454.76C284.842 448.872 287.914 444.115 291.839 440.488C296.148 436.563 301.012 434.6 306.431 434.6C311.679 434.6 315.86 436.413 318.975 440.04C321.663 443.112 323.007 446.867 323.007 451.304V452.456C323.007 453.992 323.946 454.76 325.823 454.76ZM310.271 454.76C311.295 454.76 311.914 454.632 312.127 454.376C312.34 454.077 312.447 453.267 312.447 451.944V451.304C312.447 449.256 311.892 447.613 310.783 446.376C309.716 445.139 308.287 444.52 306.495 444.52C303.935 444.52 301.46 445.437 299.071 447.272C296.724 449.107 294.783 451.603 293.247 454.76H310.271ZM349.493 430.76C347.914 430.76 346.634 430.269 345.653 429.288C344.672 428.264 344.181 426.963 344.181 425.384C344.181 423.805 344.672 422.547 345.653 421.608C346.634 420.627 347.914 420.136 349.493 420.136C351.072 420.136 352.33 420.627 353.269 421.608C354.25 422.547 354.741 423.805 354.741 425.384C354.741 427.005 354.25 428.307 353.269 429.288C352.33 430.269 351.072 430.76 349.493 430.76ZM330.485 465V454.76H339.445C345.802 454.76 350.944 453.117 354.869 449.832C352.437 446.205 349.621 444.392 346.421 444.392C343.178 444.392 339.338 446.248 334.901 449.96V440.936C338.57 436.712 342.816 434.6 347.637 434.6H347.765C351.221 434.6 354.57 435.859 357.813 438.376C361.056 440.851 363.914 444.349 366.389 448.872V452.456C363.274 456.467 359.37 459.56 354.677 461.736C349.984 463.912 344.885 465 339.381 465H330.485ZM404.63 463.016C404.161 463.059 403.457 463.08 402.518 463.08C398.422 463.08 395.137 461.565 392.662 458.536C390.614 456.061 389.59 453.139 389.59 449.768C389.59 444.989 390.934 441.192 393.622 438.376C396.011 435.859 399.147 434.6 403.03 434.6C406.998 434.6 410.113 435.88 412.374 438.44C414.337 440.616 415.318 443.453 415.318 446.952V460.392C415.318 466.28 413.654 470.717 410.326 473.704C407.766 476.008 404.523 477.16 400.598 477.16C397.782 477.16 394.945 476.285 392.086 474.536V465.384C394.859 467.005 397.398 467.816 399.702 467.816C402.518 467.816 404.161 466.216 404.63 463.016ZM404.758 446.568C404.758 445.203 404.182 444.52 403.03 444.52C400.982 444.52 399.958 446.141 399.958 449.384C399.958 452.584 401.025 454.184 403.158 454.184C403.841 454.184 404.374 454.056 404.758 453.8V446.568ZM445.777 428.84C444.198 428.84 442.918 428.349 441.937 427.368C440.956 426.344 440.465 425.043 440.465 423.464C440.465 421.885 440.956 420.627 441.937 419.688C442.918 418.707 444.198 418.216 445.777 418.216C447.356 418.216 448.614 418.707 449.553 419.688C450.534 420.627 451.025 421.885 451.025 423.464C451.025 425.085 450.534 426.387 449.553 427.368C448.614 428.349 447.356 428.84 445.777 428.84ZM457.297 428.84C455.718 428.84 454.438 428.349 453.457 427.368C452.476 426.344 451.985 425.043 451.985 423.464C451.985 421.885 452.476 420.627 453.457 419.688C454.438 418.707 455.718 418.216 457.297 418.216C458.876 418.216 460.134 418.707 461.073 419.688C462.054 420.627 462.545 421.885 462.545 423.464C462.545 425.085 462.054 426.387 461.073 427.368C460.134 428.349 458.876 428.84 457.297 428.84ZM467.089 454.76H473.041V465H466.129C462.545 465 459.622 463.933 457.361 461.8C455.74 462.696 453.777 463.144 451.473 463.144C447.377 463.144 444.092 461.629 441.617 458.6C439.569 456.125 438.545 453.203 438.545 449.832C438.545 445.523 440.017 441.981 442.961 439.208C445.393 436.989 448.124 435.88 451.153 435.88C452.134 435.88 452.988 435.965 453.713 436.136V435.24L464.273 429.672V451.944C464.273 453.053 464.465 453.8 464.849 454.184C465.233 454.568 465.98 454.76 467.089 454.76ZM453.713 446.184C453.201 445.971 452.625 445.864 451.985 445.864C451.046 445.864 450.3 446.248 449.745 447.016C449.19 447.784 448.913 448.808 448.913 450.088C448.913 452.861 449.98 454.248 452.113 454.248C452.71 454.248 453.265 454.12 453.777 453.864C453.734 453.565 453.713 453.096 453.713 452.456V446.184ZM493.623 454.76C495.842 448.872 498.914 444.115 502.839 440.488C507.148 436.563 512.012 434.6 517.431 434.6C522.679 434.6 526.86 436.413 529.975 440.04C532.663 443.112 534.007 446.867 534.007 451.304V452.456C534.007 456.552 532.727 459.731 530.167 461.992C527.948 463.997 525.09 465 521.591 465H492.919C490.188 465 487.82 464.36 485.815 463.08C483.724 464.36 481.335 465 478.647 465H471.735V454.76H477.687C478.796 454.76 479.543 454.568 479.927 454.184C480.311 453.8 480.503 453.053 480.503 451.944V444.008L491.063 438.44V451.944C491.063 453.011 491.234 453.736 491.575 454.12C491.916 454.504 492.599 454.717 493.623 454.76ZM523.447 451.944V451.304C523.447 449.256 522.892 447.613 521.783 446.376C520.716 445.139 519.287 444.52 517.495 444.52C514.935 444.52 512.46 445.437 510.071 447.272C507.724 449.107 505.783 451.603 504.247 454.76H521.271C522.295 454.76 522.914 454.632 523.127 454.376C523.34 454.077 523.447 453.267 523.447 451.944ZM556.051 465C552.04 465 548.904 463.72 546.643 461.16C544.638 458.899 543.635 455.997 543.635 452.456V429.288L554.195 423.72V451.944C554.195 453.053 554.387 453.8 554.771 454.184C555.155 454.568 555.902 454.76 557.011 454.76H562.963V465H556.051ZM580.681 430.76C579.102 430.76 577.822 430.269 576.841 429.288C575.859 428.264 575.369 426.963 575.369 425.384C575.369 423.805 575.859 422.547 576.841 421.608C577.822 420.627 579.102 420.136 580.681 420.136C582.259 420.136 583.518 420.627 584.457 421.608C585.438 422.547 585.929 423.805 585.929 425.384C585.929 427.005 585.438 428.307 584.457 429.288C583.518 430.269 582.259 430.76 580.681 430.76ZM561.672 465V454.76H570.633C576.99 454.76 582.131 453.117 586.057 449.832C583.625 446.205 580.809 444.392 577.609 444.392C574.366 444.392 570.526 446.248 566.089 449.96V440.936C569.758 436.712 574.003 434.6 578.825 434.6H578.953C582.409 434.6 585.758 435.859 589.001 438.376C592.243 440.851 595.102 444.349 597.576 448.872V452.456C594.462 456.467 590.558 459.56 585.865 461.736C581.171 463.912 576.073 465 570.569 465H561.672ZM683.818 430.76C682.239 430.76 680.959 430.269 679.978 429.288C678.996 428.264 678.506 426.963 678.506 425.384C678.506 423.805 678.996 422.547 679.978 421.608C680.959 420.627 682.239 420.136 683.818 420.136C685.396 420.136 686.655 420.627 687.594 421.608C688.575 422.547 689.066 423.805 689.066 425.384C689.066 427.005 688.575 428.307 687.594 429.288C686.655 430.269 685.396 430.76 683.818 430.76ZM659.754 454.76C661.972 448.872 665.044 444.115 668.97 440.488C673.279 436.563 678.143 434.6 683.562 434.6C688.81 434.6 692.991 436.413 696.106 440.04C698.794 443.112 700.138 446.867 700.138 451.304V452.456C700.138 456.552 698.858 459.731 696.298 461.992C694.079 463.997 691.22 465 687.722 465H659.05C658.196 465 657.386 464.936 656.618 464.808C655.636 468.819 653.46 471.933 650.09 474.152C647.06 476.157 643.412 477.16 639.146 477.16C633.172 477.16 628.543 475.048 625.258 470.824C622.698 467.581 621.418 463.741 621.418 459.304C621.418 456.147 622.122 453.352 623.53 450.92L633.514 448.808C632.063 451.581 631.338 454.461 631.338 457.448C631.338 460.307 632.042 462.611 633.45 464.36C634.858 466.067 636.756 466.92 639.146 466.92C644.138 466.92 646.634 464.701 646.634 460.264V444.008L657.194 438.44V451.944C657.194 453.011 657.364 453.736 657.706 454.12C658.047 454.504 658.73 454.717 659.754 454.76ZM689.578 451.944V451.304C689.578 449.256 689.023 447.613 687.914 446.376C686.847 445.139 685.418 444.52 683.626 444.52C681.066 444.52 678.591 445.437 676.202 447.272C673.855 449.107 671.914 451.603 670.378 454.76H687.402C688.426 454.76 689.044 454.632 689.257 454.376C689.471 454.077 689.578 453.267 689.578 451.944ZM722.88 463.016C722.411 463.059 721.707 463.08 720.768 463.08C716.672 463.08 713.387 461.565 710.912 458.536C708.864 456.061 707.84 453.139 707.84 449.768C707.84 444.989 709.184 441.192 711.872 438.376C714.261 435.859 717.397 434.6 721.28 434.6C725.248 434.6 728.363 435.88 730.624 438.44C732.587 440.616 733.568 443.453 733.568 446.952V460.392C733.568 466.28 731.904 470.717 728.576 473.704C726.016 476.008 722.773 477.16 718.848 477.16C716.032 477.16 713.195 476.285 710.336 474.536V465.384C713.109 467.005 715.648 467.816 717.952 467.816C720.768 467.816 722.411 466.216 722.88 463.016ZM723.008 446.568C723.008 445.203 722.432 444.52 721.28 444.52C719.232 444.52 718.208 446.141 718.208 449.384C718.208 452.584 719.275 454.184 721.408 454.184C722.091 454.184 722.624 454.056 723.008 453.8V446.568ZM765.083 454.76H771.035V465H764.123C763.568 465 762.822 464.957 761.883 464.872C760.816 470.248 758.086 474.003 753.691 476.136C751.771 477.032 749.723 477.48 747.547 477.48C744.646 477.48 741.808 476.712 739.035 475.176V466.024C741.296 467.304 743.472 467.944 745.563 467.944C746.416 467.944 747.206 467.837 747.931 467.624C750.448 466.813 751.707 464.659 751.707 461.16V441.448L762.267 435.88V451.944C762.267 453.053 762.459 453.8 762.843 454.184C763.227 454.568 763.974 454.76 765.083 454.76ZM804.807 454.76V465H769.735V454.76H776.903C776.263 453.011 775.943 451.069 775.943 448.936C775.943 444.371 777.586 440.701 780.871 437.928C783.559 435.709 786.652 434.6 790.151 434.6C794.93 434.6 798.791 436.712 801.735 440.936V449.96C798.45 446.333 795.015 444.52 791.431 444.52C791.303 444.52 791.196 444.52 791.111 444.52C788.039 444.605 786.503 446.205 786.503 449.32C786.503 452.947 788.764 454.76 793.287 454.76H804.807ZM601.268 545C600.585 549.096 598.153 552.232 593.972 554.408C590.388 556.243 585.929 557.16 580.596 557.16C573.129 557.16 567.54 555.048 563.828 550.824C561.054 547.667 559.668 543.827 559.668 539.304C559.668 536.147 560.372 533.352 561.78 530.92L571.764 528.808C570.313 531.581 569.588 534.461 569.588 537.448C569.588 544.189 573.257 547.56 580.596 547.56C585.588 547.56 588.788 546.707 590.196 545H584.308L589.62 534.76H601.46V545H601.268ZM599.547 545V534.76H602.94C604.561 534.76 605.649 534.461 606.204 533.864C606.801 533.224 607.1 532.051 607.1 530.344V509.352L617.66 503.72V530.408C617.66 534.931 616.273 538.536 613.5 541.224C610.94 543.741 607.569 545 603.388 545H599.547ZM629.198 545V509.352L639.758 503.72V545H629.198ZM707.256 534.76H714.424V545H707.512C706.189 545 704.845 544.829 703.48 544.488C702.242 548.584 699.832 551.805 696.248 554.152C693.048 556.2 689.336 557.224 685.112 557.224C678.669 557.224 673.698 555.155 670.2 551.016C667.512 547.859 666.168 544.125 666.168 539.816C666.168 536.659 666.829 533.843 668.152 531.368L678.583 529C677.048 531.603 676.28 534.653 676.28 538.152C676.28 540.968 677.048 543.144 678.583 544.68C680.12 546.216 682.296 546.984 685.112 546.984C687.8 546.984 689.912 546.237 691.448 544.744C693.026 543.208 693.816 541.117 693.816 538.472V509.352L704.376 503.72V531.944C704.376 532.115 704.376 532.221 704.376 532.264C704.376 533.203 704.568 533.864 704.952 534.248C705.378 534.589 706.146 534.76 707.256 534.76ZM778.261 534.76H784.213V545H777.301C774.485 545 772.117 544.36 770.197 543.08C768.234 544.36 765.845 545 763.029 545H734.357C731.626 545 729.258 544.36 727.253 543.08C725.162 544.36 722.773 545 720.085 545H713.172V534.76H719.125C720.234 534.76 720.981 534.568 721.365 534.184C721.749 533.8 721.941 533.053 721.941 531.944V524.008L732.501 518.44V531.944C732.501 533.011 732.671 533.736 733.013 534.12C733.354 534.504 734.037 534.717 735.061 534.76C737.279 528.872 740.351 524.115 744.277 520.488C748.586 516.563 753.45 514.6 758.869 514.6C764.117 514.6 768.298 516.413 771.413 520.04C774.101 523.112 775.445 526.867 775.445 531.304V532.456C775.445 533.992 776.383 534.76 778.261 534.76ZM762.709 534.76C763.733 534.76 764.351 534.632 764.565 534.376C764.778 534.077 764.885 533.267 764.885 531.944V531.304C764.885 529.256 764.33 527.613 763.221 526.376C762.154 525.139 760.725 524.52 758.933 524.52C756.373 524.52 753.898 525.437 751.509 527.272C749.162 529.107 747.221 531.603 745.685 534.76H762.709ZM785.931 510.76C784.352 510.76 783.072 510.269 782.09 509.288C781.109 508.264 780.618 506.963 780.618 505.384C780.618 503.805 781.109 502.547 782.09 501.608C783.072 500.627 784.352 500.136 785.931 500.136C787.509 500.136 788.768 500.627 789.707 501.608C790.688 502.547 791.179 503.805 791.179 505.384C791.179 507.005 790.688 508.307 789.707 509.288C788.768 510.269 787.509 510.76 785.931 510.76ZM797.451 510.76C795.872 510.76 794.592 510.269 793.611 509.288C792.629 508.264 792.139 506.963 792.139 505.384C792.139 503.805 792.629 502.547 793.611 501.608C794.592 500.627 795.872 500.136 797.451 500.136C799.029 500.136 800.288 500.627 801.227 501.608C802.208 502.547 802.699 503.805 802.699 505.384C802.699 507.005 802.208 508.307 801.227 509.288C800.288 510.269 799.029 510.76 797.451 510.76ZM782.922 545V534.76H788.875C789.984 534.76 790.731 534.568 791.115 534.184C791.499 533.8 791.691 533.053 791.691 531.944V521.448L802.251 515.88V532.456C802.251 536.509 800.971 539.688 798.411 541.992C796.192 543.997 793.333 545 789.835 545H782.922Z" fill="url(#paint0_linear_649_7135)"/>
</g>
<g filter="url(#filter1_d_649_7135)">
<path d="M357.573 507.9H336.373V518.3C336.973 518.167 337.573 518.1 338.173 518.1C353.773 518.1 361.573 524.9 361.573 538.5C361.573 544.767 359.173 550.067 354.373 554.4C349.973 558.267 344.673 560.2 338.473 560.2C334.539 560.2 330.539 559.333 326.473 557.6C322.473 555.867 319.073 553.567 316.273 550.7L322.673 540.7C327.873 544.7 332.706 546.7 337.173 546.7C343.039 546.7 345.973 544.3 345.973 539.5C345.973 533.3 341.673 530.2 333.073 530.2C329.406 530.2 325.406 530.833 321.073 532.1V495.7H357.573V507.9ZM394.753 494.5C402.62 494.5 409.02 498.233 413.953 505.7C417.953 511.833 419.953 519.1 419.953 527.5C419.953 537.567 417.386 545.7 412.253 551.9C407.653 557.433 401.82 560.2 394.753 560.2C386.62 560.2 380.253 556.633 375.653 549.5C371.853 543.567 369.953 536.233 369.953 527.5C369.953 517.7 372.486 509.6 377.553 503.2C382.153 497.4 387.886 494.5 394.753 494.5ZM395.053 507.6C391.786 507.6 389.42 509.1 387.953 512.1C386.553 515.1 385.853 520.033 385.853 526.9C385.853 533.367 386.72 538.5 388.453 542.3C390.053 545.7 392.12 547.4 394.653 547.4C397.586 547.4 399.886 545.6 401.553 542C403.22 538.333 404.053 533.3 404.053 526.9C404.053 520.1 403.353 515.2 401.953 512.2C400.553 509.133 398.253 507.6 395.053 507.6ZM453.98 517.8C453.98 522.733 452.846 526.667 450.58 529.6C448.313 532.533 445.28 534 441.48 534C437.48 534 434.346 532.567 432.08 529.7C429.813 526.833 428.68 522.9 428.68 517.9C428.68 513.167 429.813 509.433 432.08 506.7C434.413 503.9 437.546 502.5 441.48 502.5C445.146 502.5 448.146 503.933 450.48 506.8C452.813 509.6 453.98 513.267 453.98 517.8ZM445.48 518C445.48 515.867 445.08 514.067 444.28 512.6C443.48 511.067 442.48 510.3 441.28 510.3C440.08 510.3 439.08 511.033 438.28 512.5C437.48 513.967 437.08 515.8 437.08 518C437.08 520.467 437.48 522.467 438.28 524C439.08 525.533 440.08 526.3 441.28 526.3C442.48 526.3 443.48 525.533 444.28 524C445.08 522.4 445.48 520.4 445.48 518ZM442.68 559L471.78 502.5H483.48L454.38 559H442.68ZM496.98 543.4C496.98 548.333 495.846 552.267 493.58 555.2C491.313 558.133 488.28 559.6 484.48 559.6C480.48 559.6 477.346 558.167 475.08 555.3C472.813 552.433 471.68 548.5 471.68 543.5C471.68 538.767 472.813 535.033 475.08 532.3C477.413 529.5 480.546 528.1 484.48 528.1C488.146 528.1 491.146 529.533 493.48 532.4C495.813 535.2 496.98 538.867 496.98 543.4ZM488.48 543.6C488.48 541.467 488.08 539.667 487.28 538.2C486.48 536.667 485.48 535.9 484.28 535.9C483.08 535.9 482.08 536.633 481.28 538.1C480.48 539.567 480.08 541.4 480.08 543.6C480.08 546.067 480.48 548.067 481.28 549.6C482.08 551.133 483.08 551.9 484.28 551.9C485.48 551.9 486.48 551.133 487.28 549.6C488.08 548 488.48 546 488.48 543.6Z" fill="url(#paint1_linear_649_7135)"/>
</g>
<path d="M1067.99 748.416C1018.67 694.981 1018.67 608.367 1067.99 554.932L1537.5 -62.042C1586.81 -115.477 1735.48 -81.7009 1784.79 -28.2662C1834.11 25.1685 1969.69 934.565 1920.37 988L1246.55 748.416C1197.24 801.851 1117.3 801.851 1067.99 748.416Z" fill="url(#paint2_linear_649_7135)"/>
<path d="M1612.05 287.77L1413.08 288.23C1413.77 265.348 1427.18 247.149 1443.67 247.11C1446 247.105 1448.23 247.462 1450.43 248.137C1455.57 249.756 1460.87 246.391 1463.44 239.951C1468.68 226.891 1478.65 218.078 1490.06 218.052C1499.79 218.029 1508.47 224.352 1514.12 234.261C1517.79 240.687 1523.94 242.711 1529.26 239.346C1533.11 236.891 1537.34 235.567 1541.83 235.557C1550.85 235.536 1558.98 240.954 1564.63 249.594C1567.42 253.892 1571.69 255.695 1575.76 254.507C1577.76 253.914 1579.8 253.592 1581.93 253.587C1596.74 253.553 1609.12 268.204 1612.08 287.77L1612.05 287.77Z" fill="white"/>
<path d="M1280.85 868.306C1500.02 868.306 1677.7 721.163 1677.7 539.653C1677.7 358.143 1500.02 211 1280.85 211C1061.68 211 884 358.143 884 539.653C884 721.163 1061.68 868.306 1280.85 868.306Z" fill="url(#paint3_linear_649_7135)"/>
<path d="M1014.5 220.106C1014.5 221.805 1012.83 223.212 1010.75 223.212C1008.67 223.212 1007 221.829 1007 220.106C1007 218.383 1008.67 217 1010.75 217C1012.83 217 1014.5 218.383 1014.5 220.106Z" fill="#7233AD"/>
<path d="M1039.17 223.212C1041.24 223.212 1042.92 221.821 1042.92 220.106C1042.92 218.391 1041.24 217 1039.17 217C1037.1 217 1035.42 218.391 1035.42 220.106C1035.42 221.821 1037.1 223.212 1039.17 223.212Z" fill="#7233AD"/>
<path d="M1067.59 223.212C1069.67 223.212 1071.34 221.821 1071.34 220.106C1071.34 218.391 1069.67 217 1067.59 217C1065.52 217 1063.84 218.391 1063.84 220.106C1063.84 221.821 1065.52 223.212 1067.59 223.212Z" fill="#7233AD"/>
<path d="M1096.02 223.212C1098.09 223.212 1099.77 221.821 1099.77 220.106C1099.77 218.391 1098.09 217 1096.02 217C1093.94 217 1092.27 218.391 1092.27 220.106C1092.27 221.821 1093.94 223.212 1096.02 223.212Z" fill="#7233AD"/>
<path d="M1128.16 220.106C1128.16 221.805 1126.49 223.212 1124.41 223.212C1122.33 223.212 1120.66 221.829 1120.66 220.106C1120.66 218.383 1122.33 217 1124.41 217C1126.49 217 1128.16 218.383 1128.16 220.106Z" fill="#7233AD"/>
<path d="M1014.5 242.139C1014.5 243.838 1012.83 245.245 1010.75 245.245C1008.67 245.245 1007 243.862 1007 242.139C1007 240.416 1008.67 239.033 1010.75 239.033C1012.83 239.033 1014.5 240.416 1014.5 242.139Z" fill="#7233AD"/>
<path d="M1039.17 245.245C1041.24 245.245 1042.92 243.855 1042.92 242.139C1042.92 240.424 1041.24 239.033 1039.17 239.033C1037.1 239.033 1035.42 240.424 1035.42 242.139C1035.42 243.855 1037.1 245.245 1039.17 245.245Z" fill="#7233AD"/>
<path d="M1067.59 245.245C1069.67 245.245 1071.34 243.855 1071.34 242.139C1071.34 240.424 1069.67 239.033 1067.59 239.033C1065.52 239.033 1063.84 240.424 1063.84 242.139C1063.84 243.855 1065.52 245.245 1067.59 245.245Z" fill="#7233AD"/>
<path d="M1096.02 245.245C1098.09 245.245 1099.77 243.855 1099.77 242.139C1099.77 240.424 1098.09 239.033 1096.02 239.033C1093.94 239.033 1092.27 240.424 1092.27 242.139C1092.27 243.855 1093.94 245.245 1096.02 245.245Z" fill="#7233AD"/>
<path d="M1128.16 242.139C1128.16 243.838 1126.49 245.245 1124.41 245.245C1122.33 245.245 1120.66 243.862 1120.66 242.139C1120.66 240.416 1122.33 239.033 1124.41 239.033C1126.49 239.033 1128.16 240.416 1128.16 242.139Z" fill="#7233AD"/>
<path d="M1014.5 264.172C1014.5 265.871 1012.83 267.278 1010.75 267.278C1008.67 267.278 1007 265.895 1007 264.172C1007 262.45 1008.67 261.066 1010.75 261.066C1012.83 261.066 1014.5 262.45 1014.5 264.172Z" fill="#7233AD"/>
<path d="M1042.92 264.172C1042.92 265.871 1041.25 267.278 1039.17 267.278C1037.09 267.278 1035.42 265.895 1035.42 264.172C1035.42 262.45 1037.09 261.066 1039.17 261.066C1041.25 261.066 1042.92 262.45 1042.92 264.172Z" fill="#7233AD"/>
<path d="M1071.34 264.172C1071.34 265.871 1069.67 267.278 1067.59 267.278C1065.51 267.278 1063.84 265.895 1063.84 264.172C1063.84 262.45 1065.51 261.066 1067.59 261.066C1069.67 261.066 1071.34 262.45 1071.34 264.172Z" fill="#7233AD"/>
<path d="M1099.74 264.172C1099.74 265.871 1098.07 267.278 1095.98 267.278C1093.9 267.278 1092.23 265.895 1092.23 264.172C1092.23 262.45 1093.9 261.066 1095.98 261.066C1098.07 261.066 1099.74 262.45 1099.74 264.172Z" fill="#7233AD"/>
<path d="M1128.16 264.172C1128.16 265.871 1126.49 267.278 1124.41 267.278C1122.33 267.278 1120.66 265.895 1120.66 264.172C1120.66 262.45 1122.33 261.066 1124.41 261.066C1126.49 261.066 1128.16 262.45 1128.16 264.172Z" fill="#7233AD"/>
<path d="M1014.5 286.206C1014.5 287.904 1012.83 289.312 1010.75 289.312C1008.67 289.312 1007 287.928 1007 286.206C1007 284.483 1008.67 283.1 1010.75 283.1C1012.83 283.1 1014.5 284.483 1014.5 286.206Z" fill="#7233AD"/>
<path d="M1042.92 286.206C1042.92 287.904 1041.25 289.312 1039.17 289.312C1037.09 289.312 1035.42 287.928 1035.42 286.206C1035.42 284.483 1037.09 283.1 1039.17 283.1C1041.25 283.1 1042.92 284.483 1042.92 286.206Z" fill="#7233AD"/>
<path d="M1071.34 286.206C1071.34 287.904 1069.67 289.312 1067.59 289.312C1065.51 289.312 1063.84 287.928 1063.84 286.206C1063.84 284.483 1065.51 283.1 1067.59 283.1C1069.67 283.1 1071.34 284.483 1071.34 286.206Z" fill="#7233AD"/>
<path d="M1099.74 286.206C1099.74 287.904 1098.07 289.312 1095.98 289.312C1093.9 289.312 1092.23 287.928 1092.23 286.206C1092.23 284.483 1093.9 283.1 1095.98 283.1C1098.07 283.1 1099.74 284.483 1099.74 286.206Z" fill="#7233AD"/>
<path d="M1128.16 286.206C1128.16 287.904 1126.49 289.312 1124.41 289.312C1122.33 289.312 1120.66 287.928 1120.66 286.206C1120.66 284.483 1122.33 283.1 1124.41 283.1C1126.49 283.1 1128.16 284.483 1128.16 286.206Z" fill="#7233AD"/>
<path d="M1014.5 308.238C1014.5 309.937 1012.83 311.344 1010.75 311.344C1008.67 311.344 1007 309.961 1007 308.238C1007 306.515 1008.67 305.132 1010.75 305.132C1012.83 305.132 1014.5 306.515 1014.5 308.238Z" fill="#7233AD"/>
<path d="M1042.92 308.238C1042.92 309.937 1041.25 311.344 1039.17 311.344C1037.09 311.344 1035.42 309.961 1035.42 308.238C1035.42 306.515 1037.09 305.132 1039.17 305.132C1041.25 305.132 1042.92 306.515 1042.92 308.238Z" fill="#7233AD"/>
<path d="M1071.34 308.238C1071.34 309.937 1069.67 311.344 1067.59 311.344C1065.51 311.344 1063.84 309.961 1063.84 308.238C1063.84 306.515 1065.51 305.132 1067.59 305.132C1069.67 305.132 1071.34 306.515 1071.34 308.238Z" fill="#7233AD"/>
<path d="M1099.74 308.238C1099.74 309.937 1098.07 311.344 1095.98 311.344C1093.9 311.344 1092.23 309.961 1092.23 308.238C1092.23 306.515 1093.9 305.132 1095.98 305.132C1098.07 305.132 1099.74 306.515 1099.74 308.238Z" fill="#7233AD"/>
<path d="M1128.16 308.238C1128.16 309.937 1126.49 311.344 1124.41 311.344C1122.33 311.344 1120.66 309.961 1120.66 308.238C1120.66 306.515 1122.33 305.132 1124.41 305.132C1126.49 305.132 1128.16 306.515 1128.16 308.238Z" fill="#7233AD"/>
<path d="M61.1862 672.526C64.0505 672.526 66.3724 670.603 66.3724 668.231C66.3724 665.858 64.0505 663.936 61.1862 663.936C58.322 663.936 56 665.858 56 668.231C56 670.603 58.322 672.526 61.1862 672.526Z" fill="url(#paint4_radial_649_7135)"/>
<path d="M100.655 672.526C103.519 672.526 105.841 670.603 105.841 668.231C105.841 665.858 103.519 663.936 100.655 663.936C97.7907 663.936 95.4688 665.858 95.4688 668.231C95.4688 670.603 97.7907 672.526 100.655 672.526Z" fill="url(#paint5_radial_649_7135)"/>
<path d="M145.279 668.231C145.279 670.609 142.964 672.526 140.092 672.526C137.221 672.526 134.906 670.609 134.906 668.231C134.906 665.852 137.221 663.936 140.092 663.936C142.964 663.936 145.279 665.852 145.279 668.231Z" fill="url(#paint6_radial_649_7135)"/>
<path d="M184.72 668.231C184.72 670.609 182.405 672.526 179.534 672.526C176.662 672.526 174.348 670.609 174.348 668.231C174.348 665.852 176.662 663.936 179.534 663.936C182.405 663.936 184.72 665.852 184.72 668.231Z" fill="url(#paint7_radial_649_7135)"/>
<path d="M224.158 668.231C224.158 670.609 221.843 672.526 218.971 672.526C216.1 672.526 213.785 670.609 213.785 668.231C213.785 665.852 216.1 663.936 218.971 663.936C221.843 663.936 224.158 665.852 224.158 668.231Z" fill="url(#paint8_radial_649_7135)"/>
<path d="M61.1862 703.124C64.0505 703.124 66.3724 701.201 66.3724 698.829C66.3724 696.457 64.0505 694.534 61.1862 694.534C58.322 694.534 56 696.457 56 698.829C56 701.201 58.322 703.124 61.1862 703.124Z" fill="url(#paint9_radial_649_7135)"/>
<path d="M100.655 703.124C103.519 703.124 105.841 701.201 105.841 698.829C105.841 696.457 103.519 694.534 100.655 694.534C97.7907 694.534 95.4688 696.457 95.4688 698.829C95.4688 701.201 97.7907 703.124 100.655 703.124Z" fill="url(#paint10_radial_649_7135)"/>
<path d="M145.279 698.829C145.279 701.207 142.964 703.124 140.092 703.124C137.221 703.124 134.906 701.207 134.906 698.829C134.906 696.451 137.221 694.534 140.092 694.534C142.964 694.534 145.279 696.451 145.279 698.829Z" fill="url(#paint11_radial_649_7135)"/>
<path d="M184.72 698.829C184.72 701.207 182.405 703.124 179.534 703.124C176.662 703.124 174.348 701.207 174.348 698.829C174.348 696.451 176.662 694.534 179.534 694.534C182.405 694.534 184.72 696.451 184.72 698.829Z" fill="url(#paint12_radial_649_7135)"/>
<path d="M224.158 698.829C224.158 701.207 221.843 703.124 218.971 703.124C216.1 703.124 213.785 701.207 213.785 698.829C213.785 696.451 216.1 694.534 218.971 694.534C221.843 694.534 224.158 696.451 224.158 698.829Z" fill="url(#paint13_radial_649_7135)"/>
<path d="M66.3998 729.428C66.3998 731.806 64.085 733.723 61.2136 733.723C58.3421 733.723 56.0273 731.806 56.0273 729.428C56.0273 727.05 58.3421 725.133 61.2136 725.133C64.085 725.133 66.3998 727.05 66.3998 729.428Z" fill="url(#paint14_radial_649_7135)"/>
<path d="M105.837 729.428C105.837 731.806 103.523 733.723 100.651 733.723C97.7796 733.723 95.4648 731.806 95.4648 729.428C95.4648 727.05 97.7796 725.133 100.651 725.133C103.523 725.133 105.837 727.05 105.837 729.428Z" fill="url(#paint15_radial_649_7135)"/>
<path d="M145.279 729.428C145.279 731.806 142.964 733.723 140.092 733.723C137.221 733.723 134.906 731.806 134.906 729.428C134.906 727.05 137.221 725.133 140.092 725.133C142.964 725.133 145.279 727.05 145.279 729.428Z" fill="url(#paint16_radial_649_7135)"/>
<path d="M184.716 729.428C184.716 731.806 182.401 733.723 179.53 733.723C176.658 733.723 174.344 731.806 174.344 729.428C174.344 727.05 176.658 725.133 179.53 725.133C182.401 725.133 184.716 727.05 184.716 729.428Z" fill="url(#paint17_radial_649_7135)"/>
<path d="M224.154 729.428C224.154 731.806 221.839 733.723 218.967 733.723C216.096 733.723 213.781 731.806 213.781 729.428C213.781 727.05 216.096 725.133 218.967 725.133C221.839 725.133 224.154 727.05 224.154 729.428Z" fill="url(#paint18_radial_649_7135)"/>
<path d="M61.1862 764.322C64.0505 764.322 66.3724 762.399 66.3724 760.027C66.3724 757.655 64.0505 755.732 61.1862 755.732C58.322 755.732 56 757.655 56 760.027C56 762.399 58.322 764.322 61.1862 764.322Z" fill="url(#paint19_radial_649_7135)"/>
<path d="M100.655 764.322C103.519 764.322 105.841 762.399 105.841 760.027C105.841 757.655 103.519 755.732 100.655 755.732C97.7907 755.732 95.4688 757.655 95.4688 760.027C95.4688 762.399 97.7907 764.322 100.655 764.322Z" fill="url(#paint20_radial_649_7135)"/>
<path d="M145.279 760.027C145.279 762.405 142.964 764.322 140.092 764.322C137.221 764.322 134.906 762.405 134.906 760.027C134.906 757.649 137.221 755.732 140.092 755.732C142.964 755.732 145.279 757.649 145.279 760.027Z" fill="url(#paint21_radial_649_7135)"/>
<path d="M184.72 760.027C184.72 762.405 182.405 764.322 179.534 764.322C176.662 764.322 174.348 762.405 174.348 760.027C174.348 757.649 176.662 755.732 179.534 755.732C182.405 755.732 184.72 757.649 184.72 760.027Z" fill="url(#paint22_radial_649_7135)"/>
<path d="M224.158 760.027C224.158 762.405 221.843 764.322 218.971 764.322C216.1 764.322 213.785 762.405 213.785 760.027C213.785 757.649 216.1 755.732 218.971 755.732C221.843 755.732 224.158 757.649 224.158 760.027Z" fill="url(#paint23_radial_649_7135)"/>
<path d="M66.3998 790.602C66.3998 792.98 64.085 794.897 61.2136 794.897C58.3421 794.897 56.0273 792.98 56.0273 790.602C56.0273 788.224 58.3421 786.307 61.2136 786.307C64.085 786.307 66.3998 788.224 66.3998 790.602Z" fill="url(#paint24_radial_649_7135)"/>
<path d="M105.837 790.602C105.837 792.98 103.523 794.897 100.651 794.897C97.7796 794.897 95.4648 792.98 95.4648 790.602C95.4648 788.224 97.7796 786.307 100.651 786.307C103.523 786.307 105.837 788.224 105.837 790.602Z" fill="url(#paint25_radial_649_7135)"/>
<path d="M145.279 790.602C145.279 792.98 142.964 794.897 140.092 794.897C137.221 794.897 134.906 792.98 134.906 790.602C134.906 788.224 137.221 786.307 140.092 786.307C142.964 786.307 145.279 788.224 145.279 790.602Z" fill="url(#paint26_radial_649_7135)"/>
<path d="M184.716 790.602C184.716 792.98 182.401 794.897 179.53 794.897C176.658 794.897 174.344 792.98 174.344 790.602C174.344 788.224 176.658 786.307 179.53 786.307C182.401 786.307 184.716 788.224 184.716 790.602Z" fill="url(#paint27_radial_649_7135)"/>
<path d="M224.154 790.602C224.154 792.98 221.839 794.897 218.967 794.897C216.096 794.897 213.781 792.98 213.781 790.602C213.781 788.224 216.096 786.307 218.967 786.307C221.839 786.307 224.154 788.224 224.154 790.602Z" fill="url(#paint28_radial_649_7135)"/>
<path d="M1486.63 377.558L1289.88 264.93C1281.54 260.152 1269.94 262.427 1263.93 270.019L1089.71 490.128C1086.69 493.951 1085.55 498.623 1086.58 502.983L1119.03 640.511C1121.16 649.579 1131.1 655.265 1141.78 653.532L1303.81 627.337C1308.95 626.51 1313.61 623.856 1316.64 620.033L1490.85 399.925C1496.86 392.332 1494.97 382.336 1486.63 377.558ZM1170.69 596.119C1154.88 587.068 1151.29 568.055 1162.68 553.672C1174.08 539.261 1196.15 534.935 1211.96 544.007C1227.77 553.058 1231.36 572.071 1219.98 586.476C1208.6 600.859 1186.53 605.186 1170.72 596.135L1170.69 596.119Z" fill="url(#paint29_linear_649_7135)"/>
<path d="M1478.47 372.903L1281.72 260.253C1273.37 255.475 1261.75 257.755 1255.76 265.343L1081.54 485.451C1078.52 489.274 1077.38 493.924 1078.42 498.306L1110.86 635.835C1113.02 644.897 1122.93 650.589 1133.61 648.855L1173.51 642.408L1230.03 633.269L1288.12 623.887L1295.67 622.655C1300.81 621.828 1305.47 619.175 1308.49 615.351L1482.69 395.27C1488.7 387.677 1486.81 377.659 1478.47 372.903ZM1197.13 592.855C1186.12 597.588 1172.96 597.436 1162.53 591.442C1146.72 582.391 1143.12 563.378 1154.51 548.995C1165.91 534.585 1187.95 530.263 1203.79 539.33C1209.67 542.695 1213.84 547.433 1216.19 552.799C1220.21 561.859 1218.96 572.741 1211.78 581.782C1207.92 586.697 1202.8 590.41 1197.13 592.855Z" fill="url(#paint30_linear_649_7135)"/>
<path d="M1455.03 827H1635C1634.33 807.715 1622.16 792.402 1607.25 792.402C1605.14 792.402 1603.12 792.707 1601.13 793.28C1596.48 794.655 1591.69 791.829 1589.35 786.406C1584.58 775.408 1575.55 768 1565.22 768C1556.42 768 1548.58 773.346 1543.49 781.709C1540.19 787.132 1534.63 788.85 1529.81 786.025C1526.33 783.962 1522.5 782.855 1518.43 782.855C1510.27 782.855 1502.93 787.438 1497.84 794.731C1495.33 798.359 1491.47 799.887 1487.78 798.894C1485.97 798.397 1484.13 798.13 1482.2 798.13C1468.8 798.13 1457.63 810.503 1455 827H1455.03Z" fill="#F2F2F7"/>
<path d="M1145 793.9H952C953.796 781.884 963.864 772.017 977.317 768.328C980.732 767.376 983.352 765.202 984.471 762.345C989.358 749.937 1003.37 740.949 1019.97 740.949C1029.95 740.949 1039.02 744.198 1045.73 749.498C1049.18 752.209 1054.09 752.893 1058.45 751.305C1063.01 749.644 1068.02 748.74 1073.29 748.74C1092.1 748.74 1107.61 760.269 1110.26 775.314C1110.41 775.314 1110.53 775.289 1110.7 775.289C1126.07 775.289 1139.26 782.958 1145 793.949V793.9Z" fill="#F2F2F7"/>
<path d="M1142 328.94H911C913.149 314.203 925.2 302.101 941.302 297.578C945.389 296.41 948.525 293.744 949.864 290.24C955.713 275.023 972.485 264 992.357 264C1004.3 264 1015.15 267.984 1023.19 274.484C1027.31 277.809 1033.19 278.647 1038.41 276.7C1043.87 274.664 1049.86 273.555 1056.17 273.555C1078.68 273.555 1097.25 287.694 1100.42 306.145C1100.6 306.145 1100.74 306.115 1100.95 306.115C1119.34 306.115 1135.13 315.521 1142 329V328.94Z" fill="#F2F2F7"/>
<g style="mix-blend-mode:multiply" opacity="0.36">
<path d="M1445.8 462.61L1306.93 620.986C1303.73 624.639 1298.95 627.055 1293.78 627.637L1286.18 628.51L1227.72 635.122L1170.85 641.567L1196.77 593.496C1202.55 591.334 1207.84 587.887 1211.93 583.19C1219.53 574.553 1221.29 563.813 1217.71 554.638L1228.28 535.037C1230.15 531.557 1233.59 528.848 1237.75 527.547L1445.8 462.61Z" fill="#FF9224"/>
</g>
<path d="M1615.73 690.816L1573.15 518.695C1571.36 511.408 1563.02 506.819 1554.53 508.447L1308.44 555.85C1304.16 556.676 1300.45 558.993 1298.21 562.261L1227.72 664.953C1223.06 671.738 1225.21 680.389 1232.64 684.853L1345.21 752.302C1348.78 754.45 1353.26 755.192 1357.53 754.366L1603.62 706.963C1612.09 705.335 1617.51 698.104 1615.71 690.795L1615.73 690.816ZM1287.12 663.961C1283.7 650.114 1293.96 636.401 1310.06 633.284C1326.16 630.188 1341.98 638.884 1345.4 652.731C1348.82 666.577 1338.56 680.29 1322.46 683.408C1306.36 686.503 1290.56 677.806 1287.12 663.961Z" fill="url(#paint31_linear_649_7135)"/>
<path d="M1285.35 656.851C1281.93 643.004 1292.19 629.292 1308.29 626.174C1324.39 623.078 1340.21 631.774 1343.63 645.621C1347.05 659.467 1336.79 673.18 1320.69 676.298C1304.59 679.393 1288.79 670.696 1285.35 656.851ZM1613.96 683.706L1571.38 511.585C1569.59 504.298 1561.25 499.709 1552.76 501.338L1306.67 548.74C1302.4 549.566 1298.68 551.883 1296.44 555.151L1225.95 657.843C1221.29 664.628 1223.44 673.279 1230.87 677.743L1343.44 745.192C1347.01 747.34 1351.49 748.082 1355.76 747.256L1601.85 699.853C1610.32 698.225 1615.74 690.994 1613.94 683.685L1613.96 683.706Z" fill="url(#paint32_linear_649_7135)"/>
<path d="M1160.95 579.534C1161.45 581.781 1161.93 583.94 1162.36 586.056" stroke="white" stroke-width="2" stroke-linecap="round" stroke-linejoin="round"/>
<path d="M1164.44 599.658C1173.33 684.232 1072.19 647.761 959.747 688.999C867.086 722.996 839.663 784.623 831.997 811" stroke="white" stroke-width="2" stroke-linecap="round" stroke-linejoin="round"/>
<path d="M834.997 796.349C851.06 767.283 901.542 716.594 1004.47 695.532C1135.57 668.705 1234.49 729.099 1290.1 671.137" stroke="white" stroke-width="2" stroke-linecap="round" stroke-linejoin="round"/>
<path d="M1295.08 665.488C1296.57 663.642 1298.04 661.679 1299.48 659.621" stroke="white" stroke-width="2" stroke-linecap="round" stroke-linejoin="round"/>
<path d="M1168.89 473.613C1156.95 453.497 1165.17 432.694 1185.13 420.398C1205.08 408.101 1227 410.324 1238.94 430.44C1250.88 450.556 1242.66 471.378 1222.69 483.688C1202.72 495.998 1180.94 493.919 1168.89 473.613ZM1270.42 370.061C1280.99 363.547 1293.27 369.897 1291.79 381.076L1273.69 516.407C1273.08 521.006 1270.1 525.358 1265.76 528.032C1255.19 534.547 1242.91 528.197 1244.4 517.017L1262.49 381.687C1263.1 377.087 1266.08 372.735 1270.42 370.061ZM1212.18 446.93C1205.74 436.075 1199.66 435.362 1195.5 437.928C1191.34 440.493 1189.16 446.295 1195.6 457.15C1202.04 468.005 1208.12 468.718 1212.26 466.166C1216.4 463.615 1218.64 457.804 1212.18 446.93ZM1297.24 467.654C1285.29 447.518 1293.52 426.716 1313.49 414.405C1333.47 402.095 1355.35 404.345 1367.3 424.48C1379.25 444.615 1371.01 465.399 1351.06 477.696C1331.1 489.992 1309.28 487.941 1297.24 467.654ZM1340.56 440.957C1334.11 430.083 1328.03 429.37 1323.89 431.922C1319.75 434.473 1317.55 440.289 1324 451.163C1330.45 462.037 1336.52 462.731 1340.66 460.179C1344.8 457.628 1347 451.812 1340.56 440.957Z" fill="white"/>
<path d="M1398.9 571.515C1409.95 554.248 1429.11 550.41 1446.13 558.402C1463.14 566.394 1469.66 582.292 1458.61 599.559C1447.46 616.962 1428.37 620.687 1411.36 612.695C1394.35 604.703 1387.73 588.941 1398.87 571.538L1398.9 571.515ZM1517.16 593.535C1526.18 597.77 1525.88 609.007 1516.69 613.077L1405.28 662.263C1401.5 663.939 1397.02 663.885 1393.31 662.163C1384.29 657.929 1384.58 646.691 1393.78 642.621L1505.18 593.435C1508.97 591.759 1513.45 591.813 1517.16 593.535ZM1435.85 588.846C1441.82 579.533 1440.08 575.085 1436.53 573.425C1433 571.764 1427.68 572.913 1421.71 582.226C1415.75 591.561 1417.48 595.987 1421.01 597.648C1424.54 599.309 1429.86 598.183 1435.82 588.847L1435.85 588.846ZM1451.85 656.117C1462.9 638.851 1482.1 634.989 1499.11 642.981C1516.12 650.973 1522.64 666.872 1511.59 684.138C1500.45 701.541 1481.38 705.243 1464.36 697.251C1447.35 689.259 1440.73 673.497 1451.88 656.094L1451.85 656.117ZM1488.78 673.449C1494.75 664.114 1493.01 659.666 1489.48 658.005C1485.95 656.344 1480.63 657.493 1474.67 666.806C1468.7 676.119 1470.44 680.567 1473.96 682.228C1477.49 683.889 1482.81 682.74 1488.78 673.427L1488.78 673.449Z" fill="white"/>
<g style="mix-blend-mode:soft-light">
<path d="M1225 903.949C1225 906.721 1222.07 908.949 1218.5 908.949C1214.93 908.949 1212 906.697 1212 903.949C1212 901.202 1214.93 898.949 1218.5 898.949C1222.07 898.949 1225 901.202 1225 903.949Z" stroke="white" stroke-width="2" stroke-miterlimit="10"/>
</g>
<path d="M1636 272L1637 274.571C1637.84 276.685 1639.7 278.366 1642.11 279.111L1645 280L1642.11 280.889C1639.73 281.634 1637.84 283.291 1637 285.429L1636 288L1635 285.429C1634.16 283.315 1632.3 281.634 1629.89 280.889L1627 280L1629.89 279.111C1632.27 278.366 1634.16 276.709 1635 274.571L1636 272Z" fill="white"/>
<path d="M959.5 490.949L961.683 495.946C963.487 500.064 967.562 503.28 972.713 504.714L979 506.449L972.713 508.184C967.533 509.619 963.487 512.857 961.683 516.952L959.5 521.949L957.317 516.952C955.513 512.834 951.438 509.619 946.287 508.184L940 506.449L946.287 504.714C951.467 503.28 955.513 500.041 957.317 495.946L959.5 490.949Z" fill="white"/>
<path d="M1542 407.949L1543.01 410.531C1543.84 412.652 1545.71 414.313 1548.1 415.055L1551 415.949L1548.1 416.844C1545.71 417.585 1543.84 419.246 1543.01 421.368L1542 423.949L1540.99 421.368C1540.16 419.246 1538.29 417.585 1535.9 416.844L1533 415.949L1535.9 415.055C1538.29 414.313 1540.16 412.652 1540.99 410.531L1542 407.949Z" fill="white"/>
<path d="M1564.5 896.949L1566.03 900.488C1567.26 903.406 1570.08 905.677 1573.66 906.706L1578 907.949L1573.66 909.193C1570.08 910.221 1567.29 912.493 1566.03 915.41L1564.5 918.949L1562.97 915.41C1561.74 912.493 1558.92 910.221 1555.34 909.193L1551 907.949L1555.34 906.706C1558.92 905.677 1561.71 903.406 1562.97 900.488L1564.5 896.949Z" fill="white"/>
<path d="M1686.5 834L1687.56 836.259C1688.44 838.115 1690.42 839.569 1692.93 840.217L1696 841L1692.93 841.783C1690.42 842.431 1688.44 843.885 1687.56 845.741L1686.5 848L1685.44 845.741C1684.56 843.885 1682.58 842.431 1680.07 841.783L1677 841L1680.07 840.217C1682.58 839.569 1684.56 838.115 1685.44 836.259L1686.5 834Z" fill="white"/>
<path d="M1218.5 752.949L1219.56 755.369C1220.44 757.358 1222.42 758.916 1224.93 759.611L1228 760.449L1224.93 761.288C1222.42 761.983 1220.44 763.54 1219.56 765.529L1218.5 767.949L1217.44 765.529C1216.56 763.54 1214.58 761.983 1212.07 761.288L1209 760.449L1212.07 759.611C1214.58 758.916 1216.56 757.358 1217.44 755.369L1218.5 752.949Z" fill="white"/>
<path d="M1588 313L1589.12 315.581C1590.04 317.703 1592.12 319.364 1594.77 320.105L1598 321L1594.77 321.895C1592.12 322.636 1590.04 324.297 1589.12 326.419L1588 329L1586.88 326.419C1585.96 324.297 1583.88 322.636 1581.23 321.895L1578 321L1581.23 320.105C1583.88 319.364 1585.96 317.703 1586.88 315.581L1588 313Z" fill="white"/>
<path d="M1160.5 267L1162.46 271.019C1164.07 274.327 1167.74 276.947 1172.37 278.101L1178 279.5L1172.37 280.899C1167.74 282.053 1164.07 284.673 1162.46 287.981L1160.5 292L1158.54 287.981C1156.93 284.673 1153.26 282.053 1148.63 280.899L1143 279.5L1148.63 278.101C1153.26 276.947 1156.93 274.327 1158.54 271.019L1160.5 267Z" fill="white"/>
<path d="M847.501 804.271L835.283 815.22C833.437 816.859 830.243 816.859 828.426 815.22L816.208 804.271C813.512 801.848 815.622 798 819.636 798C820.955 798 822.185 798.451 823.064 799.235L829.423 804.912C830.741 806.076 832.997 806.076 834.316 804.912L840.674 799.235C841.553 798.451 842.784 798 844.102 798C848.117 798 850.226 801.872 847.53 804.271H847.501Z" fill="#5D52EB"/>
<defs>
<filter id="filter0_d_649_7135" x="105.449" y="418.216" width="703.359" height="147.008" filterUnits="userSpaceOnUse" color-interpolation-filters="sRGB">
<feFlood flood-opacity="0" result="BackgroundImageFix"/>
<feColorMatrix in="SourceAlpha" type="matrix" values="0 0 0 0 0 0 0 0 0 0 0 0 0 0 0 0 0 0 127 0" result="hardAlpha"/>
<feOffset dy="4"/>
<feGaussianBlur stdDeviation="2"/>
<feComposite in2="hardAlpha" operator="out"/>
<feColorMatrix type="matrix" values="0 0 0 0 0 0 0 0 0 0 0 0 0 0 0 0 0 0 0.25 0"/>
<feBlend mode="normal" in2="BackgroundImageFix" result="effect1_dropShadow_649_7135"/>
<feBlend mode="normal" in="SourceGraphic" in2="effect1_dropShadow_649_7135" result="shape"/>
</filter>
<filter id="filter1_d_649_7135" x="312.273" y="492.5" width="188.707" height="73.7002" filterUnits="userSpaceOnUse" color-interpolation-filters="sRGB">
<feFlood flood-opacity="0" result="BackgroundImageFix"/>
<feColorMatrix in="SourceAlpha" type="matrix" values="0 0 0 0 0 0 0 0 0 0 0 0 0 0 0 0 0 0 127 0" result="hardAlpha"/>
<feOffset dy="2"/>
<feGaussianBlur stdDeviation="2"/>
<feComposite in2="hardAlpha" operator="out"/>
<feColorMatrix type="matrix" values="0 0 0 0 0 0 0 0 0 0 0 0 0 0 0 0 0 0 0.25 0"/>
<feBlend mode="normal" in2="BackgroundImageFix" result="effect1_dropShadow_649_7135"/>
<feBlend mode="normal" in="SourceGraphic" in2="effect1_dropShadow_649_7135" result="shape"/>
</filter>
<linearGradient id="paint0_linear_649_7135" x1="324.5" y1="496" x2="605" y2="853.5" gradientUnits="userSpaceOnUse">
<stop stop-color="#9B51E0"/>
<stop offset="1" stop-color="#1AE3D9"/>
</linearGradient>
<linearGradient id="paint1_linear_649_7135" x1="397.371" y1="485.667" x2="397.825" y2="735.333" gradientUnits="userSpaceOnUse">
<stop stop-color="#FFA522"/>
<stop offset="1" stop-color="#B26A00"/>
</linearGradient>
<linearGradient id="paint2_linear_649_7135" x1="1171.89" y1="150.894" x2="1839" y2="1017" gradientUnits="userSpaceOnUse">
<stop stop-color="#9B51E0"/>
<stop offset="0.99" stop-color="#4524CB"/>
</linearGradient>
<linearGradient id="paint3_linear_649_7135" x1="884" y1="489.5" x2="1931.5" y2="1013" gradientUnits="userSpaceOnUse">
<stop stop-color="#9B51E0"/>
<stop offset="0.99" stop-color="#1AE3D9"/>
</linearGradient>
<radialGradient id="paint4_radial_649_7135" cx="0" cy="0" r="1" gradientUnits="userSpaceOnUse" gradientTransform="translate(85.7988 637.049) scale(410.268 339.767)">
<stop stop-color="#6868FA"/>
<stop offset="0.99" stop-color="#4524CB"/>
</radialGradient>
<radialGradient id="paint5_radial_649_7135" cx="0" cy="0" r="1" gradientUnits="userSpaceOnUse" gradientTransform="translate(85.7995 637.049) scale(410.297 339.792)">
<stop stop-color="#6868FA"/>
<stop offset="0.99" stop-color="#4524CB"/>
</radialGradient>
<radialGradient id="paint6_radial_649_7135" cx="0" cy="0" r="1" gradientUnits="userSpaceOnUse" gradientTransform="translate(85.7984 637.049) scale(410.297 339.792)">
<stop stop-color="#6868FA"/>
<stop offset="0.99" stop-color="#4524CB"/>
</radialGradient>
<radialGradient id="paint7_radial_649_7135" cx="0" cy="0" r="1" gradientUnits="userSpaceOnUse" gradientTransform="translate(85.801 637.049) scale(410.297 339.792)">
<stop stop-color="#6868FA"/>
<stop offset="0.99" stop-color="#4524CB"/>
</radialGradient>
<radialGradient id="paint8_radial_649_7135" cx="0" cy="0" r="1" gradientUnits="userSpaceOnUse" gradientTransform="translate(85.7998 637.049) scale(410.297 339.792)">
<stop stop-color="#6868FA"/>
<stop offset="0.99" stop-color="#4524CB"/>
</radialGradient>
<radialGradient id="paint9_radial_649_7135" cx="0" cy="0" r="1" gradientUnits="userSpaceOnUse" gradientTransform="translate(85.7988 637.049) scale(410.268 339.767)">
<stop stop-color="#6868FA"/>
<stop offset="0.99" stop-color="#4524CB"/>
</radialGradient>
<radialGradient id="paint10_radial_649_7135" cx="0" cy="0" r="1" gradientUnits="userSpaceOnUse" gradientTransform="translate(85.7995 637.049) scale(410.268 339.767)">
<stop stop-color="#6868FA"/>
<stop offset="0.99" stop-color="#4524CB"/>
</radialGradient>
<radialGradient id="paint11_radial_649_7135" cx="0" cy="0" r="1" gradientUnits="userSpaceOnUse" gradientTransform="translate(85.7984 637.049) scale(410.297 339.792)">
<stop stop-color="#6868FA"/>
<stop offset="0.99" stop-color="#4524CB"/>
</radialGradient>
<radialGradient id="paint12_radial_649_7135" cx="0" cy="0" r="1" gradientUnits="userSpaceOnUse" gradientTransform="translate(85.801 637.049) scale(410.297 339.792)">
<stop stop-color="#6868FA"/>
<stop offset="0.99" stop-color="#4524CB"/>
</radialGradient>
<radialGradient id="paint13_radial_649_7135" cx="0" cy="0" r="1" gradientUnits="userSpaceOnUse" gradientTransform="translate(85.7998 637.049) scale(410.297 339.792)">
<stop stop-color="#6868FA"/>
<stop offset="0.99" stop-color="#4524CB"/>
</radialGradient>
<radialGradient id="paint14_radial_649_7135" cx="0" cy="0" r="1" gradientUnits="userSpaceOnUse" gradientTransform="translate(85.7968 637.049) scale(410.297 339.792)">
<stop stop-color="#6868FA"/>
<stop offset="0.99" stop-color="#4524CB"/>
</radialGradient>
<radialGradient id="paint15_radial_649_7135" cx="0" cy="0" r="1" gradientUnits="userSpaceOnUse" gradientTransform="translate(85.7956 637.049) scale(410.297 339.792)">
<stop stop-color="#6868FA"/>
<stop offset="0.99" stop-color="#4524CB"/>
</radialGradient>
<radialGradient id="paint16_radial_649_7135" cx="0" cy="0" r="1" gradientUnits="userSpaceOnUse" gradientTransform="translate(85.7984 637.049) scale(410.297 339.792)">
<stop stop-color="#6868FA"/>
<stop offset="0.99" stop-color="#4524CB"/>
</radialGradient>
<radialGradient id="paint17_radial_649_7135" cx="0" cy="0" r="1" gradientUnits="userSpaceOnUse" gradientTransform="translate(85.7971 637.049) scale(410.297 339.792)">
<stop stop-color="#6868FA"/>
<stop offset="0.99" stop-color="#4524CB"/>
</radialGradient>
<radialGradient id="paint18_radial_649_7135" cx="0" cy="0" r="1" gradientUnits="userSpaceOnUse" gradientTransform="translate(85.7959 637.049) scale(410.297 339.792)">
<stop stop-color="#6868FA"/>
<stop offset="0.99" stop-color="#4524CB"/>
</radialGradient>
<radialGradient id="paint19_radial_649_7135" cx="0" cy="0" r="1" gradientUnits="userSpaceOnUse" gradientTransform="translate(85.7988 637.05) scale(410.268 339.764)">
<stop stop-color="#6868FA"/>
<stop offset="0.99" stop-color="#4524CB"/>
</radialGradient>
<radialGradient id="paint20_radial_649_7135" cx="0" cy="0" r="1" gradientUnits="userSpaceOnUse" gradientTransform="translate(85.7995 637.05) scale(410.268 339.764)">
<stop stop-color="#6868FA"/>
<stop offset="0.99" stop-color="#4524CB"/>
</radialGradient>
<radialGradient id="paint21_radial_649_7135" cx="0" cy="0" r="1" gradientUnits="userSpaceOnUse" gradientTransform="translate(85.7984 637.05) scale(410.297 339.789)">
<stop stop-color="#6868FA"/>
<stop offset="0.99" stop-color="#4524CB"/>
</radialGradient>
<radialGradient id="paint22_radial_649_7135" cx="0" cy="0" r="1" gradientUnits="userSpaceOnUse" gradientTransform="translate(85.801 637.05) scale(410.297 339.789)">
<stop stop-color="#6868FA"/>
<stop offset="0.99" stop-color="#4524CB"/>
</radialGradient>
<radialGradient id="paint23_radial_649_7135" cx="0" cy="0" r="1" gradientUnits="userSpaceOnUse" gradientTransform="translate(85.7998 637.05) scale(410.297 339.789)">
<stop stop-color="#6868FA"/>
<stop offset="0.99" stop-color="#4524CB"/>
</radialGradient>
<radialGradient id="paint24_radial_649_7135" cx="0" cy="0" r="1" gradientUnits="userSpaceOnUse" gradientTransform="translate(85.7968 637.05) scale(410.297 339.789)">
<stop stop-color="#6868FA"/>
<stop offset="0.99" stop-color="#4524CB"/>
</radialGradient>
<radialGradient id="paint25_radial_649_7135" cx="0" cy="0" r="1" gradientUnits="userSpaceOnUse" gradientTransform="translate(85.7956 637.05) scale(410.297 339.789)">
<stop stop-color="#6868FA"/>
<stop offset="0.99" stop-color="#4524CB"/>
</radialGradient>
<radialGradient id="paint26_radial_649_7135" cx="0" cy="0" r="1" gradientUnits="userSpaceOnUse" gradientTransform="translate(85.7984 637.05) scale(410.297 339.789)">
<stop stop-color="#6868FA"/>
<stop offset="0.99" stop-color="#4524CB"/>
</radialGradient>
<radialGradient id="paint27_radial_649_7135" cx="0" cy="0" r="1" gradientUnits="userSpaceOnUse" gradientTransform="translate(85.7971 637.05) scale(410.297 339.789)">
<stop stop-color="#6868FA"/>
<stop offset="0.99" stop-color="#4524CB"/>
</radialGradient>
<radialGradient id="paint28_radial_649_7135" cx="0" cy="0" r="1" gradientUnits="userSpaceOnUse" gradientTransform="translate(85.7959 637.05) scale(410.297 339.789)">
<stop stop-color="#6868FA"/>
<stop offset="0.99" stop-color="#4524CB"/>
</radialGradient>
<linearGradient id="paint29_linear_649_7135" x1="1503.65" y1="710.426" x2="1294.02" y2="440.11" gradientUnits="userSpaceOnUse">
<stop stop-color="#E38700"/>
<stop offset="1" stop-color="#E35B00"/>
</linearGradient>
<linearGradient id="paint30_linear_649_7135" x1="1075.14" y1="480.948" x2="1489.67" y2="402.662" gradientUnits="userSpaceOnUse">
<stop stop-color="#FFA522"/>
<stop offset="1" stop-color="#FF7E27"/>
</linearGradient>
<linearGradient id="paint31_linear_649_7135" x1="1452.59" y1="525.973" x2="1412.46" y2="808.681" gradientUnits="userSpaceOnUse">
<stop stop-color="#E38700"/>
<stop offset="1" stop-color="#E35B00"/>
</linearGradient>
<linearGradient id="paint32_linear_649_7135" x1="1305.88" y1="542.641" x2="1574.66" y2="743.667" gradientUnits="userSpaceOnUse">
<stop stop-color="#FFA522"/>
<stop offset="1" stop-color="#FF7E27"/>
</linearGradient>
</defs>
</svg>
