<svg width="58" height="55" viewBox="0 0 58 55" fill="none" xmlns="http://www.w3.org/2000/svg">
<g filter="url(#filter0_d_621_10442)">
<path d="M4.35914 20.7877L13.0936 28.7626L15.7931 31.2274C15.9155 31.3358 16.0117 31.4714 16.0744 31.6236C16.1371 31.7758 16.1645 31.9406 16.1545 32.1054L15.9575 36.3169L15.4154 47.8384C15.3486 48.6484 16.2394 49.2674 16.9224 48.8835L20.0447 47.1203L24.6106 44.5489L27.9732 42.6443L24.6161 44.5342L20.0429 47.0946L19.387 47.4619C18.704 47.8458 17.8132 47.2268 17.88 46.4187L18.2215 42.2898L19.0979 31.6792C19.1086 31.5142 19.0815 31.3489 19.0188 31.1962C18.9561 31.0436 18.8595 30.9078 18.7365 30.7995L11.2849 24.0037L7.30977 20.3689C6.68278 19.7959 6.91406 18.7949 7.70548 18.6773L9.19073 18.4551L13.6176 17.792L22.0792 16.5266C22.2318 16.5053 22.3761 16.443 22.4971 16.3462C22.6181 16.2493 22.7115 16.1214 22.7676 15.9756L24.5077 11.6042L25.2991 9.62429L26.3832 6.90599L26.8132 5.82785L27.5215 4.05177L28.1142 2.56773C28.1611 2.44674 28.2342 2.33803 28.328 2.24965C28.4218 2.16126 28.534 2.09546 28.6562 2.05713L26.0616 2.44467L25.6803 2.50161L25.5954 2.58426L25.1798 2.99384L23.8933 6.20437L23.6512 6.81048L23.1597 8.04106L19.817 16.4053C19.7604 16.5508 19.6668 16.6785 19.5459 16.7753C19.425 16.872 19.281 16.9345 19.1286 16.9563L13.6067 17.7829L9.17989 18.4441L4.75304 19.1071C3.96343 19.2173 3.73034 20.2183 4.35914 20.7877Z" fill="url(#paint0_linear_621_10442)"/>
<path opacity="0.5" d="M4.35914 20.7877L13.0936 28.7626L15.7931 31.2274C15.9155 31.3358 16.0117 31.4714 16.0744 31.6236C16.1371 31.7758 16.1645 31.9406 16.1545 32.1054L15.9575 36.3169L15.4154 47.8384C15.3486 48.6484 16.2394 49.2674 16.9224 48.8835L20.0447 47.1203L24.6106 44.5489L27.9732 42.6443L24.6161 44.5342L20.0429 47.0946L19.387 47.4619C18.704 47.8458 17.8132 47.2268 17.88 46.4187L18.2215 42.2898L19.0979 31.6792C19.1086 31.5142 19.0815 31.3489 19.0188 31.1962C18.9561 31.0436 18.8595 30.9078 18.7365 30.7995L11.2849 24.0037L7.30977 20.3689C6.68278 19.7959 6.91406 18.7949 7.70548 18.6773L9.19073 18.4551L13.6176 17.792L22.0792 16.5266C22.2318 16.5053 22.3761 16.443 22.4971 16.3462C22.6181 16.2493 22.7115 16.1214 22.7676 15.9756L24.5077 11.6042L25.2991 9.62429L26.3832 6.90599L26.8132 5.82785L27.5215 4.05177L28.1142 2.56773C28.1611 2.44674 28.2342 2.33803 28.328 2.24965C28.4218 2.16126 28.534 2.09546 28.6562 2.05713L26.0616 2.44467L25.6803 2.50161L25.5954 2.58426L25.1798 2.99384L23.8933 6.20437L23.6512 6.81048L23.1597 8.04106L19.817 16.4053C19.7604 16.5508 19.6668 16.6785 19.5459 16.7753C19.425 16.872 19.281 16.9345 19.1286 16.9563L13.6067 17.7829L9.17989 18.4441L4.75304 19.1071C3.96343 19.2173 3.73034 20.2183 4.35914 20.7877Z" fill="black"/>
<path d="M30.0378 41.496L37.231 45.1694L40.637 46.9087L42.7619 47.9942L42.8052 48.0144C43.1183 48.1319 43.4624 48.1319 43.7755 48.0144L43.8315 48.0438L46.7695 47.5828C46.6196 47.5769 46.4727 47.5374 46.3395 47.4671L44.6591 46.6093L41.6976 45.0977L40.1563 44.2969L39.4101 43.9167L36.1234 42.2362L32.7192 40.4987C32.5798 40.4245 32.4248 40.3857 32.2675 40.3857C32.1102 40.3857 31.9552 40.4245 31.8158 40.4987L30.0378 41.496Z" fill="url(#paint1_linear_621_10442)"/>
<path opacity="0.5" d="M30.0378 41.496L37.231 45.1694L40.637 46.9087L42.7619 47.9942L42.8052 48.0144C43.1183 48.1319 43.4624 48.1319 43.7755 48.0144L43.8315 48.0438L46.7695 47.5828C46.6196 47.5769 46.4727 47.5374 46.3395 47.4671L44.6591 46.6093L41.6976 45.0977L40.1563 44.2969L39.4101 43.9167L36.1234 42.2362L32.7192 40.4987C32.5798 40.4245 32.4248 40.3857 32.2675 40.3857C32.1102 40.3857 31.9552 40.4245 31.8158 40.4987L30.0378 41.496Z" fill="black"/>
<path d="M26.3874 6.90221L27.7118 4.37126L28.9531 2.00928L28.6749 2.05152C28.5526 2.08985 28.4404 2.15565 28.3466 2.24404C28.2528 2.33242 28.1797 2.44113 28.1328 2.56212L27.5401 4.04616L26.3874 6.90221Z" fill="#263238"/>
<path d="M40.1561 44.2974L44.6552 46.6043L46.3356 47.462C46.4688 47.5323 46.6156 47.5718 46.7656 47.5777L43.7698 41.9336L43.5114 42.1026L40.1561 44.2974Z" fill="#263238"/>
<path d="M7.3039 20.3595L11.279 23.9944L18.7306 30.7901C18.8536 30.8984 18.9502 31.0342 19.0129 31.1869C19.0756 31.3395 19.1027 31.5048 19.092 31.6699L18.2157 42.2804L17.8741 46.4093C17.8073 47.2174 18.6981 47.8364 19.3811 47.4525L20.037 47.0852L24.6174 44.534L27.9746 42.6441L28.0415 42.6055L30.029 41.4906L31.7998 40.4988C31.9392 40.4247 32.0942 40.3859 32.2515 40.3859C32.4088 40.3859 32.5638 40.4247 32.7032 40.4988L36.1074 42.2363L39.4049 43.9298L40.1566 44.2971L41.6997 45.0869L44.6611 46.5985L46.3415 47.4562C46.4748 47.5265 46.6216 47.566 46.7716 47.5719C46.9141 47.5807 47.0566 47.5543 47.187 47.4951C47.3174 47.4359 47.4318 47.3456 47.5205 47.2318C47.6092 47.1181 47.6695 46.9842 47.6965 46.8416C47.7234 46.6991 47.716 46.552 47.675 46.413L47.4492 45.5259L43.9203 31.6717C43.8779 31.5195 43.8744 31.3588 43.9101 31.2049C43.9458 31.0509 44.0196 30.9088 44.1245 30.7919L53.7624 20.354C54.29 19.781 53.8853 18.78 53.0758 18.6624L38.3298 16.5117C38.167 16.4856 38.0121 16.4225 37.8767 16.3271C37.7412 16.2317 37.6287 16.1064 37.5475 15.9607L29.8827 2.55285C29.8261 2.45408 29.7548 2.36485 29.6713 2.28837C29.5337 2.15742 29.3639 2.06667 29.1798 2.02572C29.1081 2.00902 29.0347 2.0004 28.9612 2.00001C28.9004 1.99978 28.8398 2.00655 28.7805 2.02021C28.7493 2.0256 28.7186 2.03297 28.6883 2.04225C28.5661 2.08058 28.4539 2.14638 28.3601 2.23477C28.2662 2.32315 28.1932 2.43186 28.1463 2.55285L27.5536 4.03689L26.8453 5.81481L26.4153 6.89295L25.3311 9.61124L24.509 11.604L22.7618 15.9754C22.7056 16.1212 22.6122 16.2491 22.4912 16.346C22.3702 16.4428 22.2259 16.5051 22.0733 16.5264L13.6117 17.7919L9.18486 18.4549L7.69961 18.6771C6.91 18.7855 6.67691 19.7865 7.3039 20.3595Z" fill="url(#paint2_linear_621_10442)"/>
<path opacity="0.4" d="M26.818 5.82424L26.874 5.97302L41.1484 43.649L41.6905 45.0926L44.6519 46.6042L46.3323 47.462C46.4655 47.5323 46.6124 47.5718 46.7624 47.5777C46.9049 47.5864 47.0474 47.5601 47.1778 47.5009C47.3082 47.4417 47.4226 47.3514 47.5113 47.2376C47.6 47.1238 47.6603 46.99 47.6872 46.8474C47.7141 46.7048 47.7068 46.5578 47.6658 46.4187L47.44 45.5316L29.6584 2.2978C29.5209 2.16685 29.3511 2.07611 29.167 2.03516H28.9357H28.755C28.7239 2.04055 28.6931 2.04791 28.6629 2.0572C28.5406 2.09553 28.4284 2.16133 28.3346 2.24971C28.2408 2.3381 28.1677 2.44681 28.1208 2.5678L27.5281 4.05184L26.818 5.82424Z" fill="white"/>
<path opacity="0.2" d="M24.5103 11.6001V11.6019L36.1195 42.2415L39.4062 43.9221L25.3017 9.62012L24.5103 11.6001Z" fill="white"/>
<path opacity="0.3" d="M9.18101 18.436V18.4452L11.2824 23.9938L18.734 30.7895C18.857 30.8978 18.9536 31.0336 19.0163 31.1863C19.079 31.3389 19.1061 31.5043 19.0954 31.6693L18.219 42.2799L20.0404 47.0846L20.0512 47.114L24.6172 44.5427V44.5316L13.6169 17.7803L9.18101 18.436Z" fill="white"/>
</g>
<defs>
<filter id="filter0_d_621_10442" x="0" y="0" width="58" height="55" filterUnits="userSpaceOnUse" color-interpolation-filters="sRGB">
<feFlood flood-opacity="0" result="BackgroundImageFix"/>
<feColorMatrix in="SourceAlpha" type="matrix" values="0 0 0 0 0 0 0 0 0 0 0 0 0 0 0 0 0 0 127 0" result="hardAlpha"/>
<feOffset dy="2"/>
<feGaussianBlur stdDeviation="2"/>
<feComposite in2="hardAlpha" operator="out"/>
<feColorMatrix type="matrix" values="0 0 0 0 0 0 0 0 0 0 0 0 0 0 0 0 0 0 0.25 0"/>
<feBlend mode="normal" in2="BackgroundImageFix" result="effect1_dropShadow_621_10442"/>
<feBlend mode="normal" in="SourceGraphic" in2="effect1_dropShadow_621_10442" result="shape"/>
</filter>
<linearGradient id="paint0_linear_621_10442" x1="16.3274" y1="2.05713" x2="16.3274" y2="49.0002" gradientUnits="userSpaceOnUse">
<stop stop-color="#FFD027"/>
<stop offset="1" stop-color="#FFA033"/>
</linearGradient>
<linearGradient id="paint1_linear_621_10442" x1="38.4037" y1="40.3857" x2="38.4037" y2="48.1026" gradientUnits="userSpaceOnUse">
<stop stop-color="#FFD027"/>
<stop offset="1" stop-color="#FFA033"/>
</linearGradient>
<linearGradient id="paint2_linear_621_10442" x1="30.4724" y1="2" x2="30.4724" y2="47.5736" gradientUnits="userSpaceOnUse">
<stop stop-color="#FFD027"/>
<stop offset="1" stop-color="#FFA033"/>
</linearGradient>
</defs>
</svg>
