<svg width="500" height="500" viewBox="0 0 500 500" fill="none" xmlns="http://www.w3.org/2000/svg">
<path d="M122 152.56C137.56 144.04 153.77 140.62 171.46 142.81C193.25 145.5 210.46 148.67 231.31 140.55C248.84 133.73 264.85 123.55 281.57 115.11C315.77 97.76 349.72 92.39 375.36 126.61C389 144.82 399.36 165.73 406.51 187.79C418.07 223.38 427.57 262.79 422.36 299.96C415.77 347.08 375.36 369.2 327.02 352.13C307.47 345.23 288.6 335.13 267.75 332.24C224.12 326.18 188.16 366.24 135.84 356.5C45.6605 339.74 52.3205 190.71 122 152.56Z" fill="url(#paint0_linear_621_12315)"/>
<path opacity="0.7" d="M122 152.56C137.56 144.04 153.77 140.62 171.46 142.81C193.25 145.5 210.46 148.67 231.31 140.55C248.84 133.73 264.85 123.55 281.57 115.11C315.77 97.76 349.72 92.39 375.36 126.61C389 144.82 399.36 165.73 406.51 187.79C418.07 223.38 427.57 262.79 422.36 299.96C415.77 347.08 375.36 369.2 327.02 352.13C307.47 345.23 288.6 335.13 267.75 332.24C224.12 326.18 188.16 366.24 135.84 356.5C45.6605 339.74 52.3205 190.71 122 152.56Z" fill="white"/>
<path d="M108.35 114.17C114.7 110.7 117.58 113.59 119.89 110.7C122.2 107.81 113.54 100.31 130.89 92.81C130.89 92.81 132.04 76.65 155.71 76.07C179.38 75.49 173 92.23 179.35 96.27C185.7 100.31 187.43 94 193.78 98C200.13 102 197.24 110.12 202.43 111.27C207.62 112.42 214.56 106.08 220.91 110.12C227.26 114.16 227.26 117.62 230.14 117.62C233.02 117.62 238.8 115.31 242.26 117.62C245.72 119.93 249.77 122.82 249.77 122.82H103.77C103.77 122.82 102 117.63 108.35 114.17Z" fill="url(#paint1_linear_621_12315)"/>
<path opacity="0.5" d="M108.35 114.17C114.7 110.7 117.58 113.59 119.89 110.7C122.2 107.81 113.54 100.31 130.89 92.81C130.89 92.81 132.04 76.65 155.71 76.07C179.38 75.49 173 92.23 179.35 96.27C185.7 100.31 187.43 94 193.78 98C200.13 102 197.24 110.12 202.43 111.27C207.62 112.42 214.56 106.08 220.91 110.12C227.26 114.16 227.26 117.62 230.14 117.62C233.02 117.62 238.8 115.31 242.26 117.62C245.72 119.93 249.77 122.82 249.77 122.82H103.77C103.77 122.82 102 117.63 108.35 114.17Z" fill="white"/>
<path d="M273.92 243.9C278.38 241.47 280.41 243.49 282.03 241.47C283.65 239.45 277.57 234.17 289.73 228.9C289.73 228.9 290.54 217.55 307.17 217.14C323.8 216.73 319.33 228.49 323.79 231.33C328.25 234.17 329.46 229.71 333.92 232.55C338.38 235.39 336.36 241.06 340 241.87C343.64 242.68 348.52 238.22 353 241.06C357.48 243.9 357.46 246.33 359.48 246.33C361.5 246.33 365.57 244.71 368 246.33C370.43 247.95 373.27 249.98 373.27 249.98H270.68C270.68 249.98 269.46 246.33 273.92 243.9Z" fill="white"/>
<path opacity="0.5" d="M273.92 243.9C278.38 241.47 280.41 243.49 282.03 241.47C283.65 239.45 277.57 234.17 289.73 228.9C289.73 228.9 290.54 217.55 307.17 217.14C323.8 216.73 319.33 228.49 323.79 231.33C328.25 234.17 329.46 229.71 333.92 232.55C338.38 235.39 336.36 241.06 340 241.87C343.64 242.68 348.52 238.22 353 241.06C357.48 243.9 357.46 246.33 359.48 246.33C361.5 246.33 365.57 244.71 368 246.33C370.43 247.95 373.27 249.98 373.27 249.98H270.68C270.68 249.98 269.46 246.33 273.92 243.9Z" fill="white"/>
<path d="M147.132 412.87H83.9317C85.1417 405.14 90.1117 406.5 90.7717 394.52C91.1017 388.52 85.5117 381.02 86.0017 373.1C86.4017 366.57 92.8317 359.88 93.3317 352.41C93.7817 345.67 88.3317 338.19 88.8217 330.93C89.3317 324.07 95.8217 317.48 96.4317 310.34C96.9917 303.34 91.6117 295.83 92.2517 288.79C92.8917 281.75 99.5217 275.28 100.252 268.34C100.982 261.21 95.7717 253.53 96.5717 246.71C97.4117 239.46 104.252 233.2 105.182 226.52C106.182 219.09 101.372 211.15 102.502 204.73C103.892 196.87 111.212 191.18 112.752 185.38C115.622 174.57 115.262 164.16 118.652 163.48C122.262 162.76 123.092 172.97 125.832 184.38C127.212 190.11 134.362 195.92 135.542 203.79C136.492 210.16 131.432 217.91 132.262 225.31C133.002 231.94 139.672 238.31 140.322 245.52C140.932 252.3 135.522 259.77 136.052 266.86C136.572 273.75 143.052 280.32 143.482 287.32C143.912 294.32 138.352 301.64 138.732 308.55C139.122 315.63 145.472 322.32 145.802 329.13C146.142 336.34 140.452 343.61 140.732 350.29C141.042 357.7 147.302 364.48 147.532 370.96C147.812 378.82 142.042 386.07 142.222 392.06C142.602 405.06 148.552 402.35 148.762 412.81L147.132 412.87Z" fill="url(#paint2_linear_621_12315)"/>
<path d="M120 184.25V409.95" stroke="black" stroke-miterlimit="10"/>
<path d="M110.13 207.91L120.42 216.8L128.84 205.57" stroke="black" stroke-miterlimit="10"/>
<path d="M110.13 247.2L120.42 256.08L128.84 244.86" stroke="black" stroke-miterlimit="10"/>
<path d="M110.13 284.14L120.42 293.03L128.84 281.8" stroke="black" stroke-miterlimit="10"/>
<path d="M110.13 328.11L120.42 336.99L128.84 325.77" stroke="black" stroke-miterlimit="10"/>
<path d="M110.13 372.54L120.42 381.42L128.84 370.2" stroke="black" stroke-miterlimit="10"/>
<path d="M190.18 412.87H141.39C142.33 406.87 146.16 407.95 146.67 398.71C146.93 394.05 142.62 388.29 142.99 382.17C143.3 377.17 148.26 371.96 148.65 366.17C149 360.97 144.76 355.17 145.17 349.59C145.56 344.29 150.59 339.21 151.04 333.7C151.49 328.19 147.32 322.49 147.81 317.06C148.3 311.63 153.43 306.63 153.97 301.28C154.53 295.77 150.51 289.85 151.13 284.57C151.78 278.98 157.06 274.15 157.77 269C158.57 263.26 154.83 257.13 155.71 252.18C156.78 246.11 162.43 241.71 163.61 237.24C165.83 228.9 165.55 220.85 168.17 220.33C170.96 219.77 171.6 227.65 173.71 236.47C174.77 240.89 180.3 245.38 181.21 251.47C181.94 256.39 178.04 262.37 178.68 268.08C179.25 273.2 184.39 278.08 184.9 283.68C185.37 288.91 181.19 294.68 181.6 300.15C182 305.47 186.99 310.54 187.34 315.94C187.69 321.34 183.34 327 183.67 332.33C184 337.66 188.87 342.96 189.12 348.22C189.39 353.78 185 359.39 185.21 364.55C185.45 370.27 190.28 375.55 190.46 380.55C190.68 386.61 186.22 392.22 186.36 396.83C186.66 406.83 191.25 404.78 191.41 412.83L190.18 412.87Z" fill="url(#paint3_linear_621_12315)"/>
<path d="M169.23 236.4V410.62" stroke="black" stroke-miterlimit="10"/>
<path d="M161.619 254.66L169.559 261.52L176.059 252.85" stroke="black" stroke-miterlimit="10"/>
<path d="M161.619 284.98L169.559 291.84L176.059 283.18" stroke="black" stroke-miterlimit="10"/>
<path d="M161.619 313.5L169.559 320.36L176.059 311.7" stroke="black" stroke-miterlimit="10"/>
<path d="M161.619 347.44L169.559 354.3L176.059 345.63" stroke="black" stroke-miterlimit="10"/>
<path d="M161.619 381.74L169.559 388.59L176.059 379.93" stroke="black" stroke-miterlimit="10"/>
<path d="M233.672 412.4V210.22H223.002V412.4" fill="#2E353A"/>
<path d="M233.672 412.4V210.22H223.002V412.4" stroke="#2E353A" stroke-linecap="round" stroke-linejoin="round"/>
<path d="M239 412.4V210.22H228.33V412.4" fill="url(#paint4_linear_621_12315)"/>
<path d="M239 412.4V210.22H228.33V412.4" stroke="#2E353A" stroke-linecap="round" stroke-linejoin="round"/>
<g style="mix-blend-mode:multiply" opacity="0.3">
<path d="M228.33 210.22H239V234.22H228.33V210.22Z" fill="#2E353A"/>
</g>
<path d="M193.471 131.29H272.531L238.071 215.93H159.001V165.75C159.001 161.224 159.893 156.742 161.625 152.56C163.358 148.379 165.897 144.58 169.098 141.38C172.299 138.18 176.099 135.641 180.281 133.91C184.463 132.179 188.945 131.289 193.471 131.29Z" fill="url(#paint5_linear_621_12315)" stroke="#2E353A" stroke-linecap="round" stroke-linejoin="round"/>
<g style="mix-blend-mode:multiply" opacity="0.3">
<path d="M244.102 201.11L238.102 215.93H159.002V165.75C159.002 164.99 159.002 164.23 159.082 163.48H244.082L244.102 201.11Z" fill="black"/>
</g>
<path d="M194.051 163.48H202.371" stroke="#2E353A" stroke-linecap="round" stroke-linejoin="round"/>
<path d="M159.082 163.48H184.262" stroke="#2E353A" stroke-linecap="round" stroke-linejoin="round"/>
<path d="M272.53 131.29C263.388 131.29 254.62 134.922 248.156 141.386C241.692 147.85 238.06 156.618 238.06 165.76V215.94H307V165.75C306.997 156.61 303.365 147.845 296.9 141.383C290.436 134.92 281.67 131.29 272.53 131.29Z" fill="#2E353A" stroke="#2E353A" stroke-linecap="round" stroke-linejoin="round"/>
<path d="M238.069 210.22H297.469V215.93H238.069V210.22Z" fill="url(#paint6_linear_621_12315)" stroke="#2E353A" stroke-linecap="round" stroke-linejoin="round"/>
<path d="M238.07 210.22H361V215.93H238.07V210.22Z" fill="url(#paint7_linear_621_12315)" stroke="#2E353A" stroke-linecap="round" stroke-linejoin="round"/>
<path opacity="0.3" d="M238.069 210.22H297.469V215.93H238.069V210.22Z" fill="black"/>
<path d="M188.33 110.89H213V128.22H188.33V110.89Z" fill="#2E353A" stroke="#2E353A" stroke-linecap="round" stroke-linejoin="round"/>
<path d="M210.998 110.89H216.328V164.89H210.998V110.89Z" fill="white" stroke="#2E353A" stroke-linecap="round" stroke-linejoin="round"/>
<path d="M213.672 172.22C210.358 172.22 207.672 169.534 207.672 166.22C207.672 162.906 210.358 160.22 213.672 160.22C216.986 160.22 219.672 162.906 219.672 166.22C219.672 169.534 216.986 172.22 213.672 172.22Z" fill="#2E353A" stroke="#2E353A" stroke-linecap="round" stroke-linejoin="round"/>
<path d="M301.66 145.15C287.74 152.22 263.54 163.55 241.22 169.25" stroke="white" stroke-linecap="round" stroke-linejoin="round" stroke-dasharray="2 4"/>
<path d="M313.34 139C313.34 139 308.88 141.52 301.66 145.19" stroke="#2E353A" stroke-linecap="round" stroke-linejoin="round" stroke-dasharray="2 4"/>
<path d="M318.35 138.63L308.34 114.85L380.93 97.14L318.35 138.63Z" fill="white" stroke="#2E353A" stroke-width="1.2629" stroke-linecap="round" stroke-linejoin="round"/>
<path d="M313.47 117.73L318.35 138.63L380.93 97.14L313.47 117.73Z" fill="url(#paint8_linear_621_12315)" stroke="#2E353A" stroke-width="1.2629" stroke-linecap="round" stroke-linejoin="round"/>
<path d="M313.47 117.73L324.86 127.49L380.93 97.14L313.47 117.73Z" fill="white" stroke="#2E353A" stroke-width="1.2629" stroke-linecap="round" stroke-linejoin="round"/>
<path d="M308.34 114.85L298.2 110.73L380.93 97.14L308.34 114.85Z" fill="white" stroke="#2E353A" stroke-width="1.2629" stroke-linecap="round" stroke-linejoin="round"/>
<path d="M332.453 134.93L330.103 136.37" stroke="#2E353A" stroke-linecap="round" stroke-linejoin="round"/>
<path d="M345.27 127.07L337.4 131.89" stroke="#2E353A" stroke-linecap="round" stroke-linejoin="round"/>
<path d="M354.113 184.15V158.36L280.333 170.22L354.113 184.15Z" fill="white" stroke="#2E353A" stroke-width="1.2629" stroke-linecap="round" stroke-linejoin="round"/>
<path d="M350.503 163L354.113 184.15L280.333 170.22L350.503 163Z" fill="url(#paint9_linear_621_12315)" stroke="#2E353A" stroke-width="1.2629" stroke-linecap="round" stroke-linejoin="round"/>
<path d="M350.5 163L343.79 176.41L280.33 170.22L350.5 163Z" fill="white" stroke="#2E353A" stroke-width="1.2629" stroke-linecap="round" stroke-linejoin="round"/>
<path d="M354.112 158.36L361.852 150.62L280.332 170.22L354.112 158.36Z" fill="white" stroke="#2E353A" stroke-width="1.2629" stroke-linecap="round" stroke-linejoin="round"/>
<path d="M327.691 183.67L321.291 182.37" stroke="#2E353A" stroke-linecap="round" stroke-linejoin="round"/>
<path d="M350.172 188.24L334.082 184.97" stroke="#2E353A" stroke-linecap="round" stroke-linejoin="round"/>
<path d="M363.001 182.56C363.001 182.56 421.001 192.56 432.001 244.56C443.001 296.56 385.001 299.56 375.001 274.56C365.001 249.56 409.001 239.56 419.001 263.56C429.001 287.56 399.001 328.56 358.001 330.56C323.931 332.22 228.411 292.45 169.001 282.4C169.001 282.4 125.001 270.22 57.0014 272.89" stroke="#2E353A" stroke-linecap="round" stroke-linejoin="round" stroke-dasharray="2 4"/>
<path d="M76.6719 345.56H60.0019" stroke="#2E353A" stroke-linecap="round" stroke-linejoin="round"/>
<path d="M76.6719 370.22H60.0019" stroke="#2E353A" stroke-linecap="round" stroke-linejoin="round"/>
<path d="M427.672 369.56H78.6719V346.22H427.672" fill="white"/>
<path d="M427.672 369.56H78.6719V346.22H427.672" stroke="#2E353A" stroke-linecap="round" stroke-linejoin="round"/>
<path d="M403.41 412.56V295.14C403.41 294.852 403.351 294.567 403.238 294.302C403.124 294.038 402.959 293.799 402.75 293.6L393.63 285.01C393.219 284.626 392.674 284.42 392.112 284.437C391.55 284.454 391.017 284.692 390.63 285.1L382.63 293.61C382.267 294.006 382.064 294.523 382.06 295.06V412.56" fill="#2E353A"/>
<path d="M403.41 412.56V295.14C403.41 294.852 403.351 294.567 403.238 294.302C403.124 294.038 402.959 293.799 402.75 293.6L393.63 285.01C393.219 284.626 392.674 284.42 392.112 284.437C391.55 284.454 391.017 284.692 390.63 285.1L382.63 293.61C382.267 294.006 382.064 294.523 382.06 295.06V412.56" stroke="#2E353A" stroke-linecap="round" stroke-linejoin="round"/>
<path d="M406 413.56V295.14C406 294.851 405.941 294.565 405.826 294.3C405.71 294.035 405.542 293.797 405.33 293.6L396.21 285.01C396.007 284.819 395.769 284.669 395.508 284.57C395.248 284.471 394.97 284.424 394.691 284.433C394.413 284.441 394.138 284.504 393.884 284.619C393.63 284.733 393.401 284.897 393.21 285.1L385.21 293.61C384.843 294.003 384.639 294.522 384.64 295.06V413.56" fill="white"/>
<path d="M406 413.56V295.14C406 294.851 405.941 294.565 405.826 294.3C405.71 294.035 405.542 293.797 405.33 293.6L396.21 285.01C396.007 284.819 395.769 284.669 395.508 284.57C395.248 284.471 394.97 284.424 394.691 284.433C394.413 284.441 394.138 284.504 393.884 284.619C393.63 284.733 393.401 284.897 393.21 285.1L385.21 293.61C384.843 294.003 384.639 294.522 384.64 295.06V413.56" stroke="#2E353A" stroke-linecap="round" stroke-linejoin="round"/>
<path d="M326.512 412.56V295.14C326.512 294.852 326.453 294.567 326.34 294.302C326.226 294.038 326.06 293.799 325.852 293.6L316.722 285.01C316.519 284.819 316.28 284.669 316.02 284.57C315.759 284.471 315.482 284.424 315.203 284.433C314.924 284.441 314.65 284.504 314.396 284.619C314.142 284.733 313.913 284.897 313.722 285.1L305.722 293.61C305.355 294.003 305.151 294.522 305.152 295.06V412.56" fill="#2E353A"/>
<path d="M326.512 412.56V295.14C326.512 294.852 326.453 294.567 326.34 294.302C326.226 294.038 326.06 293.799 325.852 293.6L316.722 285.01C316.519 284.819 316.28 284.669 316.02 284.57C315.759 284.471 315.482 284.424 315.203 284.433C314.924 284.441 314.65 284.504 314.396 284.619C314.142 284.733 313.913 284.897 313.722 285.1L305.722 293.61C305.355 294.003 305.151 294.522 305.152 295.06V412.56" stroke="#2E353A" stroke-linecap="round" stroke-linejoin="round"/>
<path d="M328.672 413.56V295.14C328.672 294.851 328.613 294.565 328.498 294.3C328.382 294.035 328.214 293.797 328.002 293.6L318.882 285.01C318.471 284.626 317.925 284.42 317.363 284.437C316.801 284.454 316.269 284.692 315.882 285.1L307.882 293.61C307.512 294.002 307.305 294.521 307.302 295.06V413.56" fill="white"/>
<path d="M328.672 413.56V295.14C328.672 294.851 328.613 294.565 328.498 294.3C328.382 294.035 328.214 293.797 328.002 293.6L318.882 285.01C318.471 284.626 317.925 284.42 317.363 284.437C316.801 284.454 316.269 284.692 315.882 285.1L307.882 293.61C307.512 294.002 307.305 294.521 307.302 295.06V413.56" stroke="#2E353A" stroke-linecap="round" stroke-linejoin="round"/>
<path d="M249.184 412.56V295.14C249.184 294.851 249.125 294.565 249.009 294.3C248.894 294.035 248.725 293.797 248.514 293.6L239.394 285.01C238.983 284.626 238.437 284.42 237.875 284.437C237.313 284.454 236.781 284.692 236.394 285.1L228.394 293.61C228.024 294.002 227.816 294.521 227.814 295.06V413.56" fill="#2E353A"/>
<path d="M249.184 412.56V295.14C249.184 294.851 249.125 294.565 249.009 294.3C248.894 294.035 248.725 293.797 248.514 293.6L239.394 285.01C238.983 284.626 238.437 284.42 237.875 284.437C237.313 284.454 236.781 284.692 236.394 285.1L228.394 293.61C228.024 294.002 227.816 294.521 227.814 295.06V413.56" stroke="#2E353A" stroke-linecap="round" stroke-linejoin="round"/>
<path d="M251.332 413.56V295.14C251.332 294.852 251.273 294.567 251.16 294.302C251.046 294.038 250.88 293.799 250.672 293.6L241.542 285.01C241.339 284.819 241.101 284.669 240.84 284.57C240.58 284.471 240.302 284.424 240.023 284.433C239.745 284.441 239.47 284.504 239.216 284.619C238.962 284.733 238.733 284.897 238.542 285.1L230.542 293.61C230.175 294.003 229.971 294.522 229.972 295.06V413.56" fill="white"/>
<path d="M251.332 413.56V295.14C251.332 294.852 251.273 294.567 251.16 294.302C251.046 294.038 250.88 293.799 250.672 293.6L241.542 285.01C241.339 284.819 241.101 284.669 240.84 284.57C240.58 284.471 240.302 284.424 240.023 284.433C239.745 284.441 239.47 284.504 239.216 284.619C238.962 284.733 238.733 284.897 238.542 285.1L230.542 293.61C230.175 294.003 229.971 294.522 229.972 295.06V413.56" stroke="#2E353A" stroke-linecap="round" stroke-linejoin="round"/>
<path d="M171.844 412.56V295.14C171.844 294.852 171.785 294.567 171.672 294.302C171.558 294.038 171.392 293.799 171.184 293.6L162.064 285.01C161.653 284.626 161.107 284.42 160.545 284.437C159.983 284.454 159.451 284.692 159.064 285.1L151.064 293.61C150.701 294.006 150.498 294.523 150.494 295.06V412.56" fill="#2E353A"/>
<path d="M171.844 412.56V295.14C171.844 294.852 171.785 294.567 171.672 294.302C171.558 294.038 171.392 293.799 171.184 293.6L162.064 285.01C161.653 284.626 161.107 284.42 160.545 284.437C159.983 284.454 159.451 284.692 159.064 285.1L151.064 293.61C150.701 294.006 150.498 294.523 150.494 295.06V412.56" stroke="#2E353A" stroke-linecap="round" stroke-linejoin="round"/>
<path d="M174 413.56V295.14C174 294.851 173.941 294.565 173.826 294.3C173.71 294.035 173.542 293.797 173.33 293.6L164.21 285.01C164.007 284.819 163.769 284.669 163.508 284.57C163.248 284.471 162.97 284.424 162.691 284.433C162.413 284.441 162.138 284.504 161.884 284.619C161.63 284.733 161.401 284.897 161.21 285.1L153.21 293.61C152.843 294.003 152.639 294.522 152.64 295.06V413.56" fill="white"/>
<path d="M174 413.56V295.14C174 294.851 173.941 294.565 173.826 294.3C173.71 294.035 173.542 293.797 173.33 293.6L164.21 285.01C164.007 284.819 163.769 284.669 163.508 284.57C163.248 284.471 162.97 284.424 162.691 284.433C162.413 284.441 162.138 284.504 161.884 284.619C161.63 284.733 161.401 284.897 161.21 285.1L153.21 293.61C152.843 294.003 152.639 294.522 152.64 295.06V413.56" stroke="#2E353A" stroke-linecap="round" stroke-linejoin="round"/>
<path d="M94.5117 412.56V295.14C94.5115 294.852 94.4529 294.567 94.3395 294.302C94.226 294.038 94.0601 293.799 93.8517 293.6L84.7217 285.01C84.519 284.819 84.2805 284.669 84.0199 284.57C83.7593 284.471 83.4817 284.424 83.203 284.433C82.9244 284.441 82.6501 284.504 82.3959 284.619C82.1417 284.733 81.9126 284.897 81.7217 285.1L73.7217 293.61C73.3546 294.003 73.1508 294.522 73.1517 295.06V412.56" fill="#2E353A"/>
<path d="M94.5117 412.56V295.14C94.5115 294.852 94.4529 294.567 94.3395 294.302C94.226 294.038 94.0601 293.799 93.8517 293.6L84.7217 285.01C84.519 284.819 84.2805 284.669 84.0199 284.57C83.7593 284.471 83.4817 284.424 83.203 284.433C82.9244 284.441 82.6501 284.504 82.3959 284.619C82.1417 284.733 81.9126 284.897 81.7217 285.1L73.7217 293.61C73.3546 294.003 73.1508 294.522 73.1517 295.06V412.56" stroke="#2E353A" stroke-linecap="round" stroke-linejoin="round"/>
<path d="M96.6719 413.56V295.14C96.6722 294.851 96.6128 294.565 96.4975 294.3C96.3822 294.035 96.2135 293.797 96.0019 293.6L86.8819 285.01C86.4712 284.626 85.9253 284.42 85.3633 284.437C84.8013 284.454 84.2688 284.692 83.8819 285.1L75.8819 293.61C75.5119 294.002 75.3046 294.521 75.3018 295.06V413.56" fill="white"/>
<path d="M96.6719 413.56V295.14C96.6722 294.851 96.6128 294.565 96.4975 294.3C96.3822 294.035 96.2135 293.797 96.0019 293.6L86.8819 285.01C86.4712 284.626 85.9253 284.42 85.3633 284.437C84.8013 284.454 84.2688 284.692 83.8819 285.1L75.8819 293.61C75.5119 294.002 75.3046 294.521 75.3018 295.06V413.56" stroke="#2E353A" stroke-linecap="round" stroke-linejoin="round"/>
<path d="M393.223 285.1V293.66" stroke="#2E353A" stroke-linecap="round" stroke-linejoin="round"/>
<path d="M389.793 289.52V309.78" stroke="#2E353A" stroke-linecap="round" stroke-linejoin="round"/>
<path d="M324.461 291.18V316.81" stroke="#2E353A" stroke-linecap="round" stroke-linejoin="round"/>
<path d="M321.152 287.87V299.03" stroke="#2E353A" stroke-linecap="round" stroke-linejoin="round"/>
<path d="M241.543 285.01V310.2" stroke="#2E353A" stroke-linecap="round" stroke-linejoin="round"/>
<path d="M236.793 287.04V324.26" stroke="#2E353A" stroke-linecap="round" stroke-linejoin="round"/>
<path d="M170.223 291.18V319.29" stroke="#2E353A" stroke-linecap="round" stroke-linejoin="round"/>
<path d="M159.473 287.87V294.9" stroke="#2E353A" stroke-linecap="round" stroke-linejoin="round"/>
<path d="M89.5938 287.45V302.34" stroke="#2E353A" stroke-linecap="round" stroke-linejoin="round"/>
<path d="M80.4922 289.11V332.11" stroke="#2E353A" stroke-linecap="round" stroke-linejoin="round"/>
<path d="M97.0328 351.96H106.133" stroke="#2E353A" stroke-linecap="round" stroke-linejoin="round"/>
<path d="M97.0311 358.99H128.871" stroke="#2E353A" stroke-linecap="round" stroke-linejoin="round"/>
<path d="M215.714 358.99H230.184" stroke="#2E353A" stroke-linecap="round" stroke-linejoin="round"/>
<path d="M291.792 358.99H306.262" stroke="#2E353A" stroke-linecap="round" stroke-linejoin="round"/>
<path d="M406.331 355.27H420.801" stroke="#2E353A" stroke-linecap="round" stroke-linejoin="round"/>
<path d="M406.331 361.88H412.121" stroke="#2E353A" stroke-linecap="round" stroke-linejoin="round"/>
<path d="M223.154 355.27H230.184" stroke="#2E353A" stroke-linecap="round" stroke-linejoin="round"/>
<path d="M300.064 363.12H307.094" stroke="#2E353A" stroke-linecap="round" stroke-linejoin="round"/>
<path d="M329.423 363.12H336.453" stroke="#2E353A" stroke-linecap="round" stroke-linejoin="round"/>
<path d="M68.9211 358.99H75.1211" stroke="#2E353A" stroke-linecap="round" stroke-linejoin="round"/>
<path d="M60.6511 358.99H64.3711" stroke="#2E353A" stroke-linecap="round" stroke-linejoin="round"/>
<path d="M385.002 316C385.002 316 387.502 337.49 390.502 359.48C393.502 381.47 388.002 403.97 386.502 405.97" stroke="#2E353A" stroke-linecap="round" stroke-linejoin="round"/>
<path d="M394.891 359.5C394.411 355.21 394.011 352.5 394.011 352.5" stroke="#2E353A" stroke-linecap="round" stroke-linejoin="round"/>
<path d="M387.512 403.47C387.512 403.47 396.512 401.47 396.512 385.47C396.512 378.9 396.092 372.17 395.592 366.47" stroke="#2E353A" stroke-linecap="round" stroke-linejoin="round"/>
<path d="M312 290.5C312 290.5 310 292 313.5 309C317 326 316.5 351 312 365" stroke="#2E353A" stroke-linecap="round" stroke-linejoin="round"/>
<path d="M307.003 322C307.003 322 312.003 337 308.503 358" stroke="#2E353A" stroke-linecap="round" stroke-linejoin="round"/>
<path d="M250 331.49C250 331.49 247.5 345.99 245 360.98C242.5 375.97 244.5 396.98 246.5 402.47C248.5 407.96 250.5 412.47 250.5 412.47" stroke="#2E353A" stroke-linecap="round" stroke-linejoin="round"/>
<path d="M240.582 405.12C242.812 411.96 245.582 403.97 245.582 403.97" stroke="#2E353A" stroke-linecap="round" stroke-linejoin="round"/>
<path d="M240.672 354C240.672 354 235.962 378.31 238.622 396.61" stroke="#2E353A" stroke-linecap="round" stroke-linejoin="round"/>
<path d="M251 362C251 362 246 372.5 250.5 382.5" stroke="#2E353A" stroke-linecap="round" stroke-linejoin="round"/>
<path d="M157.703 363.48C157.034 366.537 156.155 369.544 155.073 372.48" stroke="#2E353A" stroke-linecap="round" stroke-linejoin="round"/>
<path d="M153.571 311.5C156.744 321.571 158.757 331.972 159.571 342.5C159.87 347.827 159.572 353.17 158.681 358.43" stroke="#2E353A" stroke-linecap="round" stroke-linejoin="round"/>
<path d="M163.07 357.48C163.07 357.48 158.57 374.48 156.07 380.48C153.57 386.48 154.57 400.97 157.57 407.97" stroke="#2E353A" stroke-linecap="round" stroke-linejoin="round"/>
<path d="M95.5938 319C95.5938 319 85.5938 337 95.0938 366.49" stroke="#2E353A" stroke-linecap="round" stroke-linejoin="round"/>
<path d="M86.4037 349.74C86.3437 355.36 86.8438 362.48 89.0938 368.48C93.5938 380.48 95.5938 384.48 95.5938 384.48" stroke="#2E353A" stroke-linecap="round" stroke-linejoin="round"/>
<path d="M87.0938 340C87.0938 340 86.7638 342.15 86.5638 345.46" stroke="#2E353A" stroke-linecap="round" stroke-linejoin="round"/>
<defs>
<linearGradient id="paint0_linear_621_12315" x1="246.383" y1="101.452" x2="246.383" y2="358.034" gradientUnits="userSpaceOnUse">
<stop stop-color="#A76EDB"/>
<stop offset="1" stop-color="#1AE3D9"/>
</linearGradient>
<linearGradient id="paint1_linear_621_12315" x1="176.656" y1="76.0553" x2="176.656" y2="122.82" gradientUnits="userSpaceOnUse">
<stop stop-color="#A76EDB"/>
<stop offset="1" stop-color="#1AE3D9"/>
</linearGradient>
<linearGradient id="paint2_linear_621_12315" x1="116.347" y1="163.444" x2="116.347" y2="412.87" gradientUnits="userSpaceOnUse">
<stop stop-color="#A76EDB"/>
<stop offset="1" stop-color="#1AE3D9"/>
</linearGradient>
<linearGradient id="paint3_linear_621_12315" x1="166.4" y1="220.302" x2="166.4" y2="412.87" gradientUnits="userSpaceOnUse">
<stop stop-color="#A76EDB"/>
<stop offset="1" stop-color="#1AE3D9"/>
</linearGradient>
<linearGradient id="paint4_linear_621_12315" x1="233.665" y1="210.22" x2="233.665" y2="412.4" gradientUnits="userSpaceOnUse">
<stop stop-color="#A76EDB"/>
<stop offset="1" stop-color="#1AE3D9"/>
</linearGradient>
<linearGradient id="paint5_linear_621_12315" x1="215.766" y1="131.29" x2="215.766" y2="215.93" gradientUnits="userSpaceOnUse">
<stop stop-color="#A76EDB"/>
<stop offset="1" stop-color="#1AE3D9"/>
</linearGradient>
<linearGradient id="paint6_linear_621_12315" x1="267.769" y1="210.22" x2="267.769" y2="215.93" gradientUnits="userSpaceOnUse">
<stop stop-color="#A76EDB"/>
<stop offset="1" stop-color="#1AE3D9"/>
</linearGradient>
<linearGradient id="paint7_linear_621_12315" x1="299.535" y1="210.22" x2="299.535" y2="215.93" gradientUnits="userSpaceOnUse">
<stop stop-color="#A76EDB"/>
<stop offset="1" stop-color="#1AE3D9"/>
</linearGradient>
<linearGradient id="paint8_linear_621_12315" x1="347.2" y1="97.14" x2="347.2" y2="138.63" gradientUnits="userSpaceOnUse">
<stop stop-color="#A76EDB"/>
<stop offset="1" stop-color="#1AE3D9"/>
</linearGradient>
<linearGradient id="paint9_linear_621_12315" x1="317.223" y1="163" x2="317.223" y2="184.15" gradientUnits="userSpaceOnUse">
<stop stop-color="#A76EDB"/>
<stop offset="1" stop-color="#1AE3D9"/>
</linearGradient>
</defs>
</svg>
