<svg width="64" height="64" viewBox="0 0 64 64" fill="none" xmlns="http://www.w3.org/2000/svg">
<g clip-path="url(#clip0_621_11166)">
<g filter="url(#filter0_d_621_11166)">
<path d="M58.666 40.0001H53.3327V32.0001C53.3327 31.2928 53.0517 30.6146 52.5516 30.1145C52.0515 29.6144 51.3733 29.3334 50.666 29.3334H34.666V24.0001H39.9994C40.7066 24.0001 41.3849 23.7191 41.885 23.219C42.3851 22.7189 42.666 22.0407 42.666 21.3334V5.33341C42.666 4.62617 42.3851 3.94789 41.885 3.4478C41.3849 2.9477 40.7066 2.66675 39.9994 2.66675H23.9993C23.2921 2.66675 22.6138 2.9477 22.1137 3.4478C21.6136 3.94789 21.3327 4.62617 21.3327 5.33341V21.3334C21.3327 22.0407 21.6136 22.7189 22.1137 23.219C22.6138 23.7191 23.2921 24.0001 23.9993 24.0001H29.3327V29.3334H13.3327C12.6254 29.3334 11.9472 29.6144 11.4471 30.1145C10.947 30.6146 10.666 31.2928 10.666 32.0001V40.0001H5.33268C4.62544 40.0001 3.94716 40.281 3.44706 40.7811C2.94697 41.2812 2.66602 41.9595 2.66602 42.6667V58.6667C2.66602 59.374 2.94697 60.0523 3.44706 60.5524C3.94716 61.0525 4.62544 61.3334 5.33268 61.3334H21.3327C22.0399 61.3334 22.7182 61.0525 23.2183 60.5524C23.7184 60.0523 23.9993 59.374 23.9993 58.6667V42.6667C23.9993 41.9595 23.7184 41.2812 23.2183 40.7811C22.7182 40.281 22.0399 40.0001 21.3327 40.0001H15.9993V34.6667H47.9994V40.0001H42.666C41.9588 40.0001 41.2805 40.281 40.7804 40.7811C40.2803 41.2812 39.9994 41.9595 39.9994 42.6667V58.6667C39.9994 59.374 40.2803 60.0523 40.7804 60.5524C41.2805 61.0525 41.9588 61.3334 42.666 61.3334H58.666C59.3733 61.3334 60.0515 61.0525 60.5516 60.5524C61.0517 60.0523 61.3327 59.374 61.3327 58.6667V42.6667C61.3327 41.9595 61.0517 41.2812 60.5516 40.7811C60.0515 40.281 59.3733 40.0001 58.666 40.0001ZM18.666 45.3334V56.0001H7.99935V45.3334H18.666ZM26.666 18.6667V8.00008H37.3327V18.6667H26.666ZM55.9994 56.0001H45.3327V45.3334H55.9994V56.0001Z" fill="white"/>
</g>
</g>
<defs>
<filter id="filter0_d_621_11166" x="-1.33398" y="0.666748" width="66.666" height="66.6667" filterUnits="userSpaceOnUse" color-interpolation-filters="sRGB">
<feFlood flood-opacity="0" result="BackgroundImageFix"/>
<feColorMatrix in="SourceAlpha" type="matrix" values="0 0 0 0 0 0 0 0 0 0 0 0 0 0 0 0 0 0 127 0" result="hardAlpha"/>
<feOffset dy="2"/>
<feGaussianBlur stdDeviation="2"/>
<feComposite in2="hardAlpha" operator="out"/>
<feColorMatrix type="matrix" values="0 0 0 0 0 0 0 0 0 0 0 0 0 0 0 0 0 0 0.25 0"/>
<feBlend mode="normal" in2="BackgroundImageFix" result="effect1_dropShadow_621_11166"/>
<feBlend mode="normal" in="SourceGraphic" in2="effect1_dropShadow_621_11166" result="shape"/>
</filter>
<clipPath id="clip0_621_11166">
<rect width="64" height="64" fill="white"/>
</clipPath>
</defs>
</svg>
