<svg width="128" height="83" viewBox="0 0 128 83" fill="none" xmlns="http://www.w3.org/2000/svg">
<g filter="url(#filter0_d_1882_129)">
<path d="M101.474 38.325C114.931 38.325 124 45.7705 124 56.8023C124 66.7295 113.577 75 99.46 75C83.9971 75 72.5714 65.0727 72.5714 49.9091C72.5714 15.4432 104.166 1.65682 124 0V15.1636C110.551 17.0932 95.4314 27.8455 94.7543 39.7091C95.4314 39.4364 98.1143 38.325 101.474 38.325ZM32.9114 38.325C46.3514 38.325 55.4286 45.7705 55.4286 56.8023C55.4286 66.7295 45.0057 75 30.8886 75C15.4257 75 4 65.0727 4 49.9091C4 15.4432 35.5943 1.65682 55.4286 0V15.1636C41.98 17.0932 26.86 27.8455 26.1829 39.7091C26.86 39.4364 29.5429 38.325 32.9114 38.325Z" fill="url(#paint0_linear_1882_129)"/>
</g>
<defs>
<filter id="filter0_d_1882_129" x="0" y="0" width="128" height="83" filterUnits="userSpaceOnUse" color-interpolation-filters="sRGB">
<feFlood flood-opacity="0" result="BackgroundImageFix"/>
<feColorMatrix in="SourceAlpha" type="matrix" values="0 0 0 0 0 0 0 0 0 0 0 0 0 0 0 0 0 0 127 0" result="hardAlpha"/>
<feOffset dy="4"/>
<feGaussianBlur stdDeviation="2"/>
<feComposite in2="hardAlpha" operator="out"/>
<feColorMatrix type="matrix" values="0 0 0 0 0 0 0 0 0 0 0 0 0 0 0 0 0 0 0.25 0"/>
<feBlend mode="normal" in2="BackgroundImageFix" result="effect1_dropShadow_1882_129"/>
<feBlend mode="normal" in="SourceGraphic" in2="effect1_dropShadow_1882_129" result="shape"/>
</filter>
<linearGradient id="paint0_linear_1882_129" x1="64" y1="1.59962e-08" x2="64.3355" y2="95.6036" gradientUnits="userSpaceOnUse">
<stop stop-color="#9B51E0"/>
<stop offset="1" stop-color="#1AE3D9"/>
</linearGradient>
</defs>
</svg>
