<svg width="550" height="557" viewBox="0 0 550 557" fill="none" xmlns="http://www.w3.org/2000/svg">
<path d="M185.9 38.7003C187.499 37.73 189.219 36.9807 191.015 36.4723L192.06 31.3591L200.596 31.2031L201.828 36.283C203.637 36.7348 205.379 37.4278 207.009 38.3439L211.321 35.4809L217.47 41.4965L214.797 45.9525C215.755 47.5679 216.495 49.3064 216.997 51.1214L222.046 52.1797L222.2 60.8244L217.184 62.0609C216.739 63.894 216.055 65.6586 215.149 67.3079L217.976 71.6859L212.036 77.902L207.636 75.195C206.04 76.1659 204.324 76.9153 202.532 77.423L201.432 82.5362L192.896 82.6922L191.664 77.6124C189.858 77.1605 188.119 76.4674 186.494 75.5515L182.171 78.4144L176 72.41L178.673 67.954C177.714 66.3344 176.974 64.5922 176.473 62.7739L171.424 61.6599L171.27 53.0152L176.286 51.7676C176.732 49.9351 177.416 48.1707 178.321 46.5206L175.494 42.1426L181.5 35.9933L185.9 38.7003ZM190.454 50.2191C189.194 51.5388 188.35 53.207 188.026 55.0129C187.703 56.8187 187.916 58.681 188.638 60.3644C189.36 62.0477 190.558 63.4765 192.082 64.47C193.606 65.4635 195.386 65.9772 197.198 65.946C199.01 65.9148 200.772 65.3403 202.262 64.295C203.751 63.2496 204.901 61.7805 205.566 60.0733C206.231 58.3661 206.381 56.4975 205.998 54.7039C205.614 52.9102 204.714 51.272 203.412 49.9963C202.545 49.1438 201.52 48.473 200.397 48.0226C199.273 47.5722 198.073 47.351 196.865 47.3717C195.657 47.3924 194.465 47.6546 193.357 48.1433C192.249 48.6319 191.247 49.3374 190.41 50.2191H190.454Z" fill="#E0E0E0"/>
<path d="M187.879 325.6C188.8 325.038 189.791 324.603 190.827 324.308L191.432 321.356L196.36 321.266L197.064 324.196C198.109 324.452 199.115 324.849 200.056 325.377L202.542 323.728L206.084 327.193L204.599 329.744C205.154 330.677 205.583 331.681 205.875 332.73L208.79 333.342L208.878 338.333L205.985 339.046C205.732 340.104 205.34 341.124 204.819 342.076L206.447 344.594L203.026 348.181L200.485 346.621C199.562 347.182 198.571 347.62 197.537 347.924L196.899 350.91L191.971 350.999L191.267 348.069C190.222 347.813 189.215 347.416 188.275 346.888L185.789 348.537L182.247 345.073L183.787 342.499C183.233 341.564 182.8 340.561 182.5 339.514L179.596 338.901L179.508 333.91L182.401 333.197C182.653 332.139 183.046 331.12 183.567 330.167L181.939 327.65L185.36 324.063L187.901 325.622L187.879 325.6ZM190.508 332.284C189.779 333.046 189.29 334.009 189.103 335.053C188.916 336.096 189.038 337.172 189.455 338.145C189.872 339.118 190.565 339.944 191.445 340.518C192.326 341.092 193.355 341.388 194.402 341.369C195.449 341.35 196.467 341.017 197.327 340.412C198.187 339.807 198.851 338.957 199.233 337.97C199.616 336.983 199.701 335.903 199.477 334.867C199.254 333.831 198.731 332.886 197.977 332.15C197.481 331.659 196.894 331.272 196.25 331.011C195.606 330.749 194.918 330.619 194.224 330.628C193.53 330.636 192.845 330.782 192.208 331.059C191.57 331.336 190.992 331.737 190.508 332.239V332.284Z" fill="#E0E0E0"/>
<path d="M80.6067 66.2049C81.2361 65.8195 81.9129 65.5198 82.6197 65.3137L83.0377 63.2974H86.3927L86.8987 65.2357C87.6116 65.4191 88.299 65.6923 88.9447 66.0489L90.6387 64.9349L93.0587 67.2966L91.9587 69.0567C92.3393 69.6941 92.6352 70.3796 92.8387 71.0954L94.8297 71.5187V74.8607L92.8497 75.3508C92.6775 76.074 92.4112 76.7708 92.0577 77.4229L93.1577 79.1384L90.8257 81.5892L89.0877 80.4752C88.4583 80.8607 87.7815 81.1603 87.0747 81.3664L86.6567 83.3828H83.3567L82.8727 81.3776C82.1587 81.2032 81.4706 80.9334 80.8267 80.5755L79.1327 81.6895L76.7127 79.3167L77.8127 77.5677C77.4321 76.9303 77.1362 76.2449 76.9327 75.5291L74.9417 75.1058L74.8867 71.7638L76.8557 71.2736C77.0368 70.5517 77.3066 69.8555 77.6587 69.2016L76.5587 67.486L78.8907 65.0352L80.6287 66.1492L80.6067 66.2049ZM82.3997 70.7389C81.9042 71.2588 81.5721 71.9157 81.4452 72.6267C81.3183 73.3378 81.4024 74.0709 81.6869 74.7335C81.9714 75.3961 82.4435 75.9584 83.0435 76.3494C83.6435 76.7403 84.3445 76.9423 85.0579 76.9299C85.7712 76.9174 86.4649 76.6911 87.0513 76.2794C87.6376 75.8678 88.0903 75.2893 88.352 74.6171C88.6138 73.945 88.6729 73.2093 88.5219 72.5032C88.3709 71.797 88.0166 71.152 87.5037 70.6498C87.1629 70.316 86.7605 70.0536 86.3195 69.8774C85.8785 69.7013 85.4075 69.6148 84.9335 69.6231C84.4595 69.6314 83.9917 69.7342 83.557 69.9256C83.1222 70.1171 82.729 70.3934 82.3997 70.7389Z" fill="#E0E0E0"/>
<path d="M244.815 59.0421C246.055 58.2826 247.391 57.6944 248.786 57.2931L249.6 53.3161L256.2 53.1936L257.157 57.1483C258.567 57.4975 259.925 58.0371 261.194 58.7525L264.494 56.5245L269.367 61.2701L267.299 64.7012C268.051 65.9605 268.632 67.317 269.026 68.7339L272.964 69.5583L273.074 76.2423L269.18 77.2114C268.825 78.6472 268.285 80.0294 267.574 81.3221L269.774 84.7309L265.165 89.5657L261.733 87.4602C260.491 88.2174 259.155 88.8054 257.762 89.2092L256.937 93.1862L250.337 93.3087L249.38 89.354C247.954 89.0131 246.581 88.4771 245.299 87.761L241.999 89.989L237.214 85.3214L239.293 81.8457C238.544 80.5843 237.963 79.2284 237.566 77.813L233.639 76.9886L233.518 70.3046L237.423 69.3355C237.767 67.9105 238.3 66.5391 239.007 65.2582L236.807 61.8494L241.416 57.0146L244.815 59.0421ZM248.357 67.9541C247.378 68.9821 246.722 70.2809 246.473 71.6862C246.223 73.0915 246.391 74.5403 246.954 75.8492C247.518 77.1581 248.452 78.2684 249.638 79.0396C250.825 79.8108 252.211 80.2083 253.62 80.1818C255.03 80.1553 256.4 79.706 257.558 78.8908C258.715 78.0755 259.608 76.9309 260.123 75.6017C260.639 74.2725 260.753 72.8184 260.452 71.4235C260.151 70.0285 259.448 68.7552 258.433 67.7647C257.754 67.1117 256.954 66.6008 256.08 66.2613C255.205 65.9218 254.274 65.7603 253.338 65.7862C252.401 65.8121 251.48 66.0248 250.625 66.4121C249.77 66.7994 248.999 67.3537 248.357 68.0432V67.9541Z" fill="#EBEBEB"/>
<path d="M420.429 225.139C422.021 224.169 423.734 223.419 425.522 222.911L426.622 217.798L435.147 217.642L436.379 222.722C438.19 223.169 439.933 223.862 441.56 224.783L445.861 221.92L451.999 227.924L449.337 232.38C450.29 233.999 451.03 235.737 451.537 237.549L456.586 238.663L456.74 247.297L451.724 248.545C451.283 250.375 450.599 252.136 449.689 253.78L452.516 258.147L446.598 264.297L442.198 261.59C440.603 262.559 438.886 263.308 437.094 263.818L435.994 268.931L427.469 269.076L426.237 264.018C424.432 263.566 422.693 262.873 421.067 261.957L416.755 264.82L410.617 258.816L413.29 254.36C412.332 252.748 411.592 251.013 411.09 249.202L406.041 248.088L405.898 239.51L410.903 238.262C411.35 236.43 412.034 234.666 412.938 233.015L410.111 228.66L416.04 222.444L420.44 225.151L420.429 225.139ZM424.972 236.647C423.716 237.967 422.875 239.634 422.554 241.437C422.233 243.241 422.448 245.101 423.171 246.781C423.893 248.461 425.092 249.887 426.614 250.877C428.137 251.868 429.915 252.379 431.725 252.347C433.534 252.314 435.293 251.739 436.78 250.694C438.267 249.649 439.414 248.181 440.077 246.475C440.74 244.77 440.889 242.904 440.505 241.113C440.121 239.322 439.221 237.686 437.919 236.413C437.055 235.566 436.034 234.899 434.915 234.452C433.796 234.005 432.601 233.786 431.398 233.808C430.195 233.83 429.008 234.092 427.906 234.579C426.803 235.066 425.806 235.769 424.972 236.647Z" fill="#E0E0E0"/>
<path d="M480.7 57.0591C480.706 53.4609 479.893 49.9096 478.324 46.6815C476.754 43.4535 474.47 40.6356 471.65 38.447C468.83 36.2585 465.549 34.7583 462.063 34.0631C458.577 33.3679 454.979 33.4965 451.55 34.4388C448.121 35.3811 444.953 37.1118 442.292 39.4962C439.631 41.8807 437.55 44.8546 436.209 48.1867C434.868 51.5188 434.304 55.1193 434.56 58.7081C434.817 62.2969 435.888 65.7773 437.69 68.8787L437.756 68.9678C438.636 70.4828 439.747 71.5634 440.869 73.1453L454.3 91.1475C454.689 91.6585 455.189 92.0722 455.762 92.3568C456.334 92.6415 456.963 92.7895 457.6 92.7895C458.237 92.7895 458.866 92.6415 459.438 92.3568C460.01 92.0722 460.51 91.6585 460.9 91.1475L474.1 73.446C475.299 72.025 476.419 70.5374 477.455 68.99L477.51 68.9232C479.605 65.3299 480.707 61.232 480.7 57.0591ZM457.6 67.2411C455.59 67.2389 453.626 66.6333 451.956 65.5009C450.286 64.3685 448.985 62.7602 448.217 60.8791C447.45 58.998 447.25 56.9287 447.644 54.9328C448.037 52.9368 449.006 51.1037 450.428 49.6653C451.85 48.2268 453.661 47.2476 455.632 46.8513C457.603 46.4551 459.647 46.6595 461.503 47.439C463.36 48.2184 464.946 49.5377 466.063 51.2302C467.179 52.9227 467.775 54.9123 467.775 56.9477C467.775 58.3004 467.512 59.6398 467 60.8894C466.489 62.139 465.739 63.2742 464.794 64.2302C463.849 65.1861 462.727 65.9441 461.493 66.4607C460.259 66.9774 458.936 67.2425 457.6 67.2411Z" fill="#E0E0E0"/>
<path d="M73.9962 393.743C76.3371 392.095 78.1488 389.787 79.2066 387.106C80.2645 384.425 80.522 381.488 79.9472 378.66C78.4402 370.65 71.1472 365.292 63.7882 366.729C56.4292 368.166 51.5782 375.808 53.0852 383.829C53.5773 386.698 54.8988 389.354 56.8823 391.462C58.8659 393.57 61.4223 395.035 64.2282 395.671C44.1862 402.889 49.4992 425.437 49.4992 425.437L98.3722 416.034C98.3722 416.034 95.0722 392.841 73.9962 393.743Z" fill="#EBEBEB"/>
<path d="M133.209 489.859L123.199 487.342C123.199 487.342 121.12 495.897 112.298 493.858C110.592 493.498 109.04 492.607 107.857 491.312C106.674 490.016 105.92 488.379 105.698 486.629C105.49 485.162 105.628 483.667 106.1 482.265C106.572 480.864 107.366 479.595 108.415 478.563C110.813 476.135 115.191 474.475 121.615 477.382L127.214 454.401L117.259 451.916L113.959 465.385C113.959 465.385 99.12 465.552 95.336 481.125C91.706 496.031 104.059 502.782 109.713 504.185C114.047 505.266 129.018 507.884 133.209 489.859Z" fill="#EBEBEB"/>
<path d="M118.284 447.158L128.377 449.676L130.7 440.125L120.607 437.607L118.284 447.158Z" fill="#EBEBEB"/>
<path d="M514.933 524.583C514.933 524.739 407.859 524.872 275.815 524.872C143.771 524.872 36.6855 524.694 36.6855 524.583C36.6855 524.471 143.727 524.293 275.815 524.293C407.903 524.293 514.933 524.415 514.933 524.583Z" fill="black"/>
<path d="M63.7993 244.189H86.7783L84.7543 254.627H43.3613L45.0003 246.328L69.9153 226.554C76.0753 221.563 77.9563 218.645 77.9563 215.002C77.9563 211.359 75.2173 208.908 69.9153 208.908C67.6775 208.942 65.4749 209.479 63.4663 210.478C61.4577 211.478 59.693 212.917 58.2993 214.69L49.7853 208.441C54.1853 202.347 62.3583 198.314 71.7853 198.314C83.3463 198.314 90.9143 204.564 90.9143 213.186C90.9143 219.748 87.9553 225.284 78.3413 232.804L63.7993 244.189Z" fill="#263238"/>
<path d="M141.526 243.008H132.55L130.284 254.627H117.942L120.285 243.008H90.8379L92.4769 234.386L124.663 199.261H138.479L108.493 232.559H122.859L124.894 222.199H136.686L134.651 232.559H143.638L141.526 243.008Z" fill="#263238"/>
<path d="M177.606 188.032H189.013L148.874 262.536H137.5L177.606 188.032Z" fill="#263238"/>
<path d="M229.702 199.261L228.063 207.572L198.858 254.627H184.8L212.828 209.699H195.107L193.303 218.723H182.061L185.9 199.261H229.702Z" fill="#263238"/>
<path d="M38.2461 298.307L41.4471 292.158C44.3 294.004 47.6097 294.996 50.9951 295.021C54.1191 295.021 55.9231 294.029 55.9231 292.447C55.9231 288.537 41.9751 290.698 41.9751 281.563C41.9751 275.292 47.2661 271.181 55.7581 271.181C59.3597 271.06 62.9273 271.922 66.0871 273.676L63.1391 279.781C60.7719 278.305 58.0427 277.533 55.2631 277.553C51.8971 277.553 50.0931 278.801 50.0931 280.383C50.0931 284.371 64.0411 282.087 64.0411 291.055C64.0411 297.282 58.6291 301.393 50.2251 301.393C45.2971 301.415 40.8311 300.089 38.2461 298.307Z" fill="#263238"/>
<path d="M78.507 278.121L77.572 283.023H90.321L89.1 289.161H76.34L75.306 294.486H90.365L89.045 300.836H66L71.786 271.816H94.259L92.983 278.177L78.507 278.121Z" fill="#263238"/>
<path d="M115.202 292.113L120.086 300.836H111.594L107.326 293.116H103.234L101.716 300.836H93.5977L99.3287 271.816H111.594C118.931 271.816 123.155 275.269 123.155 281.085C123.212 283.553 122.464 285.972 121.026 287.966C119.588 289.96 117.541 291.417 115.202 292.113ZM110.45 278.244H106.182L104.499 286.755H109.339C112.914 286.755 115.004 285.017 115.004 281.82C114.96 279.369 113.233 278.244 110.45 278.244Z" fill="#263238"/>
<path d="M158.741 271.816L140.8 300.836H132.803L126.225 271.816H134.552L138.655 290.754L150.381 271.816H158.741Z" fill="#263238"/>
<path d="M160.457 271.816H168.586L162.8 300.836H154.682L160.457 271.816Z" fill="#263238"/>
<path d="M169.85 288.626C169.85 278.533 177.187 271.181 187.846 271.181C193.137 271.181 197.449 273.142 199.495 276.662L193.599 281.396C192.94 280.316 192.006 279.435 190.895 278.847C189.784 278.259 188.536 277.985 187.285 278.054C181.708 278.054 178.012 282.41 178.012 288.136C178.012 292.046 180.641 294.664 185.03 294.664C186.37 294.671 187.694 294.374 188.906 293.796C190.119 293.218 191.188 292.372 192.037 291.322L196.833 296.09C193.599 300.045 189.375 301.493 184.249 301.493C175.471 301.415 169.85 296.224 169.85 288.626Z" fill="#263238"/>
<path d="M211.342 278.121L210.396 283.023H223.145L221.957 289.161H209.164L208.141 294.486H223.189L221.88 300.836H198.879L204.599 271.816H227.072L225.807 278.177L211.342 278.121Z" fill="#263238"/>
<path d="M69.4645 182.874H53.4375C53.4375 160.282 62.4685 137.2 78.2095 119.488C94.7755 100.873 116.28 90.6238 138.709 90.6238C184.546 90.6238 216.568 124.512 216.568 173.06H200.574C200.574 133.479 175.724 106.888 138.743 106.888C102.486 106.855 69.4645 143.082 69.4645 182.874Z" fill="url(#paint0_linear_1477_10509)"/>
<path d="M78.2533 178.363C80.8163 178.363 82.8953 178.619 82.8843 178.853C82.8733 179.087 80.8053 179.265 78.2533 179.265C75.7013 179.265 73.6113 179.053 73.6113 178.775C73.6113 178.496 75.7013 178.318 78.2533 178.363Z" fill="#263238"/>
<path d="M89.3192 142.781C91.5192 144.207 93.0042 145.667 92.7622 146.056C92.5202 146.446 90.5622 145.655 88.3622 144.307C86.1622 142.96 84.6992 141.478 84.9302 141.032C85.1612 140.587 87.1742 141.367 89.3192 142.781Z" fill="#263238"/>
<path d="M117.04 118.262C118.085 120.635 118.602 122.718 118.14 122.896C117.678 123.075 116.501 121.348 115.379 119.02C114.257 116.691 113.74 114.564 114.279 114.385C114.818 114.207 116.006 115.856 117.04 118.262Z" fill="#263238"/>
<path d="M153.559 115.343C152.921 117.861 152.052 119.799 151.623 119.71C151.194 119.621 151.282 117.482 151.832 114.931C152.382 112.38 153.24 110.475 153.768 110.576C154.296 110.676 154.197 112.837 153.559 115.343Z" fill="#263238"/>
<path d="M183.391 136.576C181.257 138.002 179.332 138.871 179.079 138.515C178.826 138.158 180.311 136.621 182.379 135.095C184.447 133.569 186.383 132.711 186.691 133.156C186.999 133.602 185.525 135.139 183.391 136.576Z" fill="#263238"/>
<path d="M193.215 171.556C190.663 171.556 188.584 171.356 188.584 171.133C188.584 170.91 190.652 170.687 193.215 170.654C195.778 170.62 197.846 170.81 197.857 171.077C197.868 171.344 195.8 171.556 193.215 171.556Z" fill="#263238"/>
<path d="M134.364 176.391C133.566 176.396 132.789 176.125 132.164 175.622L105.225 154.456C104.478 153.865 103.994 152.998 103.878 152.045C103.763 151.093 104.026 150.133 104.609 149.376C105.193 148.62 106.049 148.129 106.989 148.012C107.93 147.895 108.878 148.161 109.625 148.752L134.199 168.047L168.134 136.487C168.827 135.836 169.747 135.49 170.692 135.525C171.637 135.561 172.529 135.975 173.172 136.677C173.815 137.378 174.157 138.31 174.122 139.267C174.087 140.224 173.678 141.127 172.985 141.779L136.828 175.421C136.159 176.051 135.277 176.397 134.364 176.391Z" fill="url(#paint1_linear_1477_10509)"/>
<path d="M152.636 66.762H121.748C121.268 66.762 120.879 67.156 120.879 67.642V78.9714C120.879 79.4574 121.268 79.8515 121.748 79.8515H152.636C153.116 79.8515 153.505 79.4574 153.505 78.9714V67.642C153.505 67.156 153.116 66.762 152.636 66.762Z" fill="url(#paint2_linear_1477_10509)"/>
<path d="M145.617 73.3123H128.754V88.7969H145.617V73.3123Z" fill="url(#paint3_linear_1477_10509)"/>
<path d="M67.584 106.821L54.9169 122.708C54.4245 123.326 54.5197 124.23 55.1294 124.729L63.7904 131.811C64.4001 132.31 65.2935 132.214 65.7858 131.596L78.4529 115.709C78.9453 115.092 78.8501 114.187 78.2404 113.688L69.5794 106.606C68.9697 106.107 68.0763 106.204 67.584 106.821Z" fill="url(#paint4_linear_1477_10509)"/>
<path d="M152.636 79.8515C152.636 80.0409 145.717 80.1857 137.236 80.1857C128.755 80.1857 121.836 80.0409 121.836 79.8515C121.836 79.6622 128.744 79.5173 137.236 79.5173C145.728 79.5173 152.636 79.6733 152.636 79.8515Z" fill="#263238"/>
<path d="M67.2966 128.868C67.1206 129.068 64.7886 127.263 61.9066 125.069C59.0246 122.874 56.6816 121.092 56.8246 120.869C56.9676 120.646 59.5526 122.094 62.4676 124.311C65.3826 126.528 67.4616 128.678 67.2966 128.868Z" fill="#263238"/>
<path d="M69.9814 124.868C69.8054 125.069 67.4734 123.264 64.5914 121.069C61.7094 118.875 59.3554 117.093 59.4984 116.87C59.6414 116.647 62.2374 118.095 65.1524 120.323C68.0674 122.551 70.1464 124.679 69.9814 124.868Z" fill="#263238"/>
<path d="M73.27 121.515C73.105 121.715 70.773 119.911 67.891 117.716C65.009 115.522 62.699 113.739 62.798 113.516C62.897 113.294 65.537 114.742 68.441 116.97C71.345 119.198 73.446 121.326 73.27 121.515Z" fill="#263238"/>
<path d="M76.4604 117.516C76.2954 117.716 73.9524 115.912 71.0704 113.717C68.1884 111.522 65.8454 109.74 65.9994 109.517C66.1534 109.294 68.7384 110.743 71.6424 112.971C74.5464 115.199 76.6254 117.326 76.4604 117.516Z" fill="#263238"/>
<path d="M214.727 111.843L201.092 96.7996C200.562 96.2149 199.665 96.1761 199.087 96.7128L190.887 104.336C190.309 104.873 190.271 105.782 190.801 106.367L204.436 121.41C204.966 121.994 205.863 122.033 206.441 121.497L214.641 113.873C215.219 113.336 215.257 112.427 214.727 111.843Z" fill="url(#paint5_linear_1477_10509)"/>
<path d="M193.236 108.303C193.071 108.102 195.172 106.075 197.746 103.468C200.32 100.861 202.399 98.8228 202.597 99.0122C202.795 99.2016 201.002 101.574 198.395 104.159C195.788 106.743 193.39 108.492 193.236 108.303Z" fill="#263238"/>
<path d="M196.745 111.578C196.569 111.378 198.681 109.35 201.244 106.743C203.807 104.137 205.908 102.098 206.106 102.287C206.304 102.477 204.5 104.85 201.904 107.434C199.308 110.019 196.899 111.767 196.745 111.578Z" fill="#263238"/>
<path d="M199.528 115.377C199.352 115.176 201.464 113.149 204.027 110.542C206.59 107.935 208.691 105.897 208.889 106.086C209.087 106.276 207.283 108.637 204.676 111.222C202.069 113.806 199.682 115.566 199.528 115.377Z" fill="#263238"/>
<path d="M202.961 119.198C202.785 118.997 204.897 116.97 207.46 114.363C210.023 111.756 212.124 109.718 212.322 109.907C212.52 110.097 210.716 112.469 208.109 115.054C205.502 117.638 203.115 119.354 202.961 119.198Z" fill="#263238"/>
<path d="M125.212 79.8402C124.959 79.8402 124.75 76.9438 124.75 73.3901C124.75 69.8365 124.959 66.929 125.212 66.929C125.465 66.929 125.685 69.8253 125.685 73.3901C125.685 76.9549 125.476 79.8402 125.212 79.8402Z" fill="#263238"/>
<path d="M131.263 79.8402C131.01 79.8402 130.801 76.9438 130.801 73.3901C130.801 69.8365 131.01 66.929 131.263 66.929C131.516 66.929 131.725 69.8253 131.725 73.3901C131.725 76.9549 131.516 79.8402 131.263 79.8402Z" fill="#263238"/>
<path d="M137.302 79.8402C137.049 79.8402 136.84 76.9438 136.84 73.3901C136.84 69.8365 137.049 66.929 137.302 66.929C137.555 66.929 137.764 69.8253 137.764 73.3901C137.764 76.9549 137.566 79.8402 137.302 79.8402Z" fill="#263238"/>
<path d="M143.351 79.8402C143.087 79.8402 142.889 76.9438 142.889 73.3901C142.889 69.8365 143.087 66.929 143.351 66.929C143.615 66.929 143.813 69.8253 143.813 73.3901C143.813 76.9549 143.604 79.8402 143.351 79.8402Z" fill="#263238"/>
<path d="M149.39 79.8402C149.137 79.8402 148.928 76.9438 148.928 73.3901C148.928 69.8365 149.137 66.929 149.39 66.929C149.643 66.929 149.852 69.8253 149.852 73.3901C149.852 76.9549 149.599 79.8402 149.39 79.8402Z" fill="#263238"/>
<path d="M140.903 177.323C144.056 174.13 144.056 168.953 140.903 165.759C137.75 162.566 132.638 162.566 129.485 165.759C126.331 168.953 126.331 174.13 129.485 177.323C132.638 180.516 137.75 180.516 140.903 177.323Z" fill="url(#paint6_linear_1477_10509)"/>
<path d="M143.264 171.556C143.187 171.556 143.198 170.832 142.857 169.595C142.368 167.87 141.327 166.357 139.898 165.295C138.752 164.434 137.393 163.912 135.971 163.787C134.55 163.662 133.122 163.94 131.847 164.589C130.573 165.239 129.501 166.234 128.752 167.464C128.004 168.694 127.607 170.111 127.607 171.556C127.607 173.001 128.004 174.417 128.752 175.648C129.501 176.878 130.573 177.873 131.847 178.522C133.122 179.172 134.55 179.449 135.971 179.325C137.393 179.2 138.752 178.678 139.898 177.817C141.324 176.752 142.364 175.241 142.857 173.516C143.198 172.28 143.187 171.556 143.264 171.556C143.341 171.556 143.264 171.734 143.264 172.079C143.281 172.589 143.229 173.099 143.11 173.594C142.715 175.454 141.687 177.114 140.206 178.284C139.099 179.164 137.79 179.746 136.402 179.976C135.013 180.206 133.59 180.076 132.264 179.599C130.622 179.01 129.202 177.92 128.197 176.48C127.192 175.04 126.652 173.319 126.652 171.556C126.652 169.792 127.192 168.072 128.197 166.632C129.202 165.191 130.622 164.102 132.264 163.513C133.589 163.037 135.011 162.907 136.399 163.135C137.788 163.363 139.097 163.941 140.206 164.816C141.686 165.991 142.714 167.655 143.11 169.517C143.229 170.013 143.281 170.522 143.264 171.032C143.319 171.355 143.297 171.556 143.264 171.556Z" fill="#263238"/>
<path d="M419.397 199.562L433.191 197.334C442.232 204.721 453.675 208.417 465.27 207.693C476.865 206.97 487.773 201.88 495.851 193.425C503.928 184.97 508.59 173.76 508.92 162C509.25 150.24 505.225 138.78 497.635 129.873C490.045 120.967 479.44 115.257 467.904 113.868C456.369 112.479 444.737 115.509 435.296 122.365C425.855 129.22 419.288 139.404 416.885 150.914C414.482 162.425 416.418 174.429 422.312 184.567L419.397 199.562Z" fill="white"/>
<path d="M419.398 199.562C419.398 199.562 419.398 199.25 419.552 198.615L420.08 195.763C420.553 193.201 421.257 189.447 422.17 184.545C422.172 184.529 422.178 184.514 422.187 184.5C422.196 184.487 422.207 184.475 422.221 184.467C422.234 184.459 422.25 184.453 422.266 184.451C422.282 184.449 422.298 184.451 422.313 184.456C422.323 184.45 422.334 184.447 422.346 184.447C422.357 184.447 422.369 184.45 422.379 184.456L422.181 184.612C418.245 177.883 416.018 170.269 415.702 162.455C415.604 160.022 415.696 157.586 415.977 155.169C416.304 152.581 416.826 150.023 417.539 147.516C420.137 138.427 425.37 130.338 432.56 124.296C439.75 118.254 448.565 114.538 457.865 113.628C465.161 112.931 472.517 113.987 479.335 116.71C486.153 119.434 492.24 123.748 497.102 129.302L498.972 131.53C499.555 132.31 500.072 133.123 500.644 133.903C501.73 135.488 502.718 137.14 503.603 138.849C504.087 139.673 504.395 140.587 504.802 141.444C505.209 142.302 505.627 143.16 505.902 144.074C506.554 145.842 507.094 147.65 507.519 149.488C509.211 156.628 509.267 164.067 507.684 171.233C505.562 180.551 500.699 188.999 493.737 195.459C486.774 201.92 478.04 206.089 468.689 207.416C466.119 207.769 463.527 207.922 460.934 207.872C458.526 207.757 456.128 207.496 453.751 207.092C446.183 205.665 439.088 202.341 433.115 197.423H433.214L422.896 198.994L420.267 199.384L419.398 199.506L420.311 199.339L422.962 198.893L433.17 197.178H433.269C439.236 202.015 446.297 205.273 453.817 206.658C456.175 207.056 458.556 207.305 460.945 207.404C463.52 207.446 466.094 207.286 468.645 206.925C477.884 205.572 486.504 201.422 493.374 195.021C500.244 188.62 505.044 180.266 507.145 171.055C508.699 163.971 508.635 156.621 506.958 149.566C506.527 147.754 505.994 145.969 505.363 144.218C505.088 143.316 504.626 142.492 504.263 141.623C503.9 140.754 503.548 139.874 503.075 139.061C502.204 137.372 501.226 135.742 500.149 134.181C499.599 133.401 499.049 132.599 498.499 131.831L496.651 129.603C491.848 124.116 485.837 119.852 479.104 117.156C472.372 114.46 465.107 113.408 457.898 114.085C451.516 114.723 445.334 116.695 439.743 119.876C434.152 123.057 429.273 127.378 425.415 132.566C422.053 137.104 419.54 142.228 418.001 147.683C417.29 150.165 416.764 152.697 416.428 155.258C416.136 157.656 416.033 160.074 416.12 162.488C416.389 170.248 418.546 177.821 422.401 184.534C422.422 184.557 422.433 184.587 422.433 184.618C422.433 184.649 422.422 184.678 422.401 184.701C422.379 184.719 422.352 184.729 422.324 184.729C422.296 184.729 422.268 184.719 422.247 184.701L422.445 184.634C421.477 189.48 420.729 193.201 420.245 195.774C419.992 197.033 419.794 198.002 419.662 198.648C419.53 199.294 419.398 199.562 419.398 199.562Z" fill="#263238"/>
<path d="M476.477 162.065C476.474 161.118 476.75 160.193 477.267 159.405C477.785 158.618 478.522 158.003 479.385 157.64C480.247 157.277 481.197 157.182 482.114 157.366C483.03 157.55 483.872 158.005 484.532 158.674C485.193 159.343 485.643 160.196 485.824 161.124C486.006 162.052 485.912 163.014 485.553 163.887C485.195 164.761 484.588 165.507 483.81 166.032C483.033 166.556 482.119 166.835 481.185 166.833C479.937 166.83 478.741 166.326 477.859 165.433C476.976 164.539 476.479 163.328 476.477 162.065Z" fill="#263238"/>
<path d="M457.602 162.065C457.599 161.119 457.874 160.194 458.392 159.406C458.909 158.619 459.645 158.005 460.507 157.641C461.369 157.278 462.318 157.182 463.234 157.365C464.151 157.548 464.992 158.002 465.654 158.67C466.315 159.338 466.765 160.19 466.948 161.117C467.131 162.044 467.038 163.006 466.681 163.88C466.325 164.754 465.72 165.501 464.943 166.026C464.167 166.552 463.254 166.833 462.321 166.833C461.071 166.833 459.872 166.331 458.988 165.437C458.103 164.543 457.604 163.33 457.602 162.065Z" fill="#263238"/>
<path d="M438.779 164.448C438.312 163.63 438.096 162.69 438.157 161.746C438.218 160.803 438.553 159.899 439.121 159.149C439.69 158.4 440.465 157.837 441.348 157.533C442.232 157.229 443.185 157.198 444.087 157.442C444.988 157.687 445.798 158.197 446.413 158.907C447.029 159.618 447.422 160.498 447.544 161.435C447.666 162.372 447.511 163.325 447.098 164.172C446.685 165.02 446.033 165.725 445.225 166.197C444.14 166.828 442.853 166.998 441.645 166.67C440.437 166.343 439.407 165.544 438.779 164.448Z" fill="#263238"/>
<path d="M109.219 333.086C106.326 331.693 101.453 328.786 98.439 327.65C95.4597 326.359 92.1358 326.131 89.012 327.003C87.241 327.605 85.47 329.042 85.459 330.936L97.284 339.77L109.219 336.584V333.086Z" fill="#FF9A6C"/>
<path d="M96.2832 332.963C96.2832 332.963 75.0422 328.296 71.5002 326.458C67.9582 324.62 49.5002 315.262 46.4092 315.262C43.3182 315.262 40.6782 316.109 40.1172 319.228L44.1542 322.403L44.6712 324.029L51.5792 327.672L52.8002 329.967L70.4002 339.48C70.4002 339.48 88.8582 348.972 91.9382 349.506C95.0182 350.041 110.396 351.344 116.974 357.015L143.374 346.031C143.374 346.031 135.751 335.069 129.877 332.362C124.641 329.956 115.852 329.956 109.703 332.507L96.2832 332.963Z" fill="#FFBF9D"/>
<path d="M113.949 350.91C113.949 350.91 147.554 425.125 152.966 440.03C152.966 440.03 190.531 433.769 191.818 412.659L143.418 345.819L113.949 350.91Z" fill="#FFBF9D"/>
<path d="M82.7414 334.646C82.7414 334.646 82.6094 334.646 82.3784 334.646C82.0347 334.611 81.6956 334.54 81.3664 334.434C80.1617 334.062 78.9912 333.585 77.8684 333.008C76.4384 332.306 74.7774 331.382 72.9514 330.346C72.0384 329.833 71.0814 329.287 70.0804 328.764C69.0794 328.24 67.9904 327.783 66.8794 327.293C64.8223 326.35 62.6967 325.568 60.5214 324.954C58.5304 324.452 56.6164 324.074 55.1754 324.564C54.6165 324.79 54.1094 325.131 53.6855 325.564C53.2617 325.997 52.9302 326.513 52.7114 327.081C52.5489 327.515 52.3616 327.94 52.1504 328.351C52.1504 328.351 52.1504 328.218 52.2054 327.995C52.2789 327.654 52.3782 327.318 52.5024 326.992C52.6968 326.473 52.9595 325.982 53.2834 325.533C53.7115 324.919 54.3082 324.447 54.9994 324.174C55.8521 323.885 56.7581 323.793 57.6504 323.907C58.6482 324.006 59.6373 324.181 60.6094 324.43C62.8312 325.023 65.0016 325.798 67.0994 326.747C68.1994 327.237 69.2994 327.694 70.3224 328.24C71.3454 328.786 72.2914 329.354 73.2044 329.878C75.0194 330.936 76.6474 331.894 78.0444 332.629C79.1269 333.228 80.2477 333.753 81.3994 334.2C82.2574 334.523 82.7414 334.59 82.7414 334.646Z" fill="#FF9A6C"/>
<path d="M62.4804 323.973C61.4448 323.762 60.4421 323.409 59.4994 322.926C57.2307 321.842 54.8979 320.901 52.5144 320.108C51.2102 319.734 49.8472 319.616 48.4994 319.763C47.9616 319.779 47.4327 319.906 46.9449 320.136C46.457 320.366 46.0203 320.693 45.6614 321.099C45.2312 321.703 44.9485 322.402 44.8364 323.138C44.8264 323.424 44.7707 323.706 44.6714 323.973C44.6199 323.69 44.6199 323.399 44.6714 323.116C44.7125 322.321 44.9632 321.551 45.3974 320.888C45.7341 320.423 46.1704 320.043 46.6734 319.774C47.2487 319.497 47.866 319.32 48.4994 319.25C49.9182 319.069 51.3584 319.179 52.7344 319.573C55.1518 320.359 57.4934 321.365 59.7304 322.581C60.6711 322.995 61.5891 323.46 62.4804 323.973Z" fill="#FF9A6C"/>
<path d="M115.499 330.858C115.499 330.858 115.202 331.036 114.641 331.237C113.837 331.531 113.018 331.784 112.188 331.994C109.458 332.714 106.659 333.136 103.839 333.253C101.021 333.376 98.1972 333.205 95.4134 332.741C94.3134 332.551 93.4994 332.362 92.9164 332.195C92.6045 332.147 92.3031 332.045 92.0254 331.894C92.0254 331.805 93.3454 332.061 95.4794 332.328C98.2447 332.675 101.033 332.79 103.817 332.674C106.603 332.528 109.373 332.156 112.1 331.56C114.135 331.159 115.422 330.78 115.499 330.858Z" fill="#FF9A6C"/>
<path d="M428.384 286.799L379.5 276.55L367.4 267.36L302.83 279.97C301.796 281.886 291.335 296.68 291.335 296.68L265.903 305.425C255.094 308.301 245.446 314.535 238.315 323.249C231.534 331.731 225.978 341.145 221.815 351.211C210.375 378.403 193.864 409.818 193.864 409.818L183.513 392.93L139.887 413.739C139.887 413.739 165.44 465.908 173.899 473.361C183.304 481.638 204.93 482.596 219.879 467.156C228.888 457.843 254.925 421.036 260.348 411.823L268.4 450.346L275.803 494.315L263.835 524.582H438.515L431.288 495.975C431.288 495.975 438.405 421.415 440.374 407.534C445.005 374.794 428.384 286.799 428.384 286.799Z" fill="url(#paint7_linear_1477_10509)"/>
<path d="M428.385 286.799C428.385 286.799 463.365 296.736 471.065 331.95C475.729 353.283 491.569 414.096 497.146 464.159C500.446 493.925 500.358 521.43 500.446 524.582H446.766L424.018 296.736L428.385 286.799Z" fill="url(#paint8_linear_1477_10509)"/>
<path d="M338.668 317.033C338.668 317.033 338.668 317.167 338.525 317.401L338.03 318.426C337.59 319.328 336.93 320.654 336.215 322.336C334.664 325.678 332.838 330.635 329.89 336.172L329.747 336.45L329.505 336.239C325.875 333.108 321.937 329.343 317.867 325.277C310.662 318.036 304.348 311.296 299.684 306.517L294.129 300.869L292.6 299.343C292.414 299.174 292.244 298.988 292.094 298.786C292.306 298.922 292.502 299.082 292.677 299.265L294.261 300.713C295.625 301.983 297.561 303.866 299.948 306.227C304.689 310.94 311.058 317.635 318.241 324.865C322.311 328.931 326.227 332.663 329.813 335.849L329.417 335.916C332.387 330.457 334.279 325.522 335.907 322.202C336.71 320.52 337.381 319.228 337.865 318.348C338.085 317.958 338.272 317.624 338.426 317.367C338.494 317.248 338.576 317.136 338.668 317.033Z" fill="black"/>
<path d="M380.182 277.809C380.179 278.072 380.145 278.334 380.083 278.589C379.973 279.146 379.841 279.881 379.676 280.817C379.28 282.733 378.576 285.496 377.674 288.86C375.771 295.544 372.691 304.779 368.874 314.749C366.861 320.03 364.881 325.021 363.033 329.443L362.89 329.788L362.615 329.543C357.632 325.087 353.166 321.578 350.141 318.971C348.623 317.668 347.435 316.621 346.632 315.886L345.741 315.039C345.532 314.839 345.433 314.738 345.444 314.727C345.571 314.794 345.689 314.876 345.796 314.972L346.742 315.763L350.339 318.726C353.43 321.266 357.929 324.709 362.967 329.142L362.549 329.243C364.364 324.787 366.333 319.818 368.335 314.549C372.108 304.523 375.243 295.444 377.234 288.749C378.224 285.407 378.95 282.666 379.434 280.761C379.643 279.859 379.819 279.135 379.951 278.533C380.01 278.286 380.087 278.044 380.182 277.809Z" fill="black"/>
<path d="M267.026 445.411C266.98 445.335 266.946 445.252 266.927 445.165L266.696 444.408C266.498 443.665 266.223 442.685 265.871 441.467C265.497 440.197 265.134 438.626 264.694 436.799C264.254 434.972 263.781 432.878 263.308 430.561C260.874 418.474 259.162 406.25 258.182 393.955C256.939 379.551 256.664 366.461 256.73 357.004C256.73 352.269 256.851 348.437 256.983 345.797C257.049 344.504 257.093 343.491 257.126 342.744C257.126 342.432 257.126 342.165 257.181 341.953C257.169 341.865 257.169 341.775 257.181 341.686C257.19 341.779 257.19 341.872 257.181 341.965V342.755C257.181 343.502 257.181 344.516 257.181 345.797C257.181 348.448 257.093 352.269 257.115 357.004C257.115 366.45 257.489 379.529 258.732 393.899C259.721 406.176 261.374 418.389 263.682 430.483C264.133 432.8 264.551 434.939 264.98 436.721C265.409 438.504 265.728 440.141 266.08 441.411L266.806 444.375L266.971 445.143C267.026 445.321 267.037 445.411 267.026 445.411Z" fill="black"/>
<path d="M431.289 325.856C431.354 325.952 431.406 326.057 431.443 326.168C431.542 326.402 431.674 326.703 431.828 327.081C432.18 327.928 432.653 329.12 433.269 330.624C433.577 331.404 433.94 332.25 434.292 333.197L435.337 336.317C435.711 337.431 436.107 338.645 436.536 339.915C436.965 341.185 437.251 342.577 437.636 344.014C440.936 355.477 442.586 372.065 441.64 390.212C440.694 408.359 438.582 424.746 437.24 436.51C436.569 442.392 436.019 447.171 435.634 450.513C435.447 452.128 435.293 453.409 435.183 454.311L435.051 455.303C435.043 455.417 435.021 455.529 434.985 455.637C434.97 455.526 434.97 455.414 434.985 455.303L435.062 454.3C435.15 453.387 435.271 452.072 435.414 450.49C435.722 447.148 436.206 442.38 436.833 436.465C438.032 424.634 440.056 408.303 441.024 390.19C441.992 372.076 440.364 355.578 437.207 344.115L436.107 340.015L435.007 336.428C434.655 335.314 434.325 334.256 434.017 333.298C433.709 332.34 433.335 331.482 433.038 330.702C432.466 329.176 432.026 327.984 431.696 327.126C431.564 326.736 431.454 326.435 431.366 326.19C431.324 326.084 431.298 325.971 431.289 325.856Z" fill="black"/>
<path d="M194.151 447.75C193.997 447.75 193.81 439.261 193.744 428.812C193.678 418.363 193.744 409.874 193.909 409.874C194.074 409.874 194.25 418.363 194.316 428.812C194.382 439.261 194.316 447.75 194.151 447.75Z" fill="black"/>
<path d="M352.88 499.161V498.693C352.88 498.359 352.968 497.913 353.034 497.334C353.188 496.109 353.397 494.36 353.672 492.109C353.815 490.995 353.969 489.714 354.145 488.344C354.321 486.974 354.453 485.459 354.618 483.888C354.937 480.658 355.377 476.992 355.718 472.915C355.883 470.888 356.048 468.749 356.235 466.532C356.422 464.315 356.51 461.998 356.653 459.603C356.983 454.813 357.126 449.677 357.313 444.285C357.555 433.491 357.522 421.615 356.972 409.172C356.422 396.729 355.3 384.898 354.057 374.17C353.364 368.812 352.759 363.721 351.978 358.986C351.615 356.614 351.296 354.319 350.878 352.124C350.46 349.93 350.119 347.824 349.778 345.808C349.107 341.786 348.337 338.177 347.71 334.991C347.391 333.398 347.105 331.916 346.83 330.535C346.555 329.153 346.258 327.939 346.005 326.825L344.905 321.69C344.795 321.122 344.696 320.676 344.63 320.353C344.564 320.03 344.553 319.885 344.553 319.885C344.608 320.03 344.653 320.179 344.685 320.331L345.026 321.656L346.247 326.781L347.116 330.479C347.402 331.838 347.71 333.309 348.051 334.935C348.7 338.11 349.503 341.719 350.196 345.741C350.562 347.754 350.929 349.859 351.296 352.057C351.692 354.285 352.011 356.513 352.396 358.92C353.188 363.665 353.815 368.756 354.53 374.115C355.795 384.853 356.873 396.695 357.489 409.15C358.105 421.604 358.061 433.502 357.786 444.308C357.577 449.711 357.423 454.846 357.071 459.636C356.917 462.031 356.807 464.349 356.62 466.577C356.433 468.805 356.235 470.932 356.059 472.971C355.751 477.048 355.278 480.769 354.959 483.933C354.772 485.548 354.596 487.052 354.442 488.389C354.288 489.725 354.079 491.018 353.914 492.154C353.595 494.382 353.342 496.142 353.177 497.356L352.968 498.715C352.951 498.866 352.922 499.015 352.88 499.161Z" fill="black"/>
<path d="M376.135 378.916H376.355L377.048 378.838L379.743 378.526L390.05 377.412L426.735 373.557H427.01V373.836C427.285 385.076 427.615 397.798 427.956 411.289V411.411L427.879 411.489L423.479 416.313L407.441 433.669L407.298 433.825L407.111 433.725L380.084 420.134L379.963 420.078V419.978C378.786 407.557 377.763 397.286 377.136 390.078C376.806 386.536 376.553 383.751 376.377 381.823C376.3 380.899 376.234 380.186 376.19 379.662C376.146 379.139 376.19 378.949 376.19 378.949C376.19 378.949 376.19 379.217 376.289 379.707C376.388 380.197 376.432 380.966 376.542 381.935C376.74 383.884 377.037 386.68 377.422 390.245C378.159 397.397 379.204 407.612 380.48 419.967L380.348 419.777L407.408 433.29L407.089 433.346L423.094 415.923L427.494 411.11L427.417 411.311C427.098 397.82 426.79 385.11 426.526 373.858L426.812 374.103L390.237 377.646L379.864 378.626L377.103 378.871L376.388 378.938L376.135 378.916Z" fill="black"/>
<path d="M427.075 386.758C426.452 386.934 425.815 387.057 425.172 387.126C423.94 387.327 422.158 387.583 419.947 387.872C415.547 388.441 409.398 389.098 402.633 389.755L385.297 391.471L380.05 392.028C379.414 392.131 378.77 392.18 378.125 392.172C378.748 391.997 379.385 391.874 380.028 391.805C381.26 391.604 383.042 391.348 385.253 391.058C389.653 390.49 395.802 389.833 402.578 389.176L419.903 387.46L425.15 386.903C425.786 386.8 426.43 386.751 427.075 386.758Z" fill="black"/>
<g opacity="0.3">
<path d="M437.701 430.572L439.549 453.331C443.63 433.836 450.043 412.882 449.042 392.986C448.041 373.09 446.193 354.051 435.127 336.038C439.938 349.6 442.144 363.969 441.628 378.37C440.616 401.653 437.701 430.572 437.701 430.572Z" fill="black"/>
</g>
<path d="M186.867 388.207C186.273 386.835 185.222 385.72 183.897 385.054C182.357 384.519 180.685 385.277 179.222 386.012L139.314 406.131C136.685 407.457 133.814 409.027 132.846 411.812C131.581 415.377 133.946 419.142 136.146 422.206C139.82 427.319 144.22 432.889 150.446 433.613L184.777 409.774C188.968 409.15 191.575 404.415 191.377 400.126C191.179 395.837 189.001 391.927 186.867 388.207Z" fill="url(#paint9_linear_1477_10509)"/>
<path d="M191.202 402.778C191.101 402.921 190.983 403.052 190.85 403.168L189.75 404.204C188.804 405.095 187.407 406.354 185.658 407.869C182.149 410.91 177.166 414.954 171.358 419.076C165.55 423.197 160.237 426.595 156.2 428.89C154.198 430.06 152.559 430.973 151.415 431.575L150.095 432.254C149.787 432.41 149.622 432.477 149.611 432.455C149.738 432.333 149.883 432.232 150.04 432.154L151.305 431.374L155.991 428.533C159.94 426.127 165.319 422.674 171.061 418.563C176.803 414.452 181.819 410.475 185.361 407.523L189.574 403.992L190.674 403.045C191.048 402.867 191.191 402.755 191.202 402.778Z" fill="black"/>
<g opacity="0.3">
<path d="M379.665 280.36C374.968 296.157 368.39 314.025 362.835 329.376C358.105 325.31 351.483 319.93 346.742 315.852C350.822 324.05 355.721 331.803 361.361 338.99C362.021 339.826 362.901 340.739 363.924 340.539C364.947 340.338 365.409 339.269 365.761 338.311L374.418 315.106C378.466 304.256 382.371 291.6 379.665 280.36Z" fill="black"/>
</g>
<path d="M305.416 108.503C319.716 104.337 333.092 108.503 346.281 115.433C359.47 122.362 370.107 133.802 376.993 147.115C384.253 161.14 387.465 177.482 384.836 193.089C382.207 208.697 373.495 223.401 360.449 232.079C342.618 243.977 318.044 243.353 299.685 232.336C281.326 221.318 269.237 201.01 266.036 179.632C263.836 164.905 265.618 149.376 272.405 136.186C279.192 122.997 291.193 112.302 305.405 108.492" fill="#263238"/>
<path d="M352.364 153.832C349.603 148.452 349.724 142.068 348.217 136.186C344.917 123.253 333.257 113.906 320.585 110.175C308.804 106.688 295.175 109.306 282.085 115.299C273.131 119.41 264.98 125.715 259.634 134.07C256.137 139.67 254.014 146.036 253.44 152.636C252.865 159.236 253.858 165.88 256.334 172.013L321.663 154.612C328.461 159.068 335.424 163.669 343.289 165.752C345.577 166.469 348.008 166.58 350.351 166.075C351.513 165.797 352.572 165.186 353.401 164.314C354.23 163.443 354.794 162.349 355.026 161.162C355.301 158.511 353.563 156.183 352.364 153.832Z" fill="#263238"/>
<path d="M367.95 271.147L351.087 151.036C350.339 145.355 347.787 139.562 342.144 139.829L282.744 134.036C264.132 134.905 255.398 159.658 257.048 178.407C258.885 199.283 261.932 224.694 266.673 239.755C276.21 270.022 300.289 270.334 300.289 270.334C300.289 270.334 301.752 276.35 303.589 287.601L342.089 313.535L367.95 271.147Z" fill="#FFBF9D"/>
<path d="M271.404 201.255C271.552 202.294 272.095 203.233 272.917 203.872C273.739 204.511 274.775 204.799 275.804 204.675C276.31 204.639 276.804 204.5 277.256 204.268C277.708 204.035 278.109 203.713 278.437 203.32C278.764 202.927 279.01 202.472 279.16 201.982C279.311 201.491 279.363 200.975 279.313 200.464C279.163 199.426 278.619 198.487 277.798 197.847C276.977 197.207 275.943 196.915 274.913 197.033C274.407 197.072 273.914 197.213 273.463 197.447C273.011 197.682 272.61 198.005 272.283 198.398C271.957 198.791 271.711 199.246 271.56 199.737C271.409 200.227 271.356 200.744 271.404 201.255Z" fill="#263238"/>
<path d="M264.472 190.728C265.033 191.173 267.673 188.5 271.908 187.843C276.143 187.185 279.553 188.867 279.938 188.266C280.125 187.999 279.487 187.152 277.991 186.35C275.967 185.355 273.691 185.013 271.468 185.37C269.268 185.7 267.229 186.735 265.649 188.322C264.494 189.525 264.197 190.494 264.472 190.728Z" fill="#263238"/>
<path d="M310.486 194.816C310.631 195.857 311.173 196.799 311.995 197.44C312.818 198.082 313.855 198.371 314.886 198.247C315.392 198.211 315.886 198.073 316.338 197.84C316.79 197.607 317.191 197.285 317.519 196.892C317.846 196.5 318.092 196.045 318.242 195.554C318.393 195.064 318.445 194.548 318.395 194.036C318.25 192.996 317.708 192.054 316.886 191.412C316.063 190.771 315.026 190.481 313.995 190.605C313.49 190.643 312.997 190.783 312.545 191.016C312.094 191.249 311.693 191.571 311.366 191.963C311.039 192.356 310.793 192.81 310.642 193.3C310.491 193.79 310.438 194.305 310.486 194.816Z" fill="#263238"/>
<path d="M304.7 185.058C305.261 185.503 307.912 182.83 312.136 182.172C316.36 181.515 319.781 183.197 320.166 182.596C320.353 182.328 319.715 181.482 318.219 180.68C316.192 179.683 313.911 179.34 311.685 179.699C309.456 180.032 307.393 181.083 305.8 182.696C304.7 183.81 304.403 184.924 304.7 185.058Z" fill="#263238"/>
<path d="M295.592 219.224C295.592 218.979 292.875 218.923 288.541 219.035C287.441 219.035 286.341 219.035 286.088 218.31C285.835 217.586 285.989 216.316 286.319 214.968C286.935 212.169 287.584 209.231 288.266 206.157C290.906 193.613 292.666 183.375 292.149 183.275C291.632 183.175 289.102 193.301 286.451 205.778C285.824 208.864 285.219 211.816 284.658 214.634C284.438 215.938 283.943 217.453 284.746 219.001C284.957 219.365 285.249 219.675 285.598 219.905C285.948 220.135 286.345 220.279 286.759 220.327C287.38 220.412 288.009 220.412 288.629 220.327C292.952 219.859 295.614 219.458 295.592 219.224Z" fill="#263238"/>
<path d="M300.301 270.334C314.764 268.321 328.39 262.277 339.659 252.878C339.659 252.878 330.056 277.219 302.259 279.67L300.301 270.334Z" fill="#FF9A6C"/>
<path d="M298.936 229.272C299.585 228.123 300.513 227.16 301.631 226.474C302.749 225.788 304.021 225.401 305.327 225.351C306.277 225.295 307.227 225.436 308.122 225.763C309.016 226.091 309.835 226.598 310.53 227.256C311.203 227.883 311.669 228.705 311.866 229.609C312.063 230.514 311.98 231.458 311.63 232.313C310.739 234.107 308.407 234.853 306.306 234.541C304.202 234.136 302.197 233.31 300.41 232.113C299.878 231.836 299.404 231.458 299.013 230.999C298.822 230.788 298.696 230.523 298.653 230.24C298.61 229.956 298.651 229.666 298.771 229.406" fill="#FF9A6C"/>
<path d="M308.483 220.26C307.779 220.327 308.483 224.983 305.04 228.882C301.597 232.781 296.658 233.038 296.713 233.684C296.713 233.996 297.945 234.419 300.013 234.163C302.709 233.784 305.186 232.455 307.009 230.409C308.758 228.448 309.686 225.875 309.594 223.234C309.473 221.263 308.791 220.193 308.483 220.26Z" fill="#263238"/>
<path d="M303.49 172.269C304.084 173.383 308.22 172.169 313.269 172.001C318.318 171.834 322.542 172.592 323.037 171.444C323.257 170.899 322.399 169.918 320.606 169.038C318.239 167.992 315.668 167.504 313.088 167.612C310.507 167.72 307.985 168.421 305.712 169.662C304.007 170.687 303.226 171.745 303.49 172.269Z" fill="#263238"/>
<path d="M262.901 171.823C263.792 172.681 266.553 171.222 270.051 170.631C273.549 170.041 276.651 170.286 277.135 169.161C277.366 168.615 276.75 167.724 275.32 167C273.413 166.168 271.305 165.927 269.263 166.308C267.221 166.689 265.337 167.674 263.847 169.139C262.736 170.331 262.483 171.4 262.901 171.823Z" fill="#263238"/>
<path d="M361.977 143.55C353.969 126.35 324.995 104.994 306.603 108.815L279.334 130.828C280.971 135.823 283.911 140.277 287.841 143.721C291.772 147.164 296.547 149.468 301.664 150.39C307.109 151.303 313.489 150.891 317.207 155.035C320.925 159.179 320.034 166.309 323.631 170.709C328.614 176.814 339.79 174.987 343.816 181.782C345.587 184.746 345.378 188.6 347.182 191.541C349.602 195.451 360.701 199.339 364.782 197.356C368.863 195.373 367.939 187.976 368.83 183.888C370.359 176.925 368.907 173.617 367.631 170.007C364.65 161.452 365.805 151.749 361.977 143.55Z" fill="#263238"/>
<path d="M352.606 202.748C352.265 200.431 354.08 194.582 356.28 193.836C362.154 191.964 373.077 190.772 375.508 206.235C378.808 227.401 357.204 226.387 357.061 225.785C356.918 225.184 353.794 210.702 352.606 202.748Z" fill="#FFBF9D"/>
<path d="M362.176 216.762C362.264 216.673 362.583 216.963 363.276 217.141C364.199 217.382 365.179 217.246 366.004 216.762C368.072 215.592 369.37 211.749 368.875 207.917C368.641 206.098 368.01 204.355 367.027 202.815C366.729 202.185 366.283 201.639 365.729 201.224C365.175 200.808 364.529 200.536 363.848 200.431C363.413 200.385 362.975 200.496 362.613 200.745C362.251 200.994 361.987 201.364 361.868 201.79C361.681 202.425 361.868 202.826 361.769 202.904C361.67 202.982 361.274 202.625 361.296 201.723C361.332 201.183 361.549 200.672 361.912 200.275C362.415 199.739 363.107 199.426 363.837 199.406C365.465 199.261 367.137 200.52 368.149 202.068C369.327 203.757 370.082 205.711 370.349 207.761C370.888 212.039 369.359 216.372 366.477 217.787C365.944 218.043 365.362 218.176 364.772 218.176C364.182 218.176 363.599 218.043 363.067 217.787C362.297 217.23 362.11 216.807 362.176 216.762Z" fill="#FF9A6C"/>
<path d="M284.703 123.71C283.746 132.622 272.009 145.154 267.103 152.54C257.676 166.632 256.004 171.144 259.326 199.84C253.078 190.516 248.062 181.248 247.226 170.007C246.39 158.767 249.184 147.104 255.96 138.169C262.736 129.235 273.637 123.353 284.758 123.687" fill="#263238"/>
<path d="M334.543 93.4868C338.943 88.574 345.301 85.3769 351.901 83.7059C361.306 81.3219 371.635 81.968 380.193 86.1121C388.751 90.2562 395.373 98.0319 397.1 106.944C397.949 111.522 397.549 116.248 395.945 120.613C394.34 124.978 391.59 128.818 387.992 131.719C392.885 136.524 398.851 140.063 405.383 142.035C403.601 144.742 400.312 146.324 396.99 146.892C393.65 147.315 390.27 147.292 386.936 146.825C389.212 150.269 392.617 152.787 396.55 153.932C391.136 155.198 385.49 155.01 380.171 153.387C374.968 151.79 369.989 149.525 365.354 146.647C349.261 137.189 340.384 128.901 329.516 114.341C328.097 108.058 330.11 98.4107 334.543 93.4868Z" fill="#263238"/>
<path d="M369.237 138.136C357.423 120.657 342.386 111.311 328.779 108.403L369.237 138.136Z" fill="#263238"/>
<path d="M328.779 108.403C329.403 108.656 330.047 108.854 330.704 108.994C331.947 109.35 333.74 109.896 335.896 110.732C341.51 112.94 346.787 115.94 351.571 119.644C356.357 123.338 360.718 127.564 364.573 132.243C366.025 134.059 367.202 135.585 367.961 136.588C368.339 137.156 368.766 137.689 369.237 138.181C368.919 137.571 368.551 136.99 368.137 136.443C367.433 135.329 366.311 133.825 364.892 131.987C361.134 127.167 356.804 122.835 352 119.087C347.158 115.346 341.779 112.378 336.05 110.286C334.322 109.663 332.559 109.146 330.77 108.738C330.117 108.572 329.451 108.461 328.779 108.403Z" fill="#455A64"/>
<path d="M383.318 153.03L383.054 153.119L382.284 153.431C381.624 153.721 380.634 154.099 379.336 154.545C375.667 155.789 371.862 156.575 368.006 156.884C362.288 157.315 356.539 156.941 350.923 155.77C344.044 154.307 337.319 152.185 330.837 149.432C323.907 146.569 317.373 143.628 311.554 140.743C306.385 138.21 301.411 135.291 296.671 132.009C293.484 129.786 290.476 127.313 287.673 124.612C286.661 123.665 285.935 122.874 285.473 122.384L284.89 121.793C284.758 121.671 284.692 121.604 284.681 121.615C284.67 121.626 284.681 121.693 284.846 121.838L285.385 122.473C285.858 123.03 286.562 123.843 287.585 124.824C290.341 127.603 293.326 130.141 296.506 132.41C301.229 135.77 306.205 138.75 311.389 141.322C317.219 144.252 323.742 147.215 330.683 150.089C337.205 152.849 343.976 154.965 350.901 156.405C356.572 157.552 362.376 157.875 368.138 157.363C371.989 157.007 375.781 156.161 379.424 154.846C380.711 154.345 381.69 153.932 382.339 153.598L383.076 153.231C383.241 153.086 383.329 153.041 383.318 153.03Z" fill="#455A64"/>
<path d="M320.991 257.935L319 253.992C319.143 253.914 332.959 246.74 338.272 242.217C350.79 231.567 362.296 214.556 362.417 214.367L366.047 216.873C365.563 217.598 354.09 234.564 341.099 245.615C335.379 250.449 321.574 257.635 320.991 257.935Z" fill="#455A64"/>
<path d="M331.276 245.626C331.276 245.626 312.4 254.159 312.4 256.053C312.4 257.947 315.392 261.734 317.636 261.545C319.88 261.355 326.37 257.657 327.536 256.142C328.702 254.627 330.77 250.728 333.036 248.834L331.276 245.626Z" fill="#263238"/>
<path d="M365.893 188.266L361.493 188.054C361.652 175.205 359.467 162.436 355.047 150.39C345.499 125.481 327.14 112.113 300.498 110.642C298.074 110.535 295.646 110.703 293.26 111.144L295.185 109.294C296.118 108.403 297.202 107.689 298.386 107.189C300.008 106.502 301.771 106.227 303.523 106.387C337.161 109.339 352.363 130.995 359.194 148.908C363.847 161.485 366.12 174.837 365.893 188.266Z" fill="#455A64"/>
<path d="M363.693 228.782C371.39 228.782 377.63 219.695 377.63 208.485C377.63 197.275 371.39 188.188 363.693 188.188C355.996 188.188 349.756 197.275 349.756 208.485C349.756 219.695 355.996 228.782 363.693 228.782Z" fill="#455A64"/>
<path d="M377.631 208.485C377.617 208.393 377.617 208.299 377.631 208.207C377.631 207.984 377.631 207.716 377.565 207.382C377.515 206.33 377.409 205.281 377.246 204.241C376.677 200.403 375.202 196.761 372.945 193.624C372.184 192.61 371.305 191.694 370.327 190.895C369.261 190.045 368.059 189.385 366.774 188.945C365.398 188.494 363.941 188.353 362.506 188.533C360.987 188.764 359.533 189.314 358.238 190.149C355.492 192.083 353.372 194.796 352.144 197.947C350.77 201.301 350.063 204.898 350.063 208.53C350.063 212.161 350.77 215.758 352.144 219.113C353.371 222.264 355.491 224.977 358.238 226.911C359.533 227.745 360.987 228.295 362.506 228.526C363.941 228.7 365.397 228.56 366.774 228.114C368.059 227.674 369.261 227.014 370.327 226.164C371.303 225.363 372.182 224.446 372.945 223.435C375.202 220.298 376.677 216.656 377.246 212.818C377.408 211.778 377.515 210.729 377.565 209.677C377.565 209.343 377.565 209.075 377.631 208.853C377.616 208.76 377.616 208.666 377.631 208.574C377.648 208.666 377.648 208.761 377.631 208.853V209.677C377.619 210.739 377.545 211.799 377.411 212.852C376.918 216.758 375.474 220.479 373.209 223.68C372.438 224.729 371.544 225.68 370.547 226.51C369.447 227.409 368.199 228.107 366.862 228.57C365.42 229.05 363.892 229.206 362.385 229.027C360.793 228.796 359.267 228.227 357.908 227.356C355.061 225.395 352.859 222.618 351.583 219.38C350.167 215.958 349.438 212.285 349.438 208.574C349.438 204.864 350.167 201.19 351.583 197.768C352.859 194.531 355.061 191.753 357.908 189.792C359.267 188.922 360.793 188.352 362.385 188.121C363.892 187.943 365.42 188.098 366.862 188.578C368.199 189.041 369.447 189.739 370.547 190.639C371.547 191.466 372.441 192.416 373.209 193.468C375.478 196.667 376.922 200.389 377.411 204.296C377.545 205.346 377.618 206.402 377.631 207.46V208.296C377.638 208.359 377.638 208.422 377.631 208.485Z" fill="#263238"/>
<path d="M365.838 220.271C370.741 220.271 374.715 214.486 374.715 207.349C374.715 200.212 370.741 194.426 365.838 194.426C360.935 194.426 356.961 200.212 356.961 207.349C356.961 214.486 360.935 220.271 365.838 220.271Z" fill="#455A64"/>
<path d="M374.715 207.349C374.649 207.349 374.715 206.368 374.396 204.642C374.028 202.221 373.084 199.927 371.646 197.958C370.668 196.607 369.311 195.586 367.752 195.028C366.887 194.746 365.971 194.658 365.068 194.772C364.117 194.915 363.206 195.261 362.395 195.785C360.669 197.003 359.334 198.708 358.556 200.687C357.686 202.805 357.241 205.077 357.247 207.371C357.236 209.665 357.681 211.939 358.556 214.055C359.334 216.034 360.669 217.739 362.395 218.957C363.206 219.481 364.117 219.827 365.068 219.97C365.971 220.084 366.887 219.996 367.752 219.714C369.311 219.156 370.668 218.135 371.646 216.784C373.084 214.815 374.028 212.521 374.396 210.1C374.671 208.374 374.649 207.393 374.715 207.404C374.73 207.638 374.73 207.873 374.715 208.106C374.714 208.784 374.67 209.461 374.583 210.134C374.291 212.633 373.379 215.017 371.932 217.063C370.924 218.506 369.504 219.603 367.862 220.204C366.936 220.523 365.952 220.63 364.98 220.516C363.949 220.354 362.964 219.975 362.087 219.402C360.259 218.146 358.842 216.365 358.017 214.289C357.11 212.096 356.643 209.743 356.643 207.365C356.643 204.988 357.11 202.635 358.017 200.442C358.842 198.366 360.259 196.585 362.087 195.329C362.961 194.758 363.942 194.379 364.969 194.215C365.944 194.102 366.932 194.208 367.862 194.527C369.504 195.128 370.924 196.225 371.932 197.668C373.379 199.714 374.291 202.098 374.583 204.597C374.67 205.269 374.714 205.947 374.715 206.625C374.73 206.866 374.73 207.108 374.715 207.349Z" fill="#263238"/>
<path d="M366.454 216.64C369.978 216.64 372.834 212.48 372.834 207.349C372.834 202.218 369.978 198.058 366.454 198.058C362.931 198.058 360.074 202.218 360.074 207.349C360.074 212.48 362.931 216.64 366.454 216.64Z" fill="#455A64"/>
<path d="M372.833 207.349C372.778 207.349 372.778 206.647 372.58 205.41C372.297 203.672 371.611 202.027 370.579 200.609C369.883 199.648 368.917 198.922 367.806 198.526C367.174 198.321 366.504 198.264 365.847 198.358C365.19 198.453 364.562 198.697 364.011 199.072C361.624 200.665 360.359 204.007 360.348 207.338C360.337 210.668 361.624 214.022 364.011 215.615C364.562 215.99 365.19 216.234 365.847 216.328C366.504 216.423 367.174 216.365 367.806 216.16C368.917 215.765 369.883 215.039 370.579 214.077C371.611 212.66 372.297 211.014 372.58 209.276C372.778 208.039 372.778 207.338 372.833 207.349C372.86 207.515 372.86 207.684 372.833 207.85C372.839 208.338 372.813 208.825 372.756 209.309C372.559 211.12 371.907 212.849 370.864 214.334C370.122 215.361 369.091 216.137 367.905 216.562C367.23 216.791 366.513 216.871 365.804 216.795C365.054 216.69 364.334 216.425 363.692 216.016C362.361 215.103 361.33 213.807 360.733 212.295C360.072 210.709 359.73 209.004 359.73 207.282C359.73 205.56 360.072 203.855 360.733 202.269C361.33 200.757 362.361 199.461 363.692 198.548C364.334 198.139 365.054 197.873 365.804 197.768C366.513 197.693 367.23 197.772 367.905 198.002C369.091 198.427 370.122 199.203 370.864 200.23C371.907 201.714 372.559 203.444 372.756 205.254C372.813 205.739 372.839 206.226 372.833 206.714C372.873 206.924 372.873 207.139 372.833 207.349Z" fill="#263238"/>
<defs>
<linearGradient id="paint0_linear_1477_10509" x1="135.003" y1="90.6238" x2="135.003" y2="182.874" gradientUnits="userSpaceOnUse">
<stop stop-color="#9B51E0"/>
<stop offset="1" stop-color="#1AE3D9"/>
</linearGradient>
<linearGradient id="paint1_linear_1477_10509" x1="138.988" y1="135.523" x2="138.988" y2="176.391" gradientUnits="userSpaceOnUse">
<stop stop-color="#9B51E0"/>
<stop offset="1" stop-color="#1AE3D9"/>
</linearGradient>
<linearGradient id="paint2_linear_1477_10509" x1="137.192" y1="66.762" x2="137.192" y2="79.8515" gradientUnits="userSpaceOnUse">
<stop stop-color="#9B51E0"/>
<stop offset="1" stop-color="#1AE3D9"/>
</linearGradient>
<linearGradient id="paint3_linear_1477_10509" x1="137.185" y1="73.3123" x2="137.185" y2="88.7969" gradientUnits="userSpaceOnUse">
<stop stop-color="#9B51E0"/>
<stop offset="1" stop-color="#1AE3D9"/>
</linearGradient>
<linearGradient id="paint4_linear_1477_10509" x1="61.2504" y1="114.765" x2="72.2276" y2="123.517" gradientUnits="userSpaceOnUse">
<stop stop-color="#9B51E0"/>
<stop offset="1" stop-color="#1AE3D9"/>
</linearGradient>
<linearGradient id="paint5_linear_1477_10509" x1="207.91" y1="104.321" x2="197.499" y2="113.757" gradientUnits="userSpaceOnUse">
<stop stop-color="#9B51E0"/>
<stop offset="1" stop-color="#1AE3D9"/>
</linearGradient>
<linearGradient id="paint6_linear_1477_10509" x1="129.485" y1="165.759" x2="141.047" y2="177.177" gradientUnits="userSpaceOnUse">
<stop stop-color="#9B51E0"/>
<stop offset="1" stop-color="#1AE3D9"/>
</linearGradient>
<linearGradient id="paint7_linear_1477_10509" x1="290.538" y1="267.36" x2="290.538" y2="524.582" gradientUnits="userSpaceOnUse">
<stop stop-color="#9B51E0"/>
<stop offset="1" stop-color="#1AE3D9"/>
</linearGradient>
<linearGradient id="paint8_linear_1477_10509" x1="462.232" y1="286.799" x2="462.232" y2="524.582" gradientUnits="userSpaceOnUse">
<stop stop-color="#9B51E0"/>
<stop offset="1" stop-color="#1AE3D9"/>
</linearGradient>
<linearGradient id="paint9_linear_1477_10509" x1="161.94" y1="384.874" x2="161.94" y2="433.613" gradientUnits="userSpaceOnUse">
<stop stop-color="#9B51E0"/>
<stop offset="1" stop-color="#1AE3D9"/>
</linearGradient>
</defs>
</svg>
