<svg width="68" height="57" viewBox="0 0 68 57" fill="none" xmlns="http://www.w3.org/2000/svg">
<g filter="url(#filter0_d_621_11192)">
<path fill-rule="evenodd" clip-rule="evenodd" d="M25.5587 2C19.7946 2.13612 14.3124 4.52151 10.2839 8.64632C6.2553 12.7711 4 18.3081 4 24.0738C4 29.8396 6.2553 35.3766 10.2839 39.5014C14.3124 43.6262 19.7946 46.0116 25.5587 46.1477H26.5434V28.6462C26.5434 27.3415 27.5403 25.6677 28.8572 25.6677H47.5649C47.5649 24.9415 47.6387 24.4369 47.6387 24.0431C47.6096 18.1995 45.2727 12.6041 41.1372 8.47549C37.0016 4.34686 31.4024 2.01941 25.5587 2ZM43.1834 22.1846H37.4972C37.3891 17.6007 36.3242 13.0899 34.371 8.94154C36.7627 10.3186 38.803 12.2309 40.3319 14.5285C41.8608 16.8261 42.8368 19.4466 43.1834 22.1846ZM23.0357 7.67385V22.1846H17.9895C18.371 15.2677 20.5495 9.80308 23.0357 7.67385ZM23.0357 25.9631V40.4615C20.5741 38.3323 18.371 32.8923 17.9895 25.9631H23.0357ZM28.0818 22.1846V7.67385C30.5434 9.80308 32.7587 15.2677 33.128 22.1846H28.0818ZM16.7341 8.94154C14.8144 13.101 13.7553 17.6055 13.6203 22.1846H7.8972C8.24275 19.4433 9.22099 16.8198 10.7546 14.5214C12.2883 12.2231 14.3354 10.3128 16.7341 8.94154ZM7.90951 26.5908H13.6326C13.7381 31.1604 14.7944 35.658 16.7341 39.7969C14.3435 38.4264 12.3027 36.5209 10.7716 34.2297C9.24062 31.9385 8.26099 29.3239 7.90951 26.5908Z" fill="white"/>
<path fill-rule="evenodd" clip-rule="evenodd" d="M59.9469 29.4092H33.1531C32.337 29.4092 31.5544 29.7334 30.9774 30.3104C30.4003 30.8874 30.0762 31.6701 30.0762 32.4861V47.4399C30.0762 48.256 30.4003 49.0386 30.9774 49.6157C31.5544 50.1927 32.337 50.5169 33.1531 50.5169H59.9469C60.763 50.5169 61.5456 50.1927 62.1227 49.6157C62.6997 49.0386 63.0239 48.256 63.0239 47.4399V32.4861C63.0239 31.6701 62.6997 30.8874 62.1227 30.3104C61.5456 29.7334 60.763 29.4092 59.9469 29.4092ZM36.7592 47.4399C36.7724 46.968 36.6923 46.498 36.5237 46.0569C36.3551 45.6159 36.1013 45.2124 35.7767 44.8695C35.4521 44.5266 35.0631 44.251 34.6319 44.0585C34.2007 43.866 33.7359 43.7604 33.2639 43.7476H33.1654V36.1046C34.1177 36.1278 35.0406 35.7732 35.7324 35.1183C36.4242 34.4634 36.8287 33.5614 36.8577 32.6092V32.523H56.3162C56.3161 33.4644 56.6867 34.368 57.3477 35.0383C58.0088 35.7086 58.9072 36.0916 59.8485 36.1046H59.9469V43.7969C59.4733 43.7854 59.0021 43.8674 58.5602 44.0381C58.1183 44.2089 57.7144 44.465 57.3715 44.7919C57.0286 45.1188 56.7535 45.51 56.5618 45.9432C56.3702 46.3765 56.2658 46.8433 56.2546 47.3169V47.4276L36.7592 47.4399Z" fill="white"/>
<path d="M46.5442 44.8678C49.3991 44.8678 51.7135 42.5534 51.7135 39.6985C51.7135 36.8436 49.3991 34.5293 46.5442 34.5293C43.6893 34.5293 41.375 36.8436 41.375 39.6985C41.375 42.5534 43.6893 44.8678 46.5442 44.8678Z" fill="white"/>
</g>
<defs>
<filter id="filter0_d_621_11192" x="0" y="0" width="67.0234" height="56.5168" filterUnits="userSpaceOnUse" color-interpolation-filters="sRGB">
<feFlood flood-opacity="0" result="BackgroundImageFix"/>
<feColorMatrix in="SourceAlpha" type="matrix" values="0 0 0 0 0 0 0 0 0 0 0 0 0 0 0 0 0 0 127 0" result="hardAlpha"/>
<feOffset dy="2"/>
<feGaussianBlur stdDeviation="2"/>
<feComposite in2="hardAlpha" operator="out"/>
<feColorMatrix type="matrix" values="0 0 0 0 0 0 0 0 0 0 0 0 0 0 0 0 0 0 0.25 0"/>
<feBlend mode="normal" in2="BackgroundImageFix" result="effect1_dropShadow_621_11192"/>
<feBlend mode="normal" in="SourceGraphic" in2="effect1_dropShadow_621_11192" result="shape"/>
</filter>
</defs>
</svg>
