<svg width="74" height="62" viewBox="0 0 74 62" fill="none" xmlns="http://www.w3.org/2000/svg">
<g filter="url(#filter0_d_621_11178)">
<path d="M23.5078 16.1056C23.5078 23.9909 29.9296 30.1341 37.2314 30.1341C44.512 30.1341 50.9549 24.4344 50.9549 16.5284C50.9549 8.64314 44.5331 2.5 37.2314 2.5C29.5272 2.5 23.5078 8.20962 23.5078 16.1056ZM27.8137 16.1056C27.8137 10.8751 32.1461 6.45934 37.2314 6.45934C42.3166 6.45934 46.649 10.8751 46.649 16.1056C46.649 21.3501 42.7164 25.7519 37.2314 25.7519C31.7463 25.7519 27.8137 21.3501 27.8137 16.1056Z" fill="white" stroke="white"/>
<path d="M57.8942 53.8087H58.3942V53.3087C58.3942 39.1601 48.7385 27.8657 36.8192 27.8657C24.8998 27.8657 15.2441 39.1601 15.2441 53.3087V53.8087H15.7441H57.8942Z" stroke="white"/>
<path d="M57.894 55.5H57.9769L58.0554 55.4733L59.2951 55.0505L59.6337 54.935V54.5773V52.8862C59.6337 38.3045 49.1426 26.1749 36.4057 26.1749C23.664 26.1749 13.1777 38.31 13.1777 53.309V55V55.5H13.6777H57.894ZM52.2942 10.6323L52.3179 10.6445L52.3428 10.654C55.4638 11.8514 57.394 14.6307 57.394 17.7969C57.394 22.1648 53.9051 25.3294 50.0425 25.3294C49.4626 25.3294 48.9274 25.6207 48.5485 26.0084C48.1689 26.3967 47.8896 26.9391 47.8896 27.5205C47.8896 28.1019 48.1689 28.6442 48.5485 29.0326C48.9274 29.4202 49.4626 29.7115 50.0425 29.7115C56.1305 29.7115 61.2711 24.3929 61.6988 17.8294L61.6999 17.8132V17.7969C61.6999 12.5504 58.7082 8.11202 53.9419 6.75917C53.4115 6.50384 52.8595 6.50371 52.3728 6.7171C51.8828 6.93192 51.4944 7.34608 51.2462 7.85384C50.9772 8.40434 50.9713 8.97749 51.1826 9.48202C51.3903 9.97768 51.7933 10.3761 52.2942 10.6323ZM55.7179 51.1179H17.525C18.546 39.7061 26.5737 30.557 36.8189 30.557C46.6685 30.557 55.0816 39.7205 55.7179 51.1179Z" fill="white" stroke="white"/>
<path d="M68.2251 50.0041H68.7251V49.5041V47.8131C68.7251 35.7738 60.3054 25.7522 49.6295 25.7522C49.0496 25.7522 48.5145 26.0435 48.1355 26.4311C47.7559 26.8195 47.4766 27.3619 47.4766 27.9432C47.4766 28.5246 47.7559 29.067 48.1355 29.4553C48.5145 29.843 49.0496 30.1343 49.6295 30.1343C57 30.1343 63.352 36.7718 64.3659 45.622H62.8531C62.2731 45.622 61.738 45.9134 61.3591 46.301C60.9795 46.6893 60.7001 47.2317 60.7001 47.8131C60.7001 48.3945 60.9795 48.9368 61.3591 49.3252C61.738 49.7128 62.2731 50.0041 62.8531 50.0041H66.5722H68.2251Z" fill="white" stroke="white"/>
<path d="M21.6909 11.0833L21.7251 11.0716L21.7572 11.0552C22.2581 10.799 22.6612 10.4005 22.8688 9.90487C23.0802 9.40035 23.0743 8.82719 22.8052 8.27669C22.557 7.76893 22.1686 7.35477 21.6786 7.13995C21.1858 6.92388 20.6261 6.92673 20.0896 7.19175C15.3648 8.96143 12.3516 13.3676 12.3516 18.2198C12.3516 21.2628 13.2009 24.3656 15.3867 26.6018C17.4985 28.7623 20.4039 29.6496 23.2858 29.7085V29.7116H23.2858H23.2858H23.2858H23.2859H23.2859H23.286H23.2861H23.2862H23.2862H23.2863H23.2864H23.2866H23.2867H23.2868H23.287H23.2871H23.2873H23.2875H23.2877H23.2879H23.2881H23.2883H23.2885H23.2887H23.289H23.2892H23.2895H23.2897H23.29H23.2903H23.2906H23.2909H23.2912H23.2916H23.2919H23.2922H23.2926H23.293H23.2933H23.2937H23.2941H23.2945H23.2949H23.2953H23.2958H23.2962H23.2967H23.2971H23.2976H23.2981H23.2986H23.2991H23.2996H23.3001H23.3006H23.3011H23.3017H23.3022H23.3028H23.3034H23.3039H23.3045H23.3051H23.3057H23.3064H23.307H23.3076H23.3083H23.3089H23.3096H23.3103H23.311H23.3117H23.3124H23.3131H23.3138H23.3145H23.3153H23.316H23.3168H23.3176H23.3183H23.3191H23.3199H23.3207H23.3216H23.3224H23.3232H23.3241H23.3249H23.3258H23.3267H23.3276H23.3284H23.3294H23.3303H23.3312H23.3321H23.3331H23.334H23.335H23.3359H23.3369H23.3379H23.3389H23.3399H23.3409H23.342H23.343H23.344H23.3451H23.3462H23.3472H23.3483H23.3494H23.3505H23.3516H23.3527H23.3539H23.355H23.3562H23.3573H23.3585H23.3597H23.3608H23.362H23.3633H23.3645H23.3657H23.3669H23.3682H23.3694H23.3707H23.372H23.3732H23.3745H23.3758H23.3771H23.3785H23.3798H23.3811H23.3825H23.3838H23.3852H23.3866H23.388H23.3894H23.3908H23.3922H23.3936H23.395H23.3965H23.3979H23.3994H23.4009H23.4023H23.4038H23.4053H23.4068H23.4084H23.4099H23.4114H23.413H23.4145H23.4161H23.4177H23.4192H23.4208H23.4224H23.4241H23.4257H23.4273H23.4289H23.4306H23.4323H23.4339H23.4356H23.4373H23.439H23.4407H23.4424H23.4441H23.4459H23.4476H23.4494H23.4511H23.4529H23.4547H23.4565H23.4583H23.4601H23.4619H23.4638H23.4656H23.4674H23.4693H23.4712H23.473H23.4749H23.4768H23.4787H23.4807H23.4826H23.4845H23.4865H23.4884H23.4904H23.4923H23.4943H23.4963H23.4983H23.5003H23.5023H23.5044H23.5064H23.5085H23.5105H23.5126H23.5147H23.5167H23.5188H23.5209H23.5231H23.5252H23.5273H23.5295H23.5316H23.5338H23.5359H23.5381H23.5403H23.5425H23.5447H23.5469H23.5492H23.5514H23.5536H23.5559H23.5582H23.5604H23.5627H23.565H23.5673H23.5696H23.572H23.5743H23.5766H23.579H23.5813H23.5837H23.5861H23.5885H23.5909H23.5933H23.5957C24.0889 29.7116 24.55 29.5847 24.883 29.244C25.214 28.9055 25.3354 28.4403 25.3354 27.9433C25.3354 27.4487 25.2157 26.8998 24.8615 26.465C24.5017 26.0232 23.9534 25.7648 23.2353 25.7527C21.1441 25.3244 19.3113 24.9174 18.2136 23.4201L18.1927 23.3915L18.168 23.3662C17.0312 22.2032 16.2442 20.2206 16.2442 18.2198C16.2442 15.0661 18.1602 12.2873 21.6909 11.0833Z" fill="white" stroke="white"/>
<path d="M4.5 49.5035V50.0035H5H9.95883C11.2333 50.0035 11.8693 49.2126 12.2162 48.7813C12.281 48.7007 12.3357 48.6327 12.3826 48.5847L12.525 48.439V48.2352C12.525 47.6538 12.2456 47.1115 11.866 46.7231C11.4871 46.3355 10.952 46.0442 10.3721 46.0442H8.85926C9.87311 37.1939 16.2251 30.5564 23.5956 30.5564C24.1755 30.5564 24.7107 30.2651 25.0896 29.8775C25.4692 29.4891 25.7486 28.9468 25.7486 28.3654C25.7486 27.784 25.4692 27.2416 25.0896 26.8533C24.7107 26.4656 24.1755 26.1743 23.5956 26.1743C12.9316 26.1743 4.5 35.7596 4.5 47.8124V49.5035Z" fill="white" stroke="white"/>
</g>
<defs>
<filter id="filter0_d_621_11178" x="0" y="0" width="73.2246" height="62" filterUnits="userSpaceOnUse" color-interpolation-filters="sRGB">
<feFlood flood-opacity="0" result="BackgroundImageFix"/>
<feColorMatrix in="SourceAlpha" type="matrix" values="0 0 0 0 0 0 0 0 0 0 0 0 0 0 0 0 0 0 127 0" result="hardAlpha"/>
<feOffset dy="2"/>
<feGaussianBlur stdDeviation="2"/>
<feComposite in2="hardAlpha" operator="out"/>
<feColorMatrix type="matrix" values="0 0 0 0 0 0 0 0 0 0 0 0 0 0 0 0 0 0 0.25 0"/>
<feBlend mode="normal" in2="BackgroundImageFix" result="effect1_dropShadow_621_11178"/>
<feBlend mode="normal" in="SourceGraphic" in2="effect1_dropShadow_621_11178" result="shape"/>
</filter>
</defs>
</svg>
